<?xml version="1.0" standalone="no"?>
<!DOCTYPE svg PUBLIC "-//W3C//DTD SVG 20010904//EN"
 "http://www.w3.org/TR/2001/REC-SVG-20010904/DTD/svg10.dtd">
<svg version="1.0" xmlns="http://www.w3.org/2000/svg"
 width="202.000000pt" height="212.000000pt" viewBox="0 0 202.000000 212.000000"
 preserveAspectRatio="xMidYMid meet">

<g transform="translate(0.000000,212.000000) scale(0.100000,-0.100000)"
fill="#000000" stroke="none">
<path d="M105 2055 c-78 -28 -79 -31 -31 -480 19 -176 60 -561 91 -855 32
-312 62 -552 71 -577 25 -68 46 -73 293 -73 181 0 211 2 211 15 0 13 -29 15
-205 15 -237 0 -258 5 -274 68 -10 39 -191 1724 -191 1780 0 46 14 68 51 81
35 12 1719 14 1773 2 16 -3 38 -18 48 -32 20 -26 20 -27 -75 -928 -101 -956
-99 -941 -153 -961 -14 -6 -117 -10 -230 -10 -175 0 -204 -2 -204 -15 0 -23
420 -22 460 1 59 36 56 12 158 986 106 1005 104 944 37 978 -44 22 -1769 27
-1830 5z"/>
<path d="M1570 1744 c-366 -194 -573 -413 -679 -717 -17 -49 -31 -90 -31 -93
0 -2 103 -4 229 -4 l229 0 7 28 c11 44 80 184 114 229 41 57 134 129 193 150
l48 17 0 223 c0 123 -1 223 -2 223 -2 0 -50 -25 -108 -56z"/>
<path d="M370 1585 l0 -205 323 0 322 1 45 56 c80 98 237 226 386 313 l69 40
-573 0 -572 0 0 -205z"/>
<path d="M1572 884 c-12 -8 -22 -10 -22 -5 0 6 -22 11 -50 11 l-50 0 0 -155 0
-155 45 0 45 0 0 113 c0 61 4 118 9 125 4 8 19 12 32 10 24 -3 24 -5 27 -125
l3 -123 44 0 45 0 0 131 c0 125 -7 163 -34 181 -19 13 -71 9 -94 -8z"/>
<path d="M340 735 l0 -155 85 0 c84 0 85 0 85 25 0 23 -4 25 -40 25 l-40 0 0
40 0 40 40 0 c38 0 40 2 40 30 0 28 -2 30 -40 30 -38 0 -40 2 -40 30 0 28 2
30 40 30 38 0 40 2 40 30 l0 30 -85 0 -85 0 0 -155z"/>
<path d="M560 735 l0 -155 80 0 c79 0 80 0 80 25 0 22 -4 25 -35 25 l-35 0 0
130 0 130 -45 0 -45 0 0 -155z"/>
<path d="M750 735 l0 -155 85 0 c84 0 85 0 85 25 0 23 -4 25 -40 25 l-40 0 0
40 0 40 40 0 c38 0 40 2 40 30 0 28 -2 30 -40 30 -38 0 -40 2 -40 29 0 27 3
30 38 33 32 3 37 7 40 31 l3 27 -85 0 -86 0 0 -155z"/>
<path d="M951 873 c0 -10 10 -79 22 -153 l22 -135 70 -3 70 -3 31 156 31 155
-32 0 -33 0 -17 -92 c-20 -104 -30 -133 -39 -108 -3 8 -11 56 -18 105 l-14 90
-47 3 c-40 3 -47 0 -46 -15z"/>
<path d="M1230 735 l0 -155 85 0 c84 0 85 0 85 25 0 23 -4 25 -40 25 l-40 0 0
40 0 40 40 0 c38 0 40 2 40 30 0 28 -2 30 -40 30 -38 0 -40 2 -40 30 0 28 2
30 40 30 38 0 40 2 40 30 l0 30 -85 0 -85 0 0 -155z"/>
<path d="M786 468 c-7 -78 -26 -388 -26 -425 l0 -23 245 0 245 0 0 238 c0 130
3 247 6 260 l6 22 -235 0 -235 0 -6 -72z"/>
<path d="M1351 473 c2 -24 2 -25 6 -5 2 12 8 22 13 22 5 0 11 -10 13 -22 4
-20 4 -19 6 5 1 21 -4 27 -19 27 -15 0 -20 -6 -19 -27z"/>
</g>
</svg>
