<?xml version="1.0" standalone="no"?>
<!DOCTYPE svg PUBLIC "-//W3C//DTD SVG 20010904//EN"
 "http://www.w3.org/TR/2001/REC-SVG-20010904/DTD/svg10.dtd">
<svg version="1.0" xmlns="http://www.w3.org/2000/svg"
 width="250.000000pt" height="129.000000pt" viewBox="0 0 250.000000 129.000000"
 preserveAspectRatio="xMidYMid meet">

<g transform="translate(0.000000,129.000000) scale(0.100000,-0.100000)"
fill="#ca1d1c" stroke="none">
<path d="M10 873 c0 -98 -3 -283 -7 -411 l-6 -232 294 0 294 0 53 35 c49 34
99 91 261 302 l63 82 -96 126 c-53 69 -96 133 -96 141 0 9 13 29 29 45 53 53
75 41 177 -91 43 -55 80 -97 84 -93 4 4 37 47 74 96 99 128 124 140 177 87 39
-39 36 -50 -61 -175 -115 -149 -110 -135 -66 -189 l37 -46 -46 -55 c-26 -30
-49 -55 -51 -55 -2 0 -19 20 -38 45 l-34 46 -83 -108 c-45 -59 -100 -127 -123
-150 l-40 -43 847 0 847 0 0 410 0 410 -270 0 c-297 0 -299 0 -388 -68 -28
-22 -292 -351 -292 -365 0 -3 40 -58 90 -123 100 -130 109 -158 64 -193 -30
-23 -61 -26 -85 -8 -9 7 -49 55 -88 107 -40 52 -75 94 -78 93 -3 -1 -32 -37
-65 -80 -78 -102 -108 -133 -129 -133 -31 0 -66 21 -78 47 -14 31 -3 52 103
187 42 54 76 101 76 104 0 4 -16 27 -35 51 -19 24 -35 47 -35 50 0 3 22 30 48
59 l47 54 33 -46 c18 -25 35 -46 37 -46 1 0 38 46 81 103 43 56 101 126 128
155 l49 52 -852 0 -851 0 0 -177z m584 78 c80 -39 147 -111 176 -189 29 -77
25 -205 -10 -272 -55 -108 -131 -169 -244 -197 -78 -19 -149 -11 -229 27 -195
92 -258 353 -128 526 103 137 282 181 435 105z m1648 7 c75 -35 128 -85 169
-160 32 -59 34 -69 34 -158 0 -84 -3 -102 -28 -152 -75 -152 -246 -234 -402
-193 -161 43 -264 175 -265 342 -1 161 93 286 255 340 61 20 170 11 237 -19z"/>
<path d="M365 811 c-143 -64 -155 -260 -22 -341 69 -43 160 -33 224 23 44 38
63 82 63 141 0 82 -39 142 -115 177 -51 23 -99 24 -150 0z"/>
<path d="M2035 818 c-79 -28 -125 -95 -125 -181 0 -32 7 -71 14 -86 30 -58
115 -111 176 -111 67 0 142 50 171 115 70 153 -79 319 -236 263z"/>
</g>
</svg>
