<?xml version="1.0" standalone="no"?>
<!DOCTYPE svg PUBLIC "-//W3C//DTD SVG 20010904//EN"
 "http://www.w3.org/TR/2001/REC-SVG-20010904/DTD/svg10.dtd">
<svg version="1.0" xmlns="http://www.w3.org/2000/svg"
 width="197.000000pt" height="70.000000pt" viewBox="0 0 197.000000 70.000000"
 preserveAspectRatio="xMidYMid meet">

<g transform="translate(0.000000,70.000000) scale(0.100000,-0.100000)"
fill="#00007f" stroke="none">
<path d="M197 636 c-64 -18 -97 -43 -125 -97 -18 -33 -22 -53 -17 -83 12 -81
64 -129 177 -160 111 -31 148 -47 159 -68 34 -63 -55 -113 -131 -73 -17 9 -34
29 -41 50 -13 34 -15 35 -64 35 -27 0 -67 -3 -88 -6 -36 -7 -38 -8 -32 -38 12
-59 57 -118 110 -145 44 -23 61 -26 155 -26 115 0 163 12 211 52 49 41 72 97
67 163 -7 103 -62 147 -239 191 -46 11 -90 25 -96 31 -21 17 -15 46 13 64 39
26 94 9 114 -34 l15 -34 84 6 c46 3 86 8 89 11 13 13 -21 86 -57 118 -60 54
-192 73 -304 43z"/>
<path d="M610 335 l0 -305 95 0 95 0 0 114 0 114 104 4 c91 3 108 6 143 30 52
34 77 86 77 163 -1 63 -17 106 -52 138 -42 38 -90 46 -279 47 l-183 0 0 -305z
m310 160 c23 -21 26 -63 6 -90 -9 -13 -30 -20 -70 -23 l-56 -4 0 72 0 73 50
-5 c28 -3 59 -13 70 -23z"/>
<path d="M1155 335 l0 -305 258 0 257 0 0 70 0 70 -165 0 -165 0 0 60 0 60
150 0 150 0 0 60 0 60 -150 0 -150 0 0 50 0 50 160 0 160 0 0 65 0 65 -252 0
-253 0 0 -305z m495 240 l0 -55 -160 0 -160 0 0 -60 0 -60 150 0 150 0 0 -50
0 -50 -150 0 -150 0 0 -70 0 -70 165 0 165 0 0 -60 0 -60 -245 0 -245 0 0 295
0 295 240 0 240 0 0 -55z"/>
<path d="M1740 525 l0 -115 40 0 40 0 -2 68 -2 67 -3 -56 c-4 -54 -5 -57 -33
-61 l-30 -5 0 104 0 103 85 0 85 0 0 -102 -1 -103 -42 67 c-23 37 -48 67 -55
68 -9 0 -10 -3 -2 -12 6 -7 33 -47 61 -88 l49 -75 0 128 0 127 -95 0 -95 0 0
-115z"/>
<path d="M1920 310 c0 -5 -22 -44 -50 -86 l-50 -77 0 72 0 71 -40 0 -40 0 0
-130 0 -130 95 0 95 0 0 145 c0 80 -2 145 -5 145 -3 0 -5 -4 -5 -10z"/>
</g>
</svg>
