<?xml version="1.0" standalone="no"?>
<!DOCTYPE svg PUBLIC "-//W3C//DTD SVG 20010904//EN"
 "http://www.w3.org/TR/2001/REC-SVG-20010904/DTD/svg10.dtd">
<svg version="1.0" xmlns="http://www.w3.org/2000/svg"
 width="1062pt" height="770pt" viewBox="0 0 1062 770"
 preserveAspectRatio="xMidYMid meet">

<g transform="translate(0,770) scale(0.1,-0.1)"
fill="#ffffff" stroke="none">
<path d="M664 7555 c-145 -31 -266 -98 -373 -206 -158 -157 -228 -340 -218
-564 15 -326 220 -588 537 -687 l75 -23 4635 0 4635 0 75 23 c253 80 433 259
512 512 19 63 23 96 23 210 0 114 -4 147 -23 210 -78 250 -252 425 -507 511
l-70 24 -4620 2 c-3825 1 -4631 -1 -4681 -12z"/>
<path d="M664 4555 c-145 -31 -266 -98 -373 -206 -158 -157 -228 -340 -218
-564 15 -326 220 -588 537 -687 l75 -23 4635 0 4635 0 75 23 c253 80 433 259
512 512 19 63 23 96 23 210 0 114 -4 147 -23 210 -78 250 -252 425 -507 511
l-70 24 -4620 2 c-3825 1 -4631 -1 -4681 -12z"/>
<path d="M664 1555 c-145 -31 -266 -98 -373 -206 -158 -157 -228 -340 -218
-564 15 -326 220 -588 537 -687 l75 -23 4635 0 4635 0 75 23 c253 80 433 259
512 512 19 63 23 96 23 210 0 114 -4 147 -23 210 -78 250 -252 425 -507 511
l-70 24 -4620 2 c-3825 1 -4631 -1 -4681 -12z"/>
</g>
</svg>
