<?xml version="1.0" standalone="no"?>
<!DOCTYPE svg PUBLIC "-//W3C//DTD SVG 20010904//EN"
 "http://www.w3.org/TR/2001/REC-SVG-20010904/DTD/svg10.dtd">
<svg version="1.0" xmlns="http://www.w3.org/2000/svg"
 width="600pt" height="200pt" viewBox="0 0 600 200"
 preserveAspectRatio="xMidYMid meet">

<g transform="translate(0,200) scale(0.1,-0.1)"
fill="#eFeFeF" stroke="none">
<path d="M133 1992 c3 -4 -26 -50 -64 -102 -62 -86 -77 -110 -65 -110 2 0 36
45 75 99 l72 99 123 -41 123 -41 -74 -103 c-42 -57 -78 -103 -82 -103 -4 0
-60 18 -124 39 -64 22 -117 36 -117 31 0 -5 53 -26 118 -47 l117 -40 3 -127 3
-128 -32 7 c-17 4 -70 20 -117 36 -47 16 -88 27 -90 24 -9 -8 0 -12 113 -47
l110 -35 -105 -33 c-58 -18 -109 -37 -115 -42 -16 -14 5 -9 116 26 l107 33
-75 -103 c-64 -88 -80 -104 -109 -110 -19 -3 -37 -11 -41 -17 -4 -6 4 -7 23
-2 16 4 36 8 45 9 20 1 165 -193 152 -203 -4 -4 -56 -22 -115 -41 -60 -19
-108 -38 -108 -42 0 -11 -9 -13 123 31 l118 40 -3 -131 -3 -131 -120 -40 c-66
-22 -114 -42 -108 -44 7 -3 63 12 124 32 62 21 115 33 119 29 36 -36 146 -200
137 -203 -7 -2 -62 -21 -124 -42 l-112 -37 -72 100 c-39 54 -73 97 -76 94 -5
-4 63 -105 128 -192 5 -6 -21 -50 -63 -108 -38 -53 -68 -99 -65 -102 3 -3 33
34 68 83 l64 88 3 -122 3 -122 -37 -51 c-20 -27 -32 -50 -27 -50 5 0 24 21 42
46 18 25 38 43 45 41 6 -2 56 -19 111 -37 55 -18 105 -37 111 -41 6 -5 59 8
129 31 66 22 123 40 128 40 5 0 -6 -18 -23 -40 -17 -22 -27 -40 -21 -40 5 0
22 18 38 40 15 22 31 40 34 40 4 0 19 -18 34 -40 15 -22 32 -40 37 -40 5 0 -3
17 -16 37 -14 20 -24 38 -23 40 2 1 57 -15 122 -37 68 -22 124 -35 130 -30 5
4 61 24 124 44 126 40 116 41 158 -26 16 -25 33 -37 33 -22 0 3 -16 26 -35 51
l-35 46 0 125 0 126 75 -102 75 -102 2 -78 2 -77 3 74 4 75 72 100 72 100 3
-121 3 -122 -37 -51 c-20 -27 -32 -50 -27 -50 5 0 24 20 42 45 18 25 33 45 35
45 9 0 215 -72 234 -82 17 -9 27 -9 45 0 18 10 224 82 233 82 2 0 17 -20 35
-45 18 -25 37 -45 42 -45 5 0 -7 23 -27 50 l-37 51 3 122 3 122 72 -101 72
-100 4 -75 3 -74 2 73 c1 39 3 72 5 72 1 0 56 -18 122 -39 118 -39 120 -40
126 -73 l6 -33 2 34 c1 24 19 58 67 125 37 50 71 96 76 101 6 6 8 -42 6 -123
-2 -72 -3 -132 -3 -132 0 3 240 79 242 77 1 -2 -9 -20 -23 -40 -13 -20 -21
-37 -16 -37 5 0 22 18 37 40 15 22 30 40 34 40 3 0 19 -18 34 -40 16 -22 33
-40 38 -40 6 0 -2 16 -17 35 -15 20 -25 38 -22 40 2 3 57 -13 122 -35 86 -29
122 -37 134 -29 9 5 64 25 121 44 114 38 115 38 152 -21 11 -19 25 -34 31 -34
5 0 -6 23 -26 50 l-37 51 3 122 3 122 73 -100 72 -100 2 -75 1 -75 6 80 6 80
70 96 70 96 3 -120 c3 -119 2 -121 -26 -161 -39 -56 -45 -66 -35 -66 7 0 32
33 64 82 6 9 223 -56 244 -73 6 -4 62 9 130 31 65 22 121 38 123 35 2 -2 -8
-20 -23 -39 -15 -20 -23 -36 -18 -36 6 0 23 18 38 40 15 22 30 40 34 40 3 0
19 -18 34 -40 16 -22 33 -40 38 -40 6 0 -2 16 -17 35 -15 20 -25 38 -22 40 2
3 57 -13 122 -35 86 -29 122 -37 134 -29 9 5 64 25 122 45 l105 35 20 -24 c11
-12 27 -34 36 -47 9 -14 20 -22 23 -19 3 3 -10 27 -29 52 l-36 47 3 122 3 123
73 -100 72 -100 2 -75 1 -75 6 80 6 80 70 96 70 96 3 -120 c3 -119 2 -121 -26
-161 -39 -56 -45 -66 -35 -66 7 0 32 33 64 82 6 9 224 -56 245 -73 8 -6 59 7
144 36 73 25 134 45 136 45 2 0 17 -20 34 -45 17 -25 35 -45 40 -45 6 0 -6 22
-25 49 l-36 49 3 122 3 122 68 -94 67 -93 0 -77 c0 -45 4 -78 10 -78 6 0 10
32 10 76 l0 76 73 100 72 100 3 -122 3 -121 -37 -50 c-20 -28 -34 -52 -31 -56
3 -3 20 15 38 41 28 39 36 45 57 39 17 -4 23 -2 18 6 -4 6 -14 11 -22 11 -11
0 -14 24 -14 131 0 126 1 131 20 126 22 -6 28 8 8 16 -10 4 -10 6 0 6 6 1 12
5 12 11 0 6 -9 6 -23 1 -20 -8 -29 1 -90 87 -38 52 -71 100 -73 106 -3 8 30
23 86 41 50 16 94 33 96 37 8 13 -8 10 -101 -22 -49 -17 -90 -30 -92 -30 -2 0
-3 58 -3 130 l0 129 100 31 c55 17 100 35 100 40 0 5 -26 0 -57 -11 -32 -11
-79 -26 -104 -33 l-46 -14 -72 98 c-39 54 -71 102 -71 107 0 5 46 23 103 40
56 18 110 35 119 38 11 5 31 -14 72 -71 31 -42 56 -71 56 -64 0 7 -23 43 -50
81 l-50 69 50 69 c27 38 50 74 50 81 0 6 -26 -24 -58 -67 l-58 -78 -114 -37
c-63 -21 -115 -36 -116 -35 -1 1 30 46 69 99 l71 98 95 31 c86 28 131 49 106
49 -5 0 -53 -14 -107 -32 l-98 -32 -118 39 -117 38 119 39 118 39 104 -35 c57
-19 104 -31 104 -26 0 5 -45 23 -100 41 l-100 33 0 128 c0 70 1 128 3 128 1 0
45 -14 97 -30 52 -16 96 -27 99 -25 6 7 5 8 -104 43 l-100 32 -73 101 c-47 64
-66 99 -55 95 11 -3 64 -21 118 -39 l100 -33 54 -72 c29 -40 56 -70 59 -68 3
3 -18 37 -47 76 l-52 71 37 50 c19 27 32 49 27 49 -5 0 -24 -20 -42 -45 -27
-37 -37 -45 -54 -39 -12 4 -70 23 -129 44 l-108 37 -107 -37 c-60 -21 -118
-40 -130 -44 -22 -7 -23 -4 -25 41 l-1 48 -6 -46 -6 -45 -130 42 c-71 23 -134
39 -140 34 -10 -7 -238 -81 -240 -77 -8 16 -69 87 -72 83 -3 -3 9 -23 26 -44
17 -22 31 -44 31 -49 0 -5 -33 -55 -74 -111 l-74 -102 -76 106 -77 105 36 50
c20 27 33 49 28 49 -5 0 -24 -20 -42 -45 -18 -25 -34 -45 -35 -45 -2 0 -63 20
-135 45 -100 34 -135 43 -149 35 -9 -6 -64 -26 -122 -46 l-105 -35 -20 24
c-11 12 -27 34 -36 47 -9 14 -20 22 -23 19 -3 -3 5 -21 19 -39 14 -18 24 -35
22 -36 -3 -3 -192 56 -229 71 -11 4 -18 3 -18 -5 0 -11 -138 -210 -145 -210
-8 0 -150 203 -148 211 4 12 12 14 -122 -31 -65 -22 -120 -38 -123 -36 -2 3 8
21 23 40 15 20 23 36 18 36 -5 0 -22 -17 -36 -37 l-27 -38 0 38 c0 20 -4 37
-10 37 -5 0 -10 -20 -10 -44 l0 -45 -131 44 c-96 32 -135 42 -147 34 -9 -5
-64 -25 -122 -45 l-105 -35 -22 25 c-11 14 -28 35 -37 47 -8 13 -18 20 -21 17
-3 -2 10 -25 29 -50 l35 -45 -75 -104 c-42 -57 -78 -103 -80 -102 -12 5 -144
194 -144 205 0 7 14 31 30 52 17 22 28 42 25 45 -3 2 -13 -5 -21 -18 -9 -12
-26 -33 -37 -46 l-22 -24 -105 34 c-58 19 -113 39 -122 44 -12 8 -50 -1 -147
-34 l-131 -44 0 45 c0 24 -4 44 -10 44 -5 0 -10 -17 -10 -37 l0 -38 -25 38
c-14 20 -31 37 -37 37 -6 0 2 -16 17 -36 15 -19 25 -37 23 -40 -3 -2 -58 14
-123 36 -134 45 -126 43 -122 31 2 -9 -127 -196 -142 -206 -9 -5 -151 187
-151 205 0 8 -6 9 -17 5 -35 -14 -227 -74 -230 -71 -2 1 8 18 22 36 14 18 22
36 20 39 -3 2 -13 -5 -21 -18 -9 -12 -26 -33 -37 -46 l-22 -24 -105 34 c-58
19 -113 39 -122 44 -14 9 -48 1 -149 -34 -72 -25 -133 -45 -135 -45 -2 0 -17
20 -34 45 -17 25 -36 45 -42 45 -6 0 2 -16 17 -36 15 -19 25 -37 23 -40 -3 -2
-58 14 -123 36 -131 44 -128 43 -122 32z m1560 -199 c-41 -57 -78 -103 -82
-103 -6 0 -185 59 -229 75 -8 3 14 41 63 109 l76 104 123 -41 123 -41 -74
-103z m421 82 c41 -57 72 -106 68 -108 -26 -15 -235 -78 -240 -72 -4 3 -39 50
-78 103 l-71 97 121 42 c67 23 122 42 122 42 1 1 36 -46 78 -104z m1013 24 c9
-3 -101 -167 -137 -203 -6 -6 -210 53 -242 71 -4 2 27 50 69 107 l75 104 112
-37 c61 -21 116 -40 123 -42z m357 -24 c41 -57 72 -106 68 -108 -26 -15 -235
-78 -240 -72 -4 3 -39 50 -78 103 l-71 97 121 42 c67 23 122 42 122 42 1 1 36
-46 78 -104z m493 21 c4 -3 -107 -163 -137 -199 -6 -7 -232 57 -249 69 -4 3
17 33 96 141 l53 72 116 -39 c65 -22 119 -42 121 -44z m1371 0 c3 -4 -110
-167 -138 -199 -6 -7 -231 56 -249 69 -3 3 107 161 136 196 13 15 23 13 130
-23 64 -21 118 -41 121 -43z m355 -23 c37 -51 67 -96 67 -100 0 -5 -52 -26
-116 -47 -134 -44 -113 -52 -208 79 -40 55 -60 92 -53 94 79 30 233 77 238 72
3 -3 36 -47 72 -98z m-5035 -30 l-3 -127 -115 -38 c-63 -20 -118 -37 -122 -37
-5 -1 -8 57 -8 127 l0 128 108 36 c59 20 115 37 125 37 16 1 17 -10 15 -126z
m147 89 l110 -37 3 -129 c2 -119 1 -128 -15 -124 -10 3 -66 21 -125 39 l-108
34 0 128 c0 95 3 127 13 126 6 0 62 -17 122 -37z m455 -62 c40 -56 71 -102 69
-104 -14 -12 -243 -76 -249 -69 -31 36 -141 196 -137 199 9 9 203 73 224 73
16 1 39 -24 93 -99z m1099 -70 c38 -52 68 -96 66 -98 -2 -2 -54 13 -116 33
l-114 36 -65 91 c-36 50 -66 95 -68 99 -2 4 49 -9 112 -29 l115 -37 70 -95z
m425 66 l-69 -96 -111 -35 c-62 -19 -115 -35 -118 -35 -3 0 26 44 65 98 l70
97 112 36 c62 19 114 34 116 33 1 -2 -28 -46 -65 -98z m1456 -24 l0 -128 -107
-33 c-60 -19 -116 -36 -126 -38 -16 -5 -17 4 -15 123 l3 129 110 37 c61 20
116 37 123 37 9 1 12 -31 12 -127z m155 88 c55 -18 105 -37 112 -42 20 -16
135 -179 130 -184 -2 -3 -54 11 -114 30 l-109 36 -73 101 c-40 56 -67 100 -59
97 7 -3 58 -20 113 -38z m659 13 c-10 -16 -41 -60 -71 -100 l-52 -71 -111 -37
c-61 -20 -113 -35 -115 -33 -2 2 27 46 65 98 l69 95 113 37 c62 21 115 37 117
38 2 0 -5 -12 -15 -27z m-715 -92 l61 -85 0 -125 0 -126 -70 95 -69 95 -1 125
c0 72 4 120 9 115 5 -6 36 -48 70 -94z m-3949 -104 l0 -122 -65 -90 c-36 -49
-70 -94 -75 -99 -7 -7 -10 32 -10 111 l0 120 73 101 c39 56 73 102 75 102 1 0
2 -55 2 -123z m619 23 l72 -100 -3 -121 -3 -120 -72 100 -73 100 0 120 c0 67
2 121 4 121 2 0 36 -45 75 -100z m751 -23 l0 -123 -71 -97 c-39 -53 -72 -97
-75 -97 -2 0 -4 53 -4 119 l0 118 73 101 c39 56 73 102 75 102 1 0 2 -55 2
-123z m161 -69 c5 -10 8 -71 7 -135 l-3 -118 -72 99 -73 100 0 125 0 126 66
-90 c36 -50 70 -98 75 -107z m1209 69 l0 -123 -71 -97 c-39 -53 -72 -97 -75
-97 -2 0 -4 53 -4 118 l0 119 73 101 c39 56 73 102 75 102 1 0 2 -55 2 -123z
m161 -69 c5 -10 8 -71 7 -135 l-3 -118 -72 100 -73 100 0 125 0 125 66 -90
c36 -50 70 -98 75 -107z m617 -150 l-73 -100 -3 121 -3 122 73 101 73 100 3
-121 3 -122 -73 -101z m1370 0 l-73 -100 -3 121 -3 122 73 101 73 100 3 -121
3 -122 -73 -101z m162 247 l71 -96 -3 -122 -3 -122 -72 100 -73 100 0 117 c0
65 2 118 5 118 3 0 37 -43 75 -95z m-4100 -153 l0 -127 -125 -42 -126 -41 3
130 3 131 110 38 c61 21 116 38 123 38 9 1 12 -31 12 -127z m140 90 l115 -39
3 -127 3 -128 -33 7 c-18 4 -73 22 -123 39 l-90 31 -3 128 c-1 70 1 127 6 127
4 0 59 -17 122 -38z m708 -89 l-3 -128 -90 -31 c-49 -17 -105 -35 -123 -39
l-33 -7 3 128 3 127 110 38 c61 21 116 38 123 38 10 1 12 -28 10 -126z m142
89 l115 -39 3 -131 3 -130 -126 41 -125 42 0 127 c0 71 4 128 8 128 4 0 59
-17 122 -38z m380 -90 l0 -127 -125 -42 -126 -41 3 131 3 131 115 38 c63 20
118 37 123 38 4 0 7 -57 7 -128z m140 90 l115 -39 3 -126 c2 -98 0 -127 -10
-126 -7 0 -62 17 -123 37 l-110 37 -3 128 c-1 70 1 127 6 127 4 0 59 -17 122
-38z m710 -90 l0 -128 -117 -38 c-65 -20 -122 -36 -126 -36 -4 0 -6 57 -5 127
l3 126 110 38 c61 21 116 38 123 38 9 1 12 -31 12 -127z m140 90 l115 -39 3
-131 3 -130 -126 41 -125 42 0 127 c0 71 4 128 8 128 4 0 59 -17 122 -38z
m845 0 l120 -38 3 -127 c2 -96 0 -127 -10 -127 -7 0 -63 17 -125 37 l-113 37
0 128 c0 70 1 128 3 128 1 0 56 -17 122 -38z m385 -90 l0 -128 -113 -37 c-62
-20 -118 -37 -125 -37 -10 0 -12 31 -10 127 l3 126 110 38 c61 21 116 38 123
38 9 1 12 -31 12 -127z m140 90 l115 -39 3 -131 3 -130 -126 41 -125 42 0 127
c0 71 4 128 8 128 4 0 59 -17 122 -38z m700 -91 l0 -130 -114 -35 c-63 -20
-117 -36 -120 -36 -3 0 -6 57 -6 128 l0 127 113 36 c61 20 115 37 120 38 4 1
7 -57 7 -128z m-4781 -99 c39 -53 69 -97 68 -99 -2 -1 -54 14 -116 35 -123 41
-109 29 -224 189 l-38 52 120 -40 120 -41 70 -96z m3335 73 l75 -104 -67 -20
c-37 -11 -93 -29 -124 -40 l-57 -20 -76 105 c-56 78 -72 106 -61 110 30 12
221 73 228 74 4 0 41 -47 82 -105z m-3696 87 c-1 -5 -32 -49 -68 -98 l-65 -90
-115 -36 c-63 -20 -115 -36 -116 -35 -1 1 29 45 67 97 l69 95 107 37 c118 40
126 42 121 30z m112 -92 l72 -100 -17 -27 c-10 -14 -44 -62 -75 -105 l-58 -79
-54 73 c-30 40 -64 87 -76 105 l-23 32 73 100 c40 56 76 101 79 101 4 0 40
-45 79 -100z m1079 -43 c25 -34 58 -81 74 -104 l29 -41 -73 -101 c-40 -56 -76
-101 -79 -101 -3 0 -39 45 -79 101 l-73 100 37 52 c20 29 53 76 73 104 20 29
39 53 42 53 3 0 25 -29 49 -63z m1370 0 c25 -34 58 -81 74 -104 l29 -41 -73
-101 c-40 -56 -76 -100 -80 -99 -4 2 -40 47 -79 101 l-72 99 34 47 c18 25 51
72 73 103 22 32 42 57 45 57 3 0 25 -28 49 -62z m853 -9 c30 -40 64 -87 76
-104 l22 -31 -73 -101 c-39 -56 -75 -102 -79 -102 -7 0 -137 175 -145 196 -4
10 133 214 144 214 1 0 26 -33 55 -72z m1370 0 c30 -40 64 -87 76 -104 l22
-31 -73 -101 c-39 -56 -75 -102 -79 -102 -11 0 -150 198 -146 208 4 11 141
202 145 202 1 0 26 -33 55 -72z m-4843 -158 c39 -54 72 -102 72 -106 0 -5
-222 -83 -238 -84 -1 0 -25 33 -54 73 -29 39 -63 86 -76 104 l-24 31 118 40
c65 22 121 41 124 41 3 1 38 -44 78 -99z m389 56 c76 -26 110 -41 105 -49 -36
-60 -147 -198 -156 -194 -7 2 -57 19 -112 37 -55 18 -104 36 -108 40 -11 9
134 211 148 206 6 -2 61 -20 123 -40z m507 5 l120 -38 -119 -38 -118 -39 -102
33 c-55 18 -108 35 -116 38 -11 4 178 78 210 82 3 0 59 -17 125 -38z m845 0
c63 -21 108 -41 100 -44 -8 -3 -60 -20 -116 -38 l-100 -32 -120 38 -119 38
115 38 c63 20 117 37 120 38 3 1 57 -16 120 -38z m525 0 l120 -38 -119 -38
-118 -39 -102 33 c-55 18 -108 35 -116 38 -11 4 178 78 210 82 3 0 59 -17 125
-38z m845 1 c63 -21 110 -41 104 -44 -5 -3 -57 -20 -115 -38 l-107 -33 -118
38 -119 38 115 37 c63 21 117 38 120 39 3 1 57 -16 120 -37z m868 -6 c80 -27
110 -41 104 -49 -5 -7 -39 -54 -76 -104 -37 -51 -68 -93 -69 -93 -9 1 -238 78
-240 81 -5 10 148 209 157 206 6 -2 62 -21 124 -41z m502 6 c63 -21 110 -41
104 -44 -5 -3 -57 -20 -115 -38 l-107 -33 -118 38 -119 38 115 37 c63 21 117
38 120 39 3 1 57 -16 120 -37z m-670 22 c0 -3 -30 -48 -67 -99 l-67 -92 -111
-36 c-61 -21 -114 -37 -118 -37 -4 0 25 44 64 98 l71 97 106 37 c115 39 122
41 122 32z m-4065 -179 l76 -105 -76 -105 -77 -105 -74 102 c-41 57 -72 108
-70 114 4 10 139 203 143 204 1 0 36 -47 78 -105z m849 -1 c36 -51 66 -97 66
-103 0 -13 -131 -195 -144 -200 -9 -3 -146 183 -146 200 0 17 143 210 151 201
3 -4 36 -48 73 -98z m254 -76 c41 -55 68 -99 60 -96 -7 3 -62 22 -123 42
l-110 37 -65 92 c-36 50 -66 95 -68 99 -2 4 50 -11 115 -33 l118 -40 73 -101z
m266 80 l75 -103 -112 -37 c-62 -21 -119 -37 -127 -38 -8 0 -48 46 -88 103
l-74 102 114 37 c62 20 118 36 125 37 6 1 45 -45 87 -101z m375 66 c64 -20
117 -38 119 -39 8 -7 -145 -204 -158 -204 -8 0 -65 17 -127 37 l-111 37 75
103 c41 56 77 102 80 102 3 0 58 -16 122 -36z m304 -67 l-68 -96 -117 -40
c-65 -22 -118 -37 -118 -34 0 3 30 47 68 99 l67 94 115 38 c63 22 116 38 118
37 2 -2 -27 -46 -65 -98z m171 -3 c36 -51 66 -97 66 -104 0 -17 -136 -202
-147 -199 -12 5 -143 187 -143 200 0 17 143 210 151 201 3 -4 36 -48 73 -98z
m254 -75 c47 -64 66 -99 54 -95 -10 3 -63 21 -117 39 l-100 33 -72 95 c-39 52
-72 97 -72 101 -1 3 52 -11 117 -33 l117 -40 73 -100z m266 79 l75 -103 -112
-37 c-62 -21 -119 -37 -127 -37 -8 0 -48 46 -88 102 l-73 102 113 37 c62 20
118 36 125 37 6 1 45 -45 87 -101z m375 66 c64 -20 117 -37 119 -39 8 -7 -145
-204 -158 -204 -8 0 -65 17 -127 37 l-111 37 75 103 c41 56 77 102 81 102 3 0
58 -16 121 -36z m469 -63 c40 -54 72 -101 72 -104 0 -5 -221 -77 -237 -77 -10
0 -158 199 -152 204 8 7 215 74 230 75 9 1 47 -42 87 -98z m907 -84 c20 -31
23 -25 -75 -159 l-58 -78 -76 105 -77 106 77 105 76 105 58 -79 c31 -43 65
-91 75 -105z m118 106 c9 -5 147 -190 147 -197 0 -2 -52 13 -116 34 l-115 37
-74 101 -73 100 111 -35 c62 -19 116 -37 120 -40z m345 -22 c40 -54 72 -101
72 -104 0 -5 -221 -77 -237 -77 -10 0 -157 199 -152 205 6 5 223 74 235 75 6
0 43 -45 82 -99z m384 60 l117 -38 -74 -101 c-41 -56 -81 -102 -88 -102 -7 0
-63 17 -125 38 l-113 37 76 103 c41 56 78 102 82 102 5 0 61 -17 125 -39z
m-2017 -142 c37 -51 69 -98 72 -105 3 -8 -28 -59 -67 -115 -84 -115 -68 -117
-164 16 l-64 89 21 31 c49 69 128 175 131 175 2 0 34 -41 71 -91z m-2857 10
c56 -18 102 -36 102 -39 0 -3 -49 -22 -108 -41 l-108 -36 -112 35 c-62 20
-112 38 -112 41 0 9 212 80 225 76 6 -1 56 -17 113 -36z m3590 0 c56 -18 102
-36 102 -39 0 -4 -50 -22 -112 -42 l-112 -35 -108 36 c-59 19 -108 38 -108 41
0 8 212 79 225 75 6 -1 56 -17 113 -36z m-3825 -93 l117 -37 0 -129 c0 -72 -1
-130 -2 -130 -2 0 -57 18 -123 39 l-120 40 -3 131 c-1 72 1 129 5 127 4 -3 61
-21 126 -41z m377 -85 l0 -129 -82 -27 c-46 -15 -102 -33 -125 -40 l-43 -14 0
129 0 128 118 40 c64 22 120 41 125 41 4 1 7 -57 7 -128z m445 93 c60 -20 114
-40 118 -44 6 -5 -56 -98 -138 -207 -1 -2 -56 16 -123 38 -88 29 -120 44 -115
53 20 32 139 195 143 196 3 0 54 -16 115 -36z m393 -160 l-3 -65 -120 -40
c-66 -21 -121 -39 -122 -39 -2 0 -3 58 -3 130 l0 129 123 39 122 38 3 -63 c2
-35 2 -93 0 -129z m155 152 l117 -37 0 -129 c0 -72 -1 -130 -2 -130 -2 0 -57
18 -123 39 l-120 40 -3 131 c-1 72 1 129 5 127 4 -3 61 -21 126 -41z m447 -48
c36 -50 68 -97 73 -104 5 -9 -27 -24 -115 -53 -67 -22 -122 -40 -123 -38 -1 1
-32 43 -68 93 -36 49 -67 96 -69 103 -2 9 34 26 107 51 61 21 115 39 120 39 6
0 39 -41 75 -91z m375 56 c60 -20 114 -40 118 -44 7 -6 -27 -57 -138 -207 -1
-2 -56 16 -123 38 -88 29 -120 44 -115 53 20 32 139 195 143 196 3 0 54 -16
115 -36z m393 -160 l-3 -65 -120 -40 c-66 -21 -121 -39 -122 -39 -2 0 -3 58
-3 129 l0 130 123 38 122 39 3 -63 c2 -35 2 -93 0 -129z m1000 152 l112 -38 0
-129 c0 -72 -3 -128 -7 -126 -5 3 -61 21 -125 41 l-118 37 0 130 c0 101 3 130
13 127 6 -3 63 -22 125 -42z m370 -152 l-3 -67 -118 -37 -118 -38 3 131 3 131
115 36 115 36 3 -63 c2 -35 2 -93 0 -129z m453 161 c57 -19 110 -37 117 -40
15 -5 11 -11 -85 -142 l-52 -72 -117 39 c-64 22 -119 42 -121 44 -5 5 139 206
147 206 4 0 53 -16 111 -35z m399 -94 l0 -129 -112 -38 c-62 -20 -119 -39
-125 -42 -10 -3 -13 26 -13 126 l0 131 123 40 c67 22 123 41 125 41 1 0 2 -58
2 -129z m135 90 l120 -40 3 -131 c1 -72 -1 -129 -5 -127 -4 3 -61 21 -125 41
l-118 37 0 129 c0 72 1 130 3 130 1 0 56 -18 122 -39z m-2188 -10 l101 -31 70
-97 c38 -54 69 -99 68 -100 -1 -1 -53 14 -115 34 l-114 37 -68 93 c-71 95 -78
109 -56 100 6 -2 58 -18 114 -36z m657 27 c-5 -7 -36 -51 -70 -98 l-62 -85
-113 -37 c-62 -21 -114 -36 -116 -35 -1 2 29 47 67 99 l70 96 103 35 c114 39
132 43 121 25z m-3564 -121 l0 -123 -71 -97 c-39 -53 -72 -97 -75 -97 -2 0 -4
53 -4 118 l0 119 73 101 c39 56 73 102 75 102 1 0 2 -55 2 -123z m631 6 l60
-82 -3 -122 -3 -121 -72 100 -73 100 0 123 c1 114 2 122 16 104 9 -11 42 -57
75 -102z m2270 -75 c5 -10 8 -71 7 -135 l-3 -118 -72 99 -73 100 0 125 0 126
66 -90 c36 -50 70 -98 75 -107z m617 -150 l-73 -100 -3 121 -3 122 73 100 73
100 3 -121 3 -121 -73 -101z m753 150 c5 -10 8 -71 7 -135 l-3 -118 -72 99
-73 100 0 125 0 126 66 -90 c36 -50 70 -98 75 -107z m429 -11 l0 -123 -75
-103 -75 -104 0 126 0 127 73 100 c39 54 73 100 75 100 1 0 2 -55 2 -123z
m-3657 -221 c-37 -52 -71 -95 -75 -95 -5 -1 -8 52 -8 117 l0 117 73 100 72
100 3 -122 3 -122 -68 -95z m692 229 l65 -90 0 -117 c0 -65 -2 -118 -5 -118
-3 0 -36 43 -75 95 l-70 95 0 122 c0 80 3 119 10 112 5 -5 39 -50 75 -99z
m678 -229 c-37 -52 -71 -95 -75 -95 -5 -1 -8 52 -8 117 l0 117 73 100 72 100
3 -122 3 -122 -68 -95z m2903 238 l64 -89 0 -125 0 -125 -70 95 -69 95 -1 124
c0 68 3 122 6 119 3 -3 34 -46 70 -94z m-4366 -227 c0 -118 -1 -128 -17 -123
-10 3 -65 21 -123 39 l-105 33 -3 131 -3 131 126 -41 125 -42 0 -128z m1103
-48 c-4 -4 -55 -22 -113 -40 -58 -17 -111 -34 -117 -36 -10 -4 -13 25 -13 124
l0 129 123 40 122 40 3 -124 c1 -69 -1 -129 -5 -133z m267 48 c0 -118 -1 -128
-17 -123 -10 3 -65 21 -123 39 l-105 33 -3 131 -3 131 126 -41 125 -42 0 -128z
m850 1 c0 -71 -4 -128 -8 -128 -4 0 -59 17 -122 38 l-115 39 -3 131 -3 130
126 -41 125 -42 0 -127z m253 -49 c-7 -6 -99 -37 -220 -74 l-23 -6 0 128 0
129 123 40 122 40 3 -124 c1 -69 -1 -129 -5 -133z m1117 49 c0 -71 -4 -128 -8
-128 -4 0 -59 17 -122 38 l-115 39 -3 131 -3 130 126 -41 125 -42 0 -127z
m-4303 47 c-64 -91 -129 -175 -135 -175 -4 0 -60 17 -124 38 l-117 39 76 105
76 105 123 -40 123 -41 -22 -31z m2591 1 l71 -99 -121 -40 c-139 -45 -117 -53
-212 78 l-65 90 122 41 c67 23 125 39 128 35 4 -3 38 -51 77 -105z m1371 0
l72 -100 -122 -39 c-140 -45 -119 -52 -212 78 l-65 90 122 41 c66 23 124 39
127 35 4 -3 39 -51 78 -105z m-3590 3 c40 -55 71 -102 70 -104 -5 -4 -233 -75
-241 -75 -10 0 -151 201 -145 206 8 8 208 72 227 73 9 1 48 -43 89 -100z m679
1 l-73 -100 -117 -39 c-134 -45 -132 -50 -36 78 l63 85 110 37 c61 21 113 38
117 38 5 1 -25 -44 -64 -99z m137 42 c22 -31 55 -78 74 -104 l33 -47 -73 -101
c-40 -55 -75 -100 -79 -100 -3 0 -39 45 -79 101 l-73 100 34 47 c18 26 51 73
73 104 22 32 42 57 45 57 3 0 23 -25 45 -57z m110 15 l100 -33 63 -85 c96
-128 98 -123 -36 -78 l-117 39 -73 101 c-47 65 -66 99 -55 95 11 -3 64 -21
118 -39z m2193 8 c62 -20 112 -38 112 -42 0 -8 -141 -203 -147 -203 -7 0 -237
72 -241 75 -7 6 143 205 154 205 6 0 61 -16 122 -35z m1146 -69 l-69 -96 -107
-35 c-59 -19 -112 -35 -118 -35 -5 0 21 43 58 95 l67 94 115 39 c63 22 117 38
119 36 1 -1 -28 -46 -65 -98z m171 0 l76 -105 -73 -100 c-40 -55 -76 -101 -80
-101 -7 0 -137 175 -144 195 -4 10 133 215 143 215 1 0 36 -47 78 -104z m104
53 c78 -25 82 -29 199 -196 l22 -32 -119 40 -120 40 -62 87 c-34 48 -67 93
-72 99 -10 14 4 10 152 -38z m-4800 -138 c39 -54 71 -101 71 -105 0 -3 -33
-51 -74 -107 l-74 -101 -73 98 c-39 54 -72 102 -73 108 -1 12 135 205 146 206
3 0 38 -44 77 -99z m2220 -4 c41 -57 68 -103 64 -110 -4 -7 -38 -54 -76 -105
l-69 -94 -74 101 c-41 56 -74 104 -74 107 0 12 144 204 151 202 4 -2 39 -47
78 -101z m1371 0 c42 -58 68 -103 63 -110 -4 -7 -38 -54 -76 -106 l-69 -93
-65 88 c-95 131 -94 110 -12 225 40 54 76 98 80 97 4 -2 39 -47 79 -101z
m-3762 -205 c38 -53 69 -98 68 -99 -1 -1 -53 14 -116 35 l-113 37 -67 90 c-37
50 -70 95 -73 102 -4 6 46 -6 111 -28 l119 -40 71 -97z m641 142 c64 -20 118
-38 120 -40 6 -6 -140 -204 -152 -204 -24 0 -238 72 -235 79 6 14 142 201 147
201 2 0 57 -16 120 -36z m452 -36 c29 -40 63 -87 75 -103 l23 -31 -123 -41
-124 -41 -77 105 c-42 58 -75 106 -73 107 10 5 225 74 235 75 6 1 35 -32 64
-71z m399 35 c63 -21 116 -38 118 -39 2 -1 -31 -49 -73 -107 l-76 -105 -124
41 -124 41 23 31 c12 16 46 63 75 103 29 39 55 72 59 72 3 0 58 -17 122 -37z
m520 1 l113 -36 -119 -39 -120 -39 -115 39 c-81 27 -109 41 -96 46 36 15 193
63 208 64 9 1 67 -15 129 -35z m694 24 c-4 -7 -37 -53 -74 -103 l-67 -90 -113
-37 c-63 -21 -115 -36 -116 -35 -1 1 29 45 67 97 l69 95 117 42 c65 23 119 42
121 42 2 1 0 -5 -4 -11z m155 -25 c64 -20 117 -38 119 -39 2 -1 -31 -49 -73
-107 l-76 -105 -123 41 -123 41 74 103 c41 57 77 103 80 103 3 0 58 -17 122
-37z m469 -62 c40 -55 72 -102 72 -105 0 -6 -216 -76 -235 -76 -12 0 -160 198
-154 205 5 4 221 73 234 74 6 1 43 -44 83 -98z m746 87 c-4 -7 -37 -53 -74
-103 l-67 -90 -113 -37 c-63 -21 -115 -36 -116 -35 -1 1 29 45 67 97 l69 95
117 42 c65 23 119 42 121 42 2 1 0 -5 -4 -11z m155 -25 c64 -20 117 -38 119
-39 2 -1 -31 -49 -73 -107 l-76 -105 -123 41 -123 41 74 103 c42 57 78 103 80
103 3 0 58 -17 122 -37z m469 -62 c40 -55 72 -102 72 -105 0 -6 -216 -76 -235
-76 -12 0 -160 198 -154 204 5 5 221 74 234 75 6 1 43 -44 83 -98z m379 62
c62 -21 113 -41 113 -45 0 -4 -32 -52 -72 -107 l-71 -99 -111 38 c-61 20 -117
39 -124 41 -12 4 130 209 145 209 4 0 58 -17 120 -37z m-4657 -69 l-70 -97
-115 -37 c-63 -21 -115 -36 -115 -33 0 2 30 47 68 99 l67 94 105 34 c58 19
111 35 118 35 6 1 -19 -42 -58 -95z m2988 61 l107 -35 73 -102 c41 -55 68 -99
60 -96 -7 3 -62 22 -123 42 l-110 37 -67 95 c-37 52 -63 94 -57 94 5 0 58 -16
117 -35z m-1195 -130 c37 -51 69 -99 72 -107 3 -9 -31 -24 -116 -51 -67 -21
-122 -37 -123 -35 -1 2 -35 48 -74 102 -40 55 -70 101 -68 103 3 4 227 81 236
82 3 0 35 -42 73 -94z m-1381 13 c30 -40 64 -87 75 -104 l22 -31 -74 -102
c-41 -55 -77 -101 -79 -101 -6 0 -146 196 -146 204 0 8 140 206 146 206 2 0
27 -33 56 -72z m867 -27 c39 -54 71 -102 71 -106 0 -9 -139 -205 -145 -205 -3
0 -39 46 -80 101 l-74 102 22 31 c49 70 128 176 131 176 2 0 36 -44 75 -99z
m80 58 l104 -34 67 -95 c38 -52 67 -96 65 -98 -2 -2 -54 13 -115 33 l-111 37
-52 71 c-80 109 -95 132 -77 125 8 -3 62 -20 119 -39z m1291 -59 c40 -55 70
-106 67 -114 -3 -7 -36 -55 -73 -105 -77 -106 -62 -108 -158 24 l-64 89 21 31
c49 69 128 175 131 175 2 0 36 -45 76 -100z m1370 0 c40 -55 70 -106 67 -114
-3 -7 -36 -55 -73 -105 -55 -76 -69 -90 -80 -79 -38 39 -141 194 -135 203 5 5
38 52 75 103 37 50 69 92 71 92 2 0 35 -45 75 -100z m849 -2 c39 -54 71 -100
71 -104 0 -8 -143 -204 -150 -204 -9 1 -143 192 -143 205 0 15 136 205 145
202 3 -1 38 -46 77 -99z m-5339 -67 l115 -38 -117 -37 -118 -37 -118 37 -117
37 110 38 c61 20 115 38 120 38 6 1 62 -16 125 -38z m524 1 l118 -37 -118 -39
-118 -39 -119 39 -118 39 108 36 c59 21 113 38 118 38 6 1 63 -16 129 -37z
m846 -1 l115 -38 -117 -37 -118 -37 -117 37 -118 37 110 38 c61 20 115 38 120
38 6 1 62 -16 125 -38z m1370 0 l115 -38 -117 -37 -117 -37 -118 37 -118 37
110 38 c61 20 115 38 120 38 6 1 62 -16 125 -38z m849 1 l114 -38 -119 -38
-119 -38 -119 38 -119 39 114 36 c63 21 119 37 124 38 6 1 62 -16 124 -37z
m515 2 c61 -20 113 -37 115 -39 1 -2 -49 -20 -112 -40 l-115 -36 -119 37 -118
37 110 38 c61 20 114 38 119 38 5 1 59 -15 120 -35z m855 -2 l114 -38 -119
-38 -119 -38 -119 38 -119 39 114 36 c63 21 119 37 124 38 6 1 62 -16 124 -37z
m-5208 -89 l119 -36 0 -129 c0 -70 -4 -128 -8 -128 -4 0 -59 17 -122 38 l-115
39 -3 126 c-1 70 0 127 4 127 4 0 60 -17 125 -37z m387 -90 l-3 -126 -115 -39
c-63 -21 -118 -38 -122 -38 -4 0 -8 58 -8 128 l0 129 113 36 c61 19 118 36
125 36 10 1 12 -28 10 -126z m142 89 l115 -39 3 -126 c2 -96 0 -127 -10 -127
-7 0 -63 17 -125 37 l-113 37 0 128 c0 70 4 128 8 128 4 0 59 -17 122 -38z
m380 -90 l0 -128 -119 -37 c-66 -20 -122 -37 -125 -37 -3 0 -6 57 -6 128 l0
127 113 37 c61 20 118 36 125 37 9 1 12 -31 12 -127z m463 91 l117 -36 0 -129
c0 -70 -4 -128 -8 -128 -4 0 -59 17 -122 38 l-115 39 -3 126 c-1 70 1 127 5
127 4 0 61 -16 126 -37z m385 -90 l-3 -126 -115 -39 c-63 -21 -118 -38 -122
-38 -4 0 -8 58 -8 128 l0 129 113 35 c61 20 118 37 125 37 10 1 12 -28 10
-126z m457 91 c60 -20 112 -38 114 -40 6 -5 -143 -204 -153 -204 -11 0 -228
70 -235 76 -6 6 142 204 153 204 6 0 60 -16 121 -36z m385 -92 l0 -128 -113
-37 c-62 -20 -118 -37 -125 -37 -10 0 -12 31 -10 127 l3 126 110 38 c61 21
116 38 123 38 9 1 12 -31 12 -127z m143 91 l117 -36 0 -129 c0 -70 -4 -128 -8
-128 -4 0 -59 17 -122 38 l-115 39 -3 126 c-1 70 1 127 5 127 4 0 61 -16 126
-37z m385 -90 l-3 -126 -115 -39 c-63 -21 -118 -38 -122 -38 -4 0 -8 58 -8
128 l0 129 113 35 c61 20 118 37 125 37 10 1 12 -28 10 -126z m474 86 l108
-34 0 -127 c0 -71 -3 -128 -6 -128 -3 0 -59 17 -125 37 l-119 37 0 129 c0 118
1 129 18 124 9 -2 65 -20 124 -38z m368 -87 l0 -128 -113 -37 c-62 -20 -118
-37 -125 -37 -10 0 -12 31 -10 127 l3 126 110 38 c61 21 116 38 123 38 9 1 12
-31 12 -127z m153 88 l107 -33 0 -129 c0 -70 -3 -128 -7 -128 -4 0 -58 17
-120 37 l-113 37 0 129 c0 99 3 128 13 125 6 -3 60 -20 120 -38z m375 -87 l-3
-126 -115 -39 c-63 -21 -118 -38 -122 -38 -4 0 -8 58 -8 128 l0 129 113 35
c61 20 118 37 125 37 10 1 12 -28 10 -126z m474 86 l108 -34 0 -129 c0 -117
-1 -128 -17 -123 -10 2 -66 19 -125 38 l-108 33 0 129 c0 118 1 129 18 124 9
-2 65 -20 124 -38z m368 -87 l0 -128 -113 -37 c-62 -20 -118 -37 -125 -37 -10
0 -12 31 -10 127 l3 126 110 38 c61 21 116 38 123 38 9 1 12 -31 12 -127z"/>
</g>
</svg>
