<?xml version="1.0" standalone="no"?>
<!DOCTYPE svg PUBLIC "-//W3C//DTD SVG 20010904//EN"
 "http://www.w3.org/TR/2001/REC-SVG-20010904/DTD/svg10.dtd">
<svg version="1.0" xmlns="http://www.w3.org/2000/svg"
 width="1400pt" height="1050pt" viewBox="0 0 1400 1050"
 preserveAspectRatio="xMidYMid meet">

<g transform="translate(0,1050) scale(0.1,-0.1)"
fill="#efefef" stroke="none">
<path d="M1120 10320 c0 -132 -4 -189 -14 -213 -8 -18 -162 -179 -352 -368
l-339 -336 -70 -7 c-38 -3 -132 -6 -207 -6 l-138 0 0 -35 0 -35 193 -2 192 -3
3 -477 c2 -450 1 -478 -15 -479 -10 0 -98 -1 -196 -1 l-177 -1 0 -39 0 -38
179 0 c98 0 192 -3 209 -6 24 -5 111 -86 368 -343 191 -190 343 -350 350 -368
18 -41 21 -944 3 -990 -12 -33 -650 -677 -694 -701 -24 -12 -70 -17 -222 -20
l-193 -4 0 -34 0 -34 195 0 195 0 0 -480 0 -480 -195 0 -195 0 0 -40 0 -40
189 0 c105 0 202 -5 217 -10 40 -15 681 -661 699 -704 13 -29 15 -112 15 -501
0 -407 -2 -470 -16 -498 -19 -37 -646 -672 -685 -692 -18 -10 -86 -16 -223
-21 l-196 -7 0 -34 0 -33 195 0 195 0 0 -480 0 -480 -195 0 -195 0 0 -40 0
-40 198 0 199 0 39 -29 c21 -16 177 -168 346 -337 205 -206 312 -321 323 -346
12 -30 15 -83 15 -263 l0 -225 45 0 45 0 0 230 0 230 470 0 470 0 0 -230 0
-230 45 0 45 0 0 225 c0 181 3 233 15 263 17 40 639 673 687 698 22 12 112 14
513 14 l485 0 48 -42 c26 -23 183 -178 349 -344 246 -246 303 -309 312 -340 6
-22 11 -132 11 -256 l0 -218 40 0 40 0 0 230 0 230 475 0 475 0 0 -230 0 -230
45 0 45 0 0 230 c0 192 3 236 16 263 19 38 647 672 686 693 22 12 109 14 502
14 261 0 485 -4 498 -9 23 -9 668 -647 696 -689 12 -18 15 -67 16 -262 l1
-240 48 0 47 0 0 230 0 230 470 0 470 0 0 -230 0 -230 45 0 45 0 0 231 c0 184
3 237 15 263 8 17 166 182 350 366 l335 335 505 0 505 0 350 -350 350 -351 0
-247 0 -247 45 0 45 0 0 230 0 230 475 0 475 0 0 -230 0 -230 45 0 45 0 0 247
0 247 350 351 350 350 220 3 220 3 0 40 0 39 -205 0 -205 0 0 480 0 480 205 0
205 0 0 34 0 33 -212 8 c-117 4 -219 10 -226 14 -14 8 -609 600 -668 664 l-34
37 0 502 0 502 338 339 c185 186 349 345 364 353 21 11 74 14 233 14 l205 0 0
40 0 40 -205 0 -205 0 0 480 0 480 205 0 205 0 0 34 0 34 -207 4 c-124 2 -216
8 -227 14 -25 15 -685 673 -697 695 -5 10 -9 225 -9 515 l0 498 338 339 c188
190 351 345 369 353 24 10 84 14 233 14 l200 0 0 39 0 38 -167 1 c-93 0 -185
1 -205 1 l-38 1 0 480 0 480 205 0 205 0 0 35 0 35 -152 0 c-84 0 -184 3 -221
7 l-68 6 -335 330 c-184 182 -342 343 -350 358 -11 22 -14 72 -14 219 l0 190
-45 0 -45 0 0 -185 0 -185 -475 0 -475 0 0 185 0 185 -45 0 -45 0 0 -190 c0
-146 -3 -197 -14 -218 -8 -15 -162 -174 -343 -354 -225 -224 -337 -329 -358
-335 -48 -13 -966 -10 -989 4 -41 23 -679 669 -692 700 -10 24 -14 82 -14 213
l0 180 -45 0 -45 0 0 -185 0 -185 -475 0 -475 0 0 185 0 185 -45 0 -45 0 0
-202 0 -202 -347 -347 -348 -347 -220 -8 c-239 -7 -769 2 -791 14 -30 17 -687
678 -695 700 -5 13 -9 106 -9 208 l0 184 -45 0 -45 0 0 -185 0 -185 -470 0
-470 0 0 185 0 185 -45 0 -45 0 0 -167 c0 -93 -5 -186 -10 -208 -8 -34 -55
-85 -352 -381 l-343 -341 -160 -7 c-204 -8 -485 -8 -690 0 l-160 6 -341 340
c-271 270 -344 348 -353 378 -6 21 -11 110 -11 209 l0 171 -45 0 -45 0 0 -185
0 -185 -470 0 -470 0 0 185 0 185 -45 0 -45 0 0 -180z m1068 -294 c33 -18 675
-662 691 -693 8 -15 11 -170 11 -498 0 -394 -2 -481 -14 -503 -18 -33 -662
-675 -693 -691 -30 -15 -976 -15 -1006 0 -31 16 -675 658 -693 691 -21 40 -21
966 0 1006 16 30 660 674 691 691 14 7 175 10 503 11 401 0 488 -2 510 -14z
m3878 -326 c184 -184 342 -347 350 -362 21 -39 21 -953 0 -1001 -18 -41 -662
-683 -699 -697 -18 -6 -197 -10 -503 -10 -393 0 -480 2 -502 14 -15 8 -178
166 -362 350 l-335 336 -3 501 -3 501 88 90 c200 206 604 603 620 610 10 4
242 6 515 5 l498 -2 336 -335z m3202 326 c42 -22 680 -667 692 -699 14 -39 14
-946 -1 -984 -15 -39 -665 -690 -703 -703 -18 -6 -205 -10 -503 -10 -392 0
-479 2 -501 14 -15 8 -178 166 -362 350 l-335 336 -3 500 -3 500 43 47 c91
101 643 645 662 653 12 5 238 9 504 9 401 1 488 -1 510 -13z m3540 0 c49 -26
670 -658 687 -698 22 -54 23 -930 0 -983 -17 -42 -662 -690 -701 -705 -39 -15
-962 -12 -996 3 -25 11 -248 228 -580 565 l-128 129 0 496 0 496 49 58 c54 64
577 584 629 626 l34 27 489 0 c406 0 495 -2 517 -14z m-8878 -1191 l0 -475
-480 0 -480 0 0 475 0 475 480 0 480 0 0 -475z m3530 0 l0 -475 -475 0 -475 0
0 475 0 475 475 0 475 0 0 -475z m3540 0 l0 -475 -475 0 -475 0 0 475 0 475
475 0 475 0 0 -475z m-7052 -569 c15 -8 177 -165 360 -349 286 -286 335 -339
342 -373 11 -43 13 -886 4 -949 -6 -36 -37 -71 -350 -385 l-343 -345 -98 -6
c-131 -9 -625 -11 -788 -3 l-130 7 -338 336 c-186 185 -345 348 -353 363 -20
39 -21 953 0 1001 15 35 668 694 701 708 11 4 233 8 493 8 393 1 478 -1 500
-13z m3540 0 c15 -8 178 -167 363 -353 l337 -338 4 -160 c3 -88 4 -311 3 -495
-1 -285 -4 -339 -18 -365 -19 -36 -651 -668 -686 -685 -30 -15 -577 -26 -826
-15 l-180 7 -337 336 c-186 185 -344 350 -353 368 -13 27 -15 102 -15 506 0
458 1 474 20 506 28 46 662 679 691 691 14 6 223 10 497 10 392 1 478 -1 500
-13z m3529 4 c32 -12 677 -650 699 -692 12 -22 14 -109 14 -507 0 -299 -4
-490 -10 -506 -11 -30 -651 -675 -689 -695 -30 -16 -587 -26 -836 -15 l-170 7
-339 336 c-188 188 -344 351 -352 369 -11 26 -14 121 -14 491 0 253 3 475 7
493 5 28 70 98 337 368 182 183 345 339 361 347 38 17 947 20 992 4z m-8867
-1205 l0 -475 -470 0 -470 0 0 475 0 475 470 0 470 0 0 -475z m3540 5 l0 -470
-470 0 -470 0 0 470 0 470 470 0 470 0 0 -470z m3540 0 l0 -470 -470 0 -470 0
0 470 0 470 470 0 470 0 0 -470z m3540 0 l0 -470 -475 0 -475 0 0 470 0 470
475 0 475 0 0 -470z m-10492 -662 c217 -212 597 -599 604 -615 3 -10 7 -233 7
-496 1 -395 -1 -483 -13 -505 -8 -15 -164 -176 -348 -358 -271 -270 -339 -332
-367 -338 -56 -10 -933 -7 -971 4 -27 8 -114 89 -363 338 -181 180 -335 339
-343 354 -12 22 -14 108 -13 505 0 263 4 486 8 497 9 24 670 686 696 696 11 5
242 9 514 9 l494 1 95 -92z m3799 -261 l348 -347 3 -485 c2 -423 1 -490 -13
-519 -9 -18 -165 -181 -348 -363 -270 -268 -338 -331 -366 -337 -56 -10 -932
-7 -971 4 -27 8 -114 89 -363 338 -181 180 -335 339 -343 354 -12 22 -14 110
-14 512 l0 484 28 34 c33 40 568 576 635 636 l47 43 505 -3 505 -3 347 -348z
m3529 13 c186 -185 342 -349 350 -367 11 -26 14 -121 14 -497 0 -292 -4 -475
-10 -492 -6 -14 -163 -178 -349 -364 -269 -268 -344 -338 -371 -343 -53 -11
-931 -8 -970 3 -27 7 -113 88 -375 350 l-340 340 -3 488 c-1 268 0 498 3 512
7 26 540 570 648 661 l59 50 504 -3 504 -3 336 -335z m3540 0 c186 -185 342
-349 350 -367 20 -47 21 -938 0 -986 -17 -43 -660 -686 -703 -703 -48 -21
-949 -20 -996 0 -18 8 -182 164 -369 353 l-338 339 0 491 c0 330 4 500 11 516
12 26 652 668 684 686 14 7 170 10 522 8 l503 -2 336 -335z m-9218 -862 l-3
-473 -475 0 -475 0 -3 473 -2 472 480 0 480 0 -2 -472z m3532 -3 l0 -475 -475
0 -475 0 0 475 0 475 475 0 475 0 0 -475z m3540 0 l0 -475 -475 0 -475 0 0
475 0 475 475 0 475 0 0 -475z m-7058 -564 c24 -9 668 -648 697 -691 14 -21
16 -78 19 -460 2 -239 0 -464 -3 -500 l-7 -65 -330 -331 c-182 -182 -343 -338
-358 -347 -25 -15 -80 -17 -510 -17 -398 0 -486 2 -508 14 -49 26 -670 658
-687 698 -22 54 -23 940 0 993 13 34 559 592 662 678 l44 37 479 0 c263 0 489
-4 502 -9z m3546 -5 c15 -8 179 -167 365 -353 l337 -339 2 -219 c1 -121 0
-346 -1 -500 -3 -233 -6 -284 -19 -305 -27 -44 -660 -670 -687 -680 -38 -14
-969 -13 -998 1 -31 16 -675 658 -693 691 -22 42 -21 952 1 1006 17 39 623
657 680 693 28 18 57 19 508 19 395 0 483 -2 505 -14z m3540 0 c33 -18 675
-662 691 -693 8 -15 11 -174 11 -513 l0 -491 -67 -72 c-86 -93 -465 -471 -565
-565 l-77 -72 -498 0 -497 0 -339 338 c-189 187 -345 351 -353 369 -11 26 -14
122 -14 502 0 306 4 480 11 498 11 30 606 635 673 684 l39 29 479 0 c397 0
484 -2 506 -14z m-8878 -1201 l0 -475 -470 0 -470 0 0 475 0 475 470 0 470 0
0 -475z m3540 5 l0 -470 -475 0 -475 0 0 470 0 470 475 0 475 0 0 -470z m3540
-5 l0 -475 -470 0 -470 0 0 475 0 475 470 0 470 0 0 -475z m3540 0 l0 -475
-472 2 -473 3 -3 473 -2 472 475 0 475 0 0 -475z m-10573 -580 c38 -25 652
-643 673 -677 19 -32 20 -51 20 -512 l0 -480 -22 -33 c-13 -18 -169 -179 -348
-357 -295 -293 -329 -324 -365 -329 -72 -12 -917 -8 -960 4 -33 9 -93 64 -360
330 -176 175 -330 334 -342 352 l-23 33 0 476 c0 272 4 487 9 501 8 20 590
613 670 682 20 17 43 21 170 26 80 4 306 5 501 2 289 -3 359 -7 377 -18z
m3528 8 c30 -17 665 -654 686 -688 18 -28 19 -59 19 -491 0 -254 -3 -476 -7
-494 -9 -50 -665 -704 -720 -719 -41 -12 -905 -16 -964 -5 -28 6 -96 68 -367
338 -184 182 -340 343 -348 358 -11 22 -14 110 -14 502 0 294 4 485 10 501 10
27 500 528 624 639 68 60 71 61 140 67 123 12 919 5 941 -8z m3457 9 l88 -7
336 -335 c184 -184 342 -347 350 -362 12 -22 14 -108 14 -500 0 -443 -1 -475
-19 -503 -10 -17 -165 -178 -345 -358 -261 -260 -335 -328 -364 -337 -48 -13
-924 -13 -972 0 -27 7 -113 88 -375 350 l-340 340 -3 488 c-1 268 0 498 3 512
6 24 638 669 680 693 11 6 52 14 90 18 97 8 751 9 857 1z m3623 -14 c44 -25
682 -668 695 -701 6 -18 10 -192 10 -488 0 -372 -3 -466 -14 -492 -18 -41
-672 -693 -709 -707 -37 -13 -928 -14 -977 0 -27 7 -113 88 -377 353 l-343
343 0 504 0 504 348 348 347 347 75 4 c41 2 264 3 495 3 368 -2 424 -4 450
-18z m-8877 -1185 l-3 -478 -475 0 -475 0 -3 478 -2 477 480 0 480 0 -2 -477z
m3532 -3 l0 -480 -475 0 -475 0 0 480 0 480 475 0 475 0 0 -480z m3540 0 l0
-480 -475 0 -475 0 0 480 0 480 475 0 475 0 0 -480z"/>
</g>
</svg>
