<?xml version="1.0" standalone="no"?>
<!DOCTYPE svg PUBLIC "-//W3C//DTD SVG 20010904//EN"
 "http://www.w3.org/TR/2001/REC-SVG-20010904/DTD/svg10.dtd">
<svg version="1.0" xmlns="http://www.w3.org/2000/svg"
 width="352.000000pt" height="406.000000pt" viewBox="0 0 352.000000 406.000000"
 preserveAspectRatio="xMidYMid meet">

<g transform="translate(0.000000,406.000000) scale(0.100000,-0.100000)"
fill="#000000" stroke="none">
<path d="M1770 3963 c-110 -18 -280 -84 -280 -108 0 -14 77 -184 91 -202 7 -8
29 -2 83 22 80 38 196 57 286 49 135 -13 268 -93 349 -211 l22 -33 135 0 c74
0 134 3 134 6 0 9 -82 158 -90 164 -4 3 -9 11 -11 17 -5 17 -130 143 -141 143
-4 0 -16 8 -26 18 -45 44 -206 113 -306 131 -58 11 -195 13 -246 4z"/>
<path d="M994 3822 c-130 -95 -201 -277 -174 -446 12 -75 24 -107 60 -156 45
-63 89 -89 255 -154 50 -19 133 -51 185 -72 149 -58 210 -89 274 -141 79 -64
119 -135 120 -213 0 -32 5 -56 10 -53 4 3 25 40 45 82 35 75 36 78 36 201 0
147 -14 188 -92 271 -72 77 -73 77 -436 214 -71 27 -148 61 -171 75 -93 59
-153 171 -140 259 8 54 35 112 66 141 32 30 7 24 -38 -8z"/>
<path d="M1800 3210 c0 -16 111 -224 124 -232 6 -4 95 -8 198 -8 107 0 189 -4
193 -10 3 -5 -24 -41 -61 -80 -49 -52 -86 -80 -140 -106 -40 -20 -72 -40 -70
-43 1 -3 22 -46 46 -96 24 -49 48 -96 53 -102 7 -10 29 -3 90 30 208 109 385
372 390 577 l2 75 -412 3 c-275 1 -413 -1 -413 -8z"/>
<path d="M857 2899 c-36 -21 -60 -89 -59 -168 1 -41 6 -77 11 -80 5 -4 13 -19
16 -34 l8 -28 18 38 c23 49 35 62 91 102 57 41 76 79 59 119 -21 51 -98 78
-144 51z"/>
<path d="M1560 1819 c-375 -46 -782 -239 -1160 -547 -141 -116 -330 -306 -330
-332 0 -13 45 -66 123 -143 371 -369 820 -627 1254 -718 142 -31 438 -33 577
-6 189 38 415 119 586 210 167 89 413 259 550 381 73 65 270 266 270 276 0 5
-53 63 -117 128 -380 384 -827 643 -1264 732 -119 25 -368 35 -489 19z m441
-369 c249 -83 412 -256 434 -460 8 -73 -6 -168 -34 -233 -65 -151 -244 -287
-451 -344 -90 -25 -318 -25 -410 0 -157 42 -307 138 -388 248 -74 100 -95 159
-95 274 0 85 3 109 25 162 82 200 292 350 543 387 17 2 87 3 156 1 109 -3 139
-8 220 -35z"/>
<path d="M1647 1156 c-133 -39 -217 -156 -188 -262 15 -57 72 -118 139 -151
50 -24 68 -28 147 -28 69 1 100 5 136 21 56 26 115 77 136 118 20 39 20 133 0
173 -21 40 -81 91 -135 115 -57 25 -172 32 -235 14z"/>
</g>
</svg>
