<?xml version="1.0" standalone="no"?>
<!DOCTYPE svg PUBLIC "-//W3C//DTD SVG 20010904//EN"
 "http://www.w3.org/TR/2001/REC-SVG-20010904/DTD/svg10.dtd">
<svg version="1.0" xmlns="http://www.w3.org/2000/svg"
 width="1824.000000pt" height="1092.000000pt" viewBox="0 0 1824.000000 1092.000000"
 preserveAspectRatio="xMidYMid meet">

<g transform="translate(0.000000,1092.000000) scale(0.100000,-0.100000)"
fill="#000000" stroke="none">
<path d="M9803 10849 c-18 -5 -35 -14 -38 -19 -3 -6 -17 -7 -30 -4 -13 3 -32
1 -43 -5 -10 -6 -34 -13 -53 -16 -19 -3 -41 -8 -49 -10 -8 -2 -37 -7 -65 -11
-27 -3 -58 -10 -67 -15 -9 -5 -33 -9 -53 -9 -20 0 -48 -6 -63 -14 -15 -7 -49
-16 -76 -20 -27 -3 -62 -13 -79 -21 -16 -8 -45 -17 -66 -21 -20 -4 -49 -14
-66 -22 -16 -8 -43 -17 -59 -19 -16 -1 -45 -12 -63 -23 -19 -11 -44 -20 -56
-20 -13 0 -39 -8 -58 -18 -20 -10 -61 -26 -92 -36 -32 -10 -59 -22 -63 -27 -3
-5 -16 -9 -30 -9 -13 0 -41 -9 -61 -20 -21 -11 -45 -20 -53 -20 -18 0 -77 -21
-107 -38 -12 -7 -31 -12 -43 -12 -12 0 -48 -13 -82 -30 -33 -16 -66 -30 -74
-30 -7 0 -37 -11 -66 -24 -29 -14 -65 -27 -80 -30 -15 -4 -33 -12 -40 -19 -7
-8 -28 -17 -47 -20 -19 -4 -58 -18 -87 -32 -29 -14 -59 -25 -67 -25 -8 0 -28
-7 -43 -15 -16 -8 -38 -15 -49 -15 -11 0 -47 -12 -80 -26 -52 -22 -83 -33
-145 -48 -35 -9 -73 -28 -103 -49 -18 -13 -49 -31 -69 -41 -76 -34 -107 -100
-109 -231 -1 -53 -6 -101 -13 -109 -15 -19 -249 -28 -696 -27 -356 1 -695 11
-695 21 0 6 -91 10 -104 4 -33 -15 -51 -14 -51 2 0 12 -7 15 -25 12 -13 -3
-22 -1 -19 3 6 10 -60 4 -78 -7 -7 -4 -8 -3 -4 4 5 9 0 9 -20 2 -19 -7 -30 -7
-40 1 -8 6 -20 9 -28 6 -8 -3 -16 -1 -18 5 -5 13 -42 19 -115 20 -29 0 -53 3
-53 7 0 3 -28 7 -62 8 -59 2 -81 4 -182 17 -22 3 -45 1 -51 -4 -9 -7 -16 -5
-25 5 -7 8 -18 15 -24 15 -6 0 -3 -5 7 -11 9 -6 15 -14 12 -20 -4 -5 -1 -9 5
-9 12 0 40 -24 40 -34 0 -13 -136 6 -150 21 -13 14 -13 15 3 6 10 -5 31 -8 46
-5 26 4 27 6 17 28 -11 25 -30 31 -41 14 -9 -15 -25 -12 -25 5 0 8 -9 15 -20
15 -21 0 -28 -24 -10 -35 8 -5 8 -11 1 -19 -6 -7 -8 -16 -4 -19 3 -4 -15 -4
-40 -1 -32 5 -47 3 -47 -4 0 -6 -7 -9 -15 -5 -17 6 -14 29 3 26 6 -2 9 6 7 17
-2 11 0 20 6 20 5 0 9 -5 9 -12 0 -9 3 -9 11 -1 6 6 18 9 26 6 12 -5 12 -7 1
-14 -9 -6 -6 -8 10 -6 26 2 29 12 6 21 -8 3 -13 10 -10 14 3 5 -7 8 -22 7 -15
-1 -37 -3 -48 -3 -12 -1 -22 -8 -21 -14 1 -34 -5 -46 -25 -52 -13 -3 -27 0
-33 6 -7 8 -6 9 3 4 7 -5 12 -1 12 9 0 9 4 13 10 10 6 -3 10 -1 10 5 0 6 5 8
12 4 8 -5 9 -2 4 11 -4 11 -2 22 6 27 9 5 5 8 -12 8 -28 0 -55 -33 -44 -53 4
-7 4 -9 0 -5 -5 4 -16 -1 -27 -10 -20 -20 -99 -18 -99 1 0 6 -6 3 -13 -8 -9
-11 -16 -14 -20 -8 -4 7 -20 8 -40 3 -23 -5 -40 -3 -52 6 -13 10 -22 11 -31 3
-9 -7 -15 -5 -23 8 -9 15 -12 16 -20 4 -7 -10 -23 -13 -64 -8 -39 4 -61 1 -75
-9 -13 -9 -23 -11 -27 -4 -3 5 -3 10 2 11 4 0 -3 4 -15 10 -27 10 -42 4 -42
-17 0 -8 -5 -12 -10 -9 -6 4 -8 10 -5 15 8 12 -17 18 -41 9 -11 -4 -26 -4 -32
0 -7 4 -28 6 -46 5 -21 -2 -39 3 -46 11 -17 21 -54 20 -46 -1 3 -8 2 -12 -4
-9 -6 3 -10 12 -10 20 0 16 -73 11 -78 -5 -7 -19 -20 -10 -15 10 3 11 1 20 -5
20 -5 0 -12 -9 -15 -20 -3 -11 -11 -20 -19 -19 -10 0 -10 2 0 6 15 6 16 33 2
33 -6 0 -13 -7 -16 -15 -8 -20 -31 -19 -42 1 -6 10 -12 13 -16 6 -3 -5 -16 -8
-29 -5 -16 3 -18 2 -8 -5 9 -7 10 -12 2 -16 -6 -4 -9 -11 -6 -16 12 -20 -14
-18 -31 2 -11 12 -14 19 -8 15 6 -3 11 0 11 8 0 11 -5 12 -21 3 -12 -6 -22
-11 -23 -10 -10 7 -21 -1 -26 -18 -3 -11 -10 -20 -17 -20 -6 0 -9 4 -5 9 9 15
-36 42 -50 31 -7 -5 -15 -6 -19 -2 -4 4 -6 0 -4 -8 2 -11 -6 -15 -30 -14 -17
0 -32 -4 -32 -8 0 -4 11 -8 23 -8 13 0 24 -6 24 -14 0 -8 -8 -11 -20 -8 -14 3
-18 1 -13 -6 4 -7 3 -12 -2 -12 -5 0 -13 10 -16 23 -6 21 -7 21 -20 4 -10 -13
-21 -16 -40 -11 -22 5 -26 3 -26 -15 0 -12 -5 -21 -11 -21 -5 0 -7 5 -4 10 8
13 2 13 -30 -2 -14 -6 -25 -18 -25 -27 0 -11 -3 -12 -8 -4 -13 20 -36 18 -70
-5 -17 -13 -32 -19 -32 -13 0 5 9 13 20 16 11 4 17 11 14 17 -4 7 -2 8 4 4 7
-4 12 -2 12 3 0 14 -6 14 -33 -1 -12 -7 -29 -13 -37 -14 -22 -4 -39 -32 -32
-57 3 -13 1 -18 -4 -14 -5 5 -9 14 -9 20 0 7 -12 11 -30 9 -38 -4 -55 -20 -35
-32 11 -8 7 -10 -16 -8 -17 1 -47 -8 -70 -22 -50 -30 -174 -158 -174 -180 0
-10 -7 -23 -15 -30 -8 -7 -15 -23 -15 -35 0 -13 -6 -36 -14 -52 -8 -15 -22
-68 -31 -118 -9 -49 -23 -95 -31 -101 -8 -6 -35 -14 -62 -18 -40 -6 -49 -3
-64 14 -22 27 -28 26 -86 -13 -42 -29 -62 -35 -128 -40 -43 -4 -92 -12 -108
-17 -17 -6 -85 -25 -151 -44 -66 -19 -154 -46 -195 -61 -41 -15 -94 -31 -116
-35 -23 -5 -60 -19 -83 -31 -23 -12 -52 -19 -66 -17 -14 3 -26 0 -29 -8 -2 -6
-20 -15 -38 -19 -18 -4 -58 -18 -88 -31 -30 -13 -74 -28 -97 -34 -24 -6 -43
-15 -43 -20 0 -6 -8 -10 -18 -10 -23 0 -144 -40 -156 -51 -6 -5 -19 -9 -30 -9
-12 0 -43 -11 -71 -24 -198 -93 -254 -116 -283 -116 -13 0 -35 -6 -50 -14 -15
-7 -51 -19 -80 -26 -28 -6 -54 -16 -57 -21 -7 -11 -59 -34 -110 -49 -22 -6
-71 -26 -110 -45 -38 -19 -79 -37 -90 -41 -17 -6 -17 -8 -4 -11 25 -6 11 -40
-19 -49 l-27 -7 25 -7 c21 -6 23 -8 8 -15 -10 -4 -15 -11 -12 -16 3 -5 -4 -9
-15 -9 -19 0 -21 -5 -18 -63 2 -35 6 -68 10 -74 4 -6 5 -18 2 -25 -3 -8 -1
-36 5 -62 6 -26 7 -53 3 -59 -11 -18 -12 -37 -2 -37 5 0 9 -14 9 -31 0 -17 4
-28 10 -24 6 3 10 1 10 -4 0 -6 -5 -11 -10 -11 -11 0 -3 -47 10 -65 4 -5 4
-19 -1 -30 -11 -29 -11 -57 1 -50 5 3 10 -3 10 -14 0 -12 -5 -21 -10 -21 -7 0
-7 -6 -2 -17 5 -10 9 -50 9 -90 0 -40 5 -78 11 -86 8 -9 8 -17 1 -24 -11 -11
-15 -85 -5 -101 3 -6 0 -12 -6 -15 -10 -3 -10 -7 -1 -18 7 -9 10 -42 8 -92 -2
-43 1 -77 6 -77 6 0 6 -7 0 -17 -10 -20 -7 -245 3 -262 4 -6 0 -11 -8 -11 -18
0 -18 0 -7 -57 5 -23 5 -41 1 -38 -4 2 -5 -19 -2 -48 2 -29 4 -114 4 -189 -1
-76 2 -138 6 -138 7 0 7 -42 1 -127 -2 -22 2 -47 8 -55 7 -8 8 -19 3 -27 -4
-8 -6 -20 -4 -26 3 -7 7 -34 9 -61 4 -55 13 -99 24 -129 25 -63 42 -95 49 -95
5 0 17 -17 27 -37 9 -21 44 -60 77 -88 75 -63 181 -143 190 -144 4 -1 22 -15
40 -32 29 -28 187 -112 213 -114 6 0 9 -9 7 -19 -2 -12 1 -15 8 -11 9 5 8 0
-1 -16 -13 -25 -13 -27 3 -46 7 -9 7 -13 -2 -13 -9 0 -10 -21 -6 -82 3 -46 5
-120 6 -166 0 -49 4 -81 9 -77 5 3 12 1 16 -5 3 -5 1 -10 -6 -10 -6 0 -9 -8
-6 -20 3 -11 1 -23 -4 -26 -5 -3 -9 -22 -9 -43 0 -31 4 -40 22 -44 17 -5 19
-9 10 -20 -7 -8 -9 -17 -5 -20 3 -4 1 -7 -6 -7 -8 0 -7 -9 4 -30 9 -17 12 -30
8 -30 -4 0 -2 -5 5 -12 8 -8 6 -18 -9 -40 -11 -15 -16 -28 -10 -28 6 0 11 -13
11 -30 0 -17 -5 -30 -12 -30 -9 0 -8 -4 2 -10 8 -5 10 -10 3 -10 -12 0 -12
-24 0 -36 3 -4 2 -15 -4 -26 -5 -10 -7 -23 -4 -29 4 -5 9 -22 11 -37 11 -76
12 -98 2 -110 -8 -9 -7 -11 6 -6 15 6 22 -11 17 -40 -1 -5 4 -13 11 -17 9 -6
7 -9 -7 -9 -23 0 -30 -31 -14 -62 6 -10 6 -18 1 -18 -6 0 -12 -12 -15 -26 -3
-17 -1 -24 8 -21 6 3 12 -1 12 -9 0 -8 -4 -14 -9 -14 -4 0 -8 -4 -8 -10 0 -5
6 -7 13 -5 8 4 12 -8 12 -39 0 -24 -2 -43 -5 -41 -8 5 -4 -50 5 -65 6 -9 4
-11 -6 -6 -8 4 -3 -3 11 -15 17 -15 19 -20 8 -16 -13 5 -18 1 -18 -14 0 -11 5
-17 10 -14 6 4 22 9 37 11 l26 5 -18 -27 c-9 -14 -12 -23 -6 -20 6 4 11 0 11
-9 0 -9 -4 -14 -8 -11 -4 2 -14 1 -22 -4 -11 -7 -11 -12 -2 -22 8 -11 8 -18 1
-25 -8 -8 -6 -11 6 -10 10 1 19 -6 21 -16 2 -15 0 -16 -12 -6 -16 13 -15 15
-18 -31 -1 -19 3 -38 7 -41 5 -4 4 -15 -1 -26 -6 -11 -7 -25 -2 -33 5 -8 6
-18 4 -22 -3 -4 3 -5 13 -1 10 3 15 3 11 -2 -4 -4 3 -16 15 -26 13 -11 17 -18
9 -19 -7 0 -11 -4 -7 -9 3 -5 1 -13 -5 -16 -6 -4 -10 -3 -9 2 4 21 -2 33 -16
33 -8 0 -15 -4 -15 -10 0 -5 4 -10 10 -10 5 0 7 -7 4 -15 -6 -14 6 -20 29 -16
5 1 7 -6 5 -16 -2 -10 -9 -17 -15 -16 -6 1 -14 -4 -17 -12 -4 -11 3 -13 30
-10 19 3 34 0 34 -5 0 -6 -3 -10 -7 -11 -25 -2 -46 -8 -51 -15 -4 -4 1 -4 12
0 14 5 17 3 11 -11 -4 -10 -8 -22 -9 -28 -1 -5 -5 -16 -10 -23 -5 -8 -2 -20 7
-30 8 -9 12 -23 9 -31 -2 -8 -1 -11 4 -8 5 3 10 -13 12 -35 2 -25 -1 -37 -8
-33 -5 3 -10 1 -10 -5 0 -7 9 -14 19 -17 16 -4 18 -10 10 -36 -5 -17 -8 -31
-6 -32 1 0 15 -7 31 -13 16 -7 26 -15 23 -19 -4 -3 -2 -13 3 -23 6 -12 5 -23
-4 -35 -18 -25 -6 -70 20 -70 12 0 20 -8 22 -23 4 -24 -9 -28 -39 -12 -25 14
-44 3 -28 -16 6 -7 15 -11 20 -9 10 7 29 -27 29 -51 0 -13 -3 -14 -14 -5 -19
16 -31 -3 -17 -26 6 -10 11 -13 11 -6 0 6 6 10 14 9 17 -2 47 -32 40 -39 -3
-3 0 -15 6 -27 10 -18 8 -24 -7 -35 -17 -13 -17 -14 0 -33 17 -18 17 -20 0
-33 -16 -12 -17 -12 -6 2 14 17 8 29 -13 29 -16 0 0 -54 25 -85 10 -13 10 -15
1 -8 -14 13 -39 19 -27 6 4 -3 1 -13 -6 -22 -10 -14 -10 -14 4 -4 13 11 19 9
34 -7 10 -11 22 -17 28 -13 6 4 7 1 1 -8 -9 -14 -10 -19 -12 -52 -1 -11 -7
-15 -14 -11 -7 5 -8 3 -3 -6 6 -10 11 -10 20 3 7 10 20 17 29 17 15 0 15 -2 1
-23 -8 -13 -12 -27 -8 -31 4 -4 0 -4 -9 -1 -25 10 -30 -11 -5 -22 14 -7 29
-30 41 -67 18 -52 26 -61 50 -57 5 1 4 -4 -3 -12 -6 -8 -8 -17 -4 -19 4 -3 2
-3 -6 -1 -9 2 -12 -3 -8 -16 3 -11 -1 -26 -9 -32 -12 -10 -12 -15 2 -30 10
-11 14 -19 9 -19 -4 0 -3 -6 3 -13 6 -7 7 -18 3 -26 -6 -9 -11 -10 -15 -2 -4
6 -4 16 -1 21 3 6 -1 10 -9 10 -9 0 -16 4 -16 10 0 5 8 7 18 4 16 -5 16 -5 -1
6 -9 6 -22 8 -27 5 -14 -9 36 -72 71 -89 32 -16 34 -14 19 15 -7 13 -7 19 -1
19 14 0 23 -37 19 -80 -3 -31 0 -35 22 -35 15 0 26 -7 28 -18 4 -20 -9 -22
-26 -5 -7 7 -12 9 -12 4 0 -4 6 -14 14 -22 8 -8 12 -23 9 -36 -5 -16 -3 -20 9
-15 24 8 30 -4 10 -19 -9 -7 -14 -16 -10 -20 4 -4 16 -1 25 7 16 12 17 12 6
-1 -9 -12 -7 -20 12 -38 14 -14 26 -19 30 -12 3 5 1 10 -6 10 -7 0 -10 3 -6 6
3 3 14 1 24 -5 10 -6 13 -11 7 -11 -7 0 -10 -13 -8 -32 1 -18 3 -36 3 -41 1
-4 4 -6 8 -6 23 4 35 -4 45 -28 6 -16 11 -31 10 -35 -1 -5 2 -8 8 -8 5 0 10
-7 10 -16 0 -9 5 -12 13 -8 8 5 8 2 -2 -9 -12 -15 -11 -17 3 -17 19 0 22 -20
4 -20 -7 -1 0 -7 17 -14 21 -9 26 -14 16 -20 -10 -6 -8 -13 8 -28 12 -10 19
-23 16 -28 -3 -6 1 -7 10 -3 10 3 21 0 25 -8 10 -15 4 -29 -13 -29 -7 0 -6 4
3 10 9 6 10 10 3 10 -15 0 -26 -17 -18 -30 4 -7 12 -7 25 0 13 7 21 7 25 0 4
-6 1 -9 -6 -8 -23 5 -21 -29 2 -35 13 -3 18 -10 14 -17 -6 -9 -2 -9 13 -1 27
14 32 14 32 -4 0 -9 -6 -12 -16 -8 -11 4 -15 2 -12 -7 4 -12 22 -19 56 -22 9
-1 9 -5 2 -12 -14 -14 -13 -27 3 -24 7 2 13 -1 14 -6 2 -14 32 -28 45 -20 6 4
8 3 4 -4 -9 -16 33 -52 53 -45 13 5 12 2 -4 -17 -11 -13 -15 -20 -8 -16 12 6
53 -30 53 -47 0 -5 7 -7 15 -3 15 5 17 -14 2 -25 -11 -8 3 -41 17 -36 6 2 11
16 10 30 0 32 1 32 26 7 12 -12 15 -20 8 -20 -9 0 -8 -4 2 -10 11 -7 11 -10 2
-10 -7 0 -10 -5 -7 -10 5 -8 11 -8 20 0 9 7 16 6 25 -5 10 -12 15 -13 20 -4 6
8 9 8 14 0 4 -6 2 -11 -3 -11 -6 0 -11 -9 -11 -19 0 -17 25 -34 52 -36 3 0 10
-4 15 -9 5 -5 3 -6 -4 -2 -8 4 -13 1 -13 -9 0 -12 4 -14 19 -5 14 7 22 7 27
-2 4 -7 3 -8 -4 -4 -7 4 -12 3 -12 -3 0 -5 5 -13 10 -16 8 -5 7 -12 -2 -22
-10 -13 -8 -14 12 -11 20 2 25 -1 24 -19 0 -13 1 -21 4 -18 2 2 13 -6 24 -18
11 -12 16 -15 12 -7 -12 21 -14 40 -4 40 12 0 31 -26 23 -33 -3 -4 1 -7 11 -7
9 0 19 -7 22 -15 4 -10 14 -13 30 -9 16 4 24 2 24 -6 0 -8 9 -11 24 -8 22 4
23 3 16 -24 -5 -16 -5 -28 1 -28 5 0 9 4 9 9 0 18 35 22 47 5 10 -14 10 -19
-5 -30 -15 -12 -14 -13 9 -9 17 3 32 -2 44 -15 10 -11 25 -20 33 -20 15 0 62
-45 62 -59 0 -4 7 -8 15 -8 8 0 12 4 9 9 -8 13 21 9 34 -4 7 -7 12 -20 12 -30
0 -10 7 -18 16 -18 11 0 14 5 10 17 -6 16 -6 16 12 0 15 -13 21 -14 32 -4 10
10 11 9 5 -2 -6 -11 -4 -13 10 -7 14 5 16 4 7 -7 -14 -16 -6 -28 13 -21 7 3
15 -2 19 -11 4 -12 12 -14 27 -10 17 6 21 4 16 -9 -9 -22 6 -28 29 -12 13 10
24 11 37 4 10 -5 25 -7 32 -4 7 2 19 -2 25 -10 7 -8 21 -14 32 -14 10 0 21 -7
24 -15 5 -13 9 -13 22 -3 12 10 14 10 8 1 -5 -9 0 -13 14 -13 14 0 19 -4 14
-12 -4 -7 -3 -10 1 -5 5 4 19 0 33 -9 13 -8 30 -13 38 -10 8 3 14 -1 14 -9 0
-18 21 -19 39 -2 10 10 15 8 27 -7 8 -11 14 -15 14 -8 0 15 42 6 52 -12 5 -9
14 -13 22 -10 7 3 24 0 39 -5 17 -7 28 -7 32 -1 4 6 13 7 23 1 9 -5 36 -9 59
-8 24 0 49 -6 57 -12 8 -7 36 -11 63 -10 26 1 58 -3 70 -9 13 -7 24 -8 28 -3
3 6 18 6 37 0 19 -5 36 -5 41 0 5 5 21 6 36 2 14 -4 51 -9 81 -10 30 -1 67 -8
82 -16 15 -7 26 -10 25 -5 -3 12 8 13 56 4 50 -8 137 -16 189 -16 21 0 35 -4
32 -9 -7 -12 3 -11 28 2 14 8 18 8 14 0 -5 -7 3 -10 23 -7 21 2 31 -1 31 -10
0 -8 5 -14 10 -14 6 0 10 5 10 10 0 6 9 10 20 10 11 0 20 -5 20 -11 0 -5 4 -8
9 -4 5 3 12 1 16 -5 3 -5 11 -10 17 -10 6 0 6 6 -2 15 -11 14 -10 14 16 4 16
-6 52 -12 79 -13 31 -1 49 -6 48 -13 -1 -6 6 -9 17 -6 11 3 20 1 20 -5 0 -5 7
-13 16 -16 14 -5 15 -4 5 8 -9 11 -9 16 0 22 8 4 9 3 5 -4 -9 -15 16 -16 31
-1 7 7 19 8 30 4 10 -5 20 -9 23 -9 3 -1 16 -8 29 -15 16 -9 21 -9 16 -1 -9
15 83 12 103 -4 9 -7 16 -6 21 3 6 9 10 9 19 -2 12 -14 64 -15 96 -2 13 6 21
4 24 -3 5 -15 9182 -17 9182 -2 0 5 7 10 15 10 8 0 15 -4 15 -10 0 -14 407
-14 415 0 8 13 45 13 45 0 0 -5 5 -10 11 -10 7 0 9 9 6 21 -4 16 -3 18 9 8 8
-6 14 -8 14 -3 0 4 5 3 11 -3 13 -13 51 14 43 31 -3 6 3 1 14 -11 11 -12 22
-19 26 -16 3 4 6 2 6 -4 0 -5 7 -10 14 -10 8 0 14 5 13 10 -1 6 12 11 28 12
39 2 77 14 71 24 -3 4 0 13 5 21 7 11 8 7 5 -12 -6 -35 9 -45 24 -18 7 13 17
19 26 16 10 -4 13 -2 8 7 -5 8 -2 7 9 -2 11 -8 17 -9 17 -3 0 7 7 9 17 5 12
-5 14 -3 8 8 -7 11 -6 12 6 3 9 -8 22 -9 38 -3 19 7 21 12 12 23 -10 12 -8 13
8 9 13 -3 21 -1 21 6 0 7 5 9 10 6 6 -3 10 -13 10 -21 0 -9 -5 -12 -12 -8 -7
4 -8 3 -4 -4 4 -7 2 -12 -4 -12 -6 0 -8 -5 -4 -11 3 -6 17 4 32 25 14 20 28
32 32 26 4 -6 13 -5 26 5 11 8 14 15 7 15 -7 0 -13 5 -13 10 0 6 13 9 29 8 16
-1 37 4 47 12 12 10 15 11 10 2 -4 -7 17 0 48 15 30 14 52 31 49 36 -3 6 -1 7
5 3 6 -4 22 0 36 9 13 9 30 15 38 14 21 -4 97 12 103 21 3 5 12 7 19 4 9 -4
13 2 11 20 -2 15 1 24 6 20 5 -3 6 -11 3 -17 -4 -7 -1 -5 7 3 8 8 21 20 29 28
8 7 9 11 3 7 -7 -3 -13 -1 -13 4 0 12 13 15 23 4 14 -13 57 -12 57 3 0 8 6 14
14 14 7 0 16 9 19 20 3 14 10 18 21 14 11 -4 16 -2 14 7 -2 7 2 13 7 14 6 0
16 4 24 9 11 7 12 6 5 -5 -5 -9 1 -8 19 4 15 10 32 15 37 12 6 -3 16 -3 23 2
6 4 17 8 24 9 6 1 22 11 34 23 13 12 27 21 31 21 5 0 27 12 49 27 22 14 50 27
62 28 12 2 21 7 20 13 -2 6 4 9 12 6 8 -4 15 -1 15 6 0 7 8 10 20 7 11 -3 20
-1 20 3 0 5 8 11 18 14 9 4 32 20 51 36 19 17 41 28 48 26 8 -3 17 3 22 16 5
15 10 18 15 9 6 -9 14 -8 32 4 14 9 29 13 35 9 8 -4 9 1 4 16 -6 18 -4 21 12
16 13 -4 25 4 42 29 13 19 30 35 38 35 8 0 11 4 8 10 -3 5 2 10 13 10 10 0 31
11 46 25 15 14 33 25 40 25 19 0 116 96 116 115 0 9 4 14 8 11 12 -7 72 32 72
47 0 19 30 50 63 65 15 6 35 24 45 40 9 16 22 27 29 25 7 -3 15 8 19 23 4 15
18 38 32 51 14 13 22 23 19 23 -4 0 1 9 10 20 10 11 23 20 30 20 7 0 19 15 28
34 9 19 29 46 46 60 16 14 29 33 29 42 0 9 16 38 36 65 19 27 33 53 30 57 -3
5 3 17 14 27 11 10 17 22 14 26 -3 5 1 6 9 3 12 -4 27 13 26 31 0 6 34 68 41
75 12 12 69 130 60 125 -6 -3 -7 1 -4 9 3 9 10 13 15 10 5 -3 6 2 3 10 -3 8 6
30 20 49 14 18 26 47 28 64 1 18 6 31 11 30 5 -1 12 4 14 10 3 7 -1 13 -9 13
-8 0 -9 3 -3 8 25 17 44 64 51 123 5 35 7 68 6 72 -1 4 4 10 12 13 8 3 12 12
9 19 -2 8 -1 20 3 27 4 7 9 19 10 28 1 8 7 42 13 74 6 32 8 63 4 69 -3 6 -1 7
5 3 8 -5 12 5 12 31 0 22 5 44 11 50 6 6 13 26 15 44 19 146 27 187 38 204 8
12 14 50 15 88 0 38 6 77 12 88 13 24 19 51 23 102 2 21 6 41 10 44 3 4 6 19
6 34 0 15 4 30 8 33 4 2 9 28 10 57 1 29 6 55 10 58 8 7 11 20 17 70 5 43 16
128 20 156 1 11 4 20 5 20 1 0 4 9 5 20 1 11 7 45 13 75 6 30 10 62 10 70 0 8
3 33 6 55 4 22 9 67 12 100 8 83 11 110 22 190 5 39 8 81 7 95 -1 14 1 32 5
40 5 8 11 63 14 123 3 59 10 116 15 126 11 20 20 150 11 156 -3 2 -2 32 3 67
4 35 9 88 9 118 1 30 5 58 11 61 5 4 11 62 14 129 2 68 8 132 14 142 5 10 6
18 1 18 -5 0 -7 17 -5 38 2 20 4 52 4 69 0 30 4 34 42 43 58 14 70 23 82 54
15 44 -19 99 -68 107 -52 8 -62 21 -63 81 -1 31 -7 54 -15 59 -12 7 -12 9 0 9
9 0 12 8 7 28 -3 15 -8 40 -11 56 -2 15 -8 33 -13 40 -5 6 -10 26 -10 45 0 19
-6 37 -13 41 -6 4 -8 13 -5 19 8 12 -21 104 -47 155 -9 16 -13 34 -11 41 3 6
-2 18 -11 25 -8 7 -15 21 -15 31 0 10 -4 21 -10 24 -5 3 -10 15 -10 25 0 10
-7 25 -15 34 -8 8 -15 21 -15 29 0 8 -7 20 -15 27 -8 6 -17 22 -21 33 -3 12
-16 32 -27 45 -11 12 -17 22 -14 22 4 0 -6 19 -23 42 -16 22 -30 46 -30 53 0
6 -11 22 -25 35 -14 13 -25 28 -25 33 0 9 -47 68 -90 113 -11 12 -20 25 -20
31 0 5 -16 23 -35 39 -19 16 -35 36 -35 45 0 8 -16 21 -34 29 -19 7 -34 16
-33 19 2 9 -44 54 -76 74 -37 24 -65 47 -90 75 -11 12 -25 22 -31 22 -6 1 -27
14 -46 30 -19 17 -38 30 -42 30 -8 0 -38 22 -70 53 -10 9 -18 14 -18 11 0 -9
-59 29 -64 41 -2 7 0 18 5 26 7 11 9 11 9 -3 0 -10 6 -18 14 -18 8 0 22 -7 30
-16 10 -9 16 -11 16 -4 0 6 12 2 26 -9 15 -12 33 -21 40 -21 8 0 14 -4 14 -10
0 -5 9 -10 21 -10 12 0 23 -8 26 -20 3 -11 9 -17 14 -14 5 3 9 0 9 -5 0 -6 10
-11 23 -11 13 0 34 -15 52 -35 34 -40 37 -41 66 -17 64 51 116 120 110 146 -1
5 5 16 14 26 21 23 45 108 54 191 4 36 11 71 16 79 8 14 13 270 5 270 -3 0 -4
20 -3 45 2 71 -25 251 -42 286 -9 17 -14 36 -12 42 2 7 -4 28 -13 47 -9 19
-20 47 -24 62 -3 15 -18 35 -32 44 -17 12 -21 19 -14 24 25 15 -34 77 -100
106 -15 6 -81 11 -153 11 -120 0 -129 1 -164 26 -70 47 -190 92 -222 82 -10
-3 -24 1 -31 10 -7 8 -18 15 -26 15 -12 0 -34 8 -109 42 -11 4 -29 10 -40 12
-11 2 -42 11 -70 20 -27 9 -86 22 -130 29 -44 8 -90 19 -102 25 -12 7 -35 12
-51 12 -16 0 -83 11 -148 24 -66 13 -141 27 -169 30 -57 8 -143 25 -165 33
-19 8 -19 8 -60 16 -19 5 -73 16 -120 27 -70 15 -323 64 -515 98 l-39 7 -3
125 c-3 159 -21 306 -39 321 -8 6 -14 21 -14 34 0 60 -220 293 -277 294 -13 1
-23 7 -23 14 -1 16 -45 48 -70 50 -10 1 -17 4 -15 7 6 10 -95 62 -111 56 -8
-3 -14 0 -14 8 0 19 -63 44 -217 86 -79 22 -139 27 -113 10 13 -8 12 -10 -2
-10 -10 0 -18 4 -18 9 0 4 -17 11 -37 14 -21 3 -47 9 -57 13 -15 6 -18 4 -14
-8 5 -12 -2 -14 -43 -10 -28 2 -49 1 -48 -4 4 -22 -3 -23 -23 -4 -13 12 -29
18 -38 14 -8 -3 -26 -8 -40 -10 -14 -2 -35 -6 -47 -9 -15 -3 -23 -1 -23 7 0
10 -2 10 -9 -1 -5 -8 -11 -9 -15 -3 -3 5 1 12 9 16 22 8 18 24 -7 29 -15 3
-13 4 5 2 15 -1 30 2 33 7 3 4 -38 8 -90 8 -93 0 -102 -3 -97 -32 0 -5 -4 -8
-9 -8 -6 0 -10 5 -10 10 0 6 -9 10 -20 10 -11 0 -20 5 -20 10 0 6 -5 10 -12
10 -6 0 -4 -7 5 -18 22 -25 21 -39 -3 -45 -11 -3 -20 -1 -20 4 0 5 -9 9 -20 9
-11 0 -20 7 -20 15 0 8 -7 15 -15 15 -9 0 -12 -6 -9 -15 4 -9 0 -15 -7 -16 -8
0 -25 -2 -39 -4 -14 -2 -19 -1 -12 1 6 3 9 11 5 17 -4 7 1 6 10 -2 15 -12 17
-12 11 4 -5 13 -14 15 -36 11 -18 -4 -27 -2 -23 4 10 17 -77 0 -99 -19 -11 -9
-16 -11 -13 -4 4 6 3 14 -3 18 -16 10 -12 -21 5 -35 8 -6 19 -9 25 -5 5 3 10
1 10 -5 0 -7 -15 -9 -42 -6 -24 3 -48 1 -55 -6 -11 -8 -12 -7 -7 6 3 9 10 16
15 16 5 0 9 5 9 11 0 6 -7 8 -16 5 -14 -5 -15 -4 -4 9 11 13 5 15 -47 15 -33
0 -62 -3 -66 -6 -6 -7 12 -45 28 -56 6 -4 2 -8 -7 -8 -10 0 -18 5 -18 11 0 5
-4 7 -10 4 -6 -4 -7 1 -3 10 4 13 1 16 -13 13 -10 -2 -18 -9 -17 -16 2 -6 -4
-9 -12 -6 -9 4 -15 0 -15 -10 0 -9 -4 -16 -10 -16 -5 0 -10 5 -10 10 0 6 -5 9
-11 8 -6 -2 -14 3 -16 10 -3 8 1 10 14 5 16 -6 16 -5 4 10 -13 16 -12 17 13 8
21 -9 26 -8 26 5 0 12 -9 15 -37 13 -45 -3 -76 -16 -68 -30 10 -15 -7 -10 -27
8 -18 17 -21 17 -49 0 -17 -9 -27 -12 -23 -6 4 8 -3 9 -22 6 -23 -5 -95 -14
-169 -22 -5 0 -9 -6 -7 -13 3 -15 -20 -16 -35 -1 -7 7 -29 7 -69 1 -33 -6 -79
-11 -103 -11 -25 -1 -49 -5 -53 -8 -5 -3 -35 -7 -66 -9 -31 -2 -75 -7 -97 -10
-22 -3 -62 -7 -90 -9 -104 -7 -404 -37 -490 -49 -414 -60 -623 -78 -642 -54
-7 8 -26 68 -43 133 -17 65 -34 123 -39 129 -4 6 -13 25 -18 41 -6 17 -32 63
-59 103 -27 41 -67 104 -89 141 -75 126 -150 214 -218 257 -20 14 -45 31 -55
39 -188 155 -277 206 -364 204 -29 0 -67 -5 -85 -10z m3705 -825 c12 -8 28
-12 35 -8 6 4 9 3 4 -1 -10 -11 -97 -13 -97 -3 0 5 8 8 18 8 14 0 15 2 2 10
-13 9 -13 10 0 10 9 0 26 -7 38 -16z m-588 -19 c16 -19 1 -19 -24 0 -16 12
-17 15 -4 15 8 0 21 -7 28 -15z m520 5 c0 -5 -4 -10 -10 -10 -5 0 -10 5 -10
10 0 6 5 10 10 10 6 0 10 -4 10 -10z m-295 -12 c5 4 5 1 1 -6 -4 -7 -11 -10
-16 -7 -4 3 -6 -5 -2 -17 5 -19 4 -20 -10 -8 -9 8 -14 22 -13 30 2 8 4 17 4
19 1 2 7 -2 14 -8 8 -6 18 -7 22 -3z m-178 -17 c0 -11 -5 -17 -9 -15 -11 7
-10 34 1 34 6 0 9 -9 8 -19z m212 -5 c9 -11 7 -13 -13 -13 -20 0 -22 2 -13 13
15 16 13 16 26 0z m616 4 c3 -6 -1 -7 -9 -4 -18 7 -21 14 -7 14 6 0 13 -4 16
-10z m-1035 -30 c0 -5 -2 -10 -4 -10 -3 0 -8 5 -11 10 -3 6 -1 10 4 10 6 0 11
-4 11 -10z m-180 -14 c0 -3 -4 -8 -10 -11 -5 -3 -10 -1 -10 4 0 6 5 11 10 11
6 0 10 -2 10 -4z m-8760 -190 c0 -3 -4 -8 -10 -11 -5 -3 -10 -1 -10 4 0 6 5
11 10 11 6 0 10 -2 10 -4z m1219 -18 c11 -11 12 -10 6 2 -6 12 -5 13 6 3 9
-10 10 -16 2 -24 -16 -16 -46 -7 -49 14 -3 20 16 23 35 5z m-1589 -20 c0 -6
-6 -5 -15 2 -8 7 -15 14 -15 16 0 2 7 1 15 -2 8 -4 15 -11 15 -16z m1680 18
c0 -3 -4 -8 -10 -11 -5 -3 -10 -1 -10 4 0 6 5 11 10 11 6 0 10 -2 10 -4z m-30
-37 c0 -18 -2 -19 -15 -9 -8 7 -15 16 -15 21 0 5 7 9 15 9 9 0 15 -9 15 -21z
m210 6 c27 -15 20 -19 -17 -9 -13 4 -23 10 -23 15 0 12 11 11 40 -6z m-1880 1
c0 -3 -4 -8 -10 -11 -5 -3 -10 -1 -10 4 0 6 5 11 10 11 6 0 10 -2 10 -4z
m-293 -92 c-3 -3 -12 -4 -19 -1 -8 3 -5 6 6 6 11 1 17 -2 13 -5z m11147 -340
c16 -8 35 -14 41 -14 7 0 16 -7 19 -16 5 -13 9 -14 21 -4 12 10 21 8 48 -9 19
-12 44 -21 55 -21 11 0 22 -3 24 -7 5 -12 65 -52 92 -63 13 -5 60 -38 104 -74
45 -36 85 -66 90 -66 5 0 17 -9 27 -20 10 -11 73 -52 139 -92 155 -92 218
-133 286 -185 30 -24 71 -54 90 -68 19 -14 61 -46 93 -71 64 -51 102 -60 237
-58 551 8 831 18 853 31 4 2 13 1 20 -4 6 -4 41 -8 77 -8 l65 -1 2 -42 c2 -45
-6 -52 -32 -26 -22 22 -45 3 -25 -21 18 -22 4 -19 -19 4 -14 14 -16 21 -8 25
7 2 -14 5 -46 5 -32 1 -56 -3 -53 -7 2 -4 -4 -8 -14 -9 -11 -1 -19 1 -19 5 3
19 -2 26 -10 13 -7 -10 -13 -11 -31 -1 -14 7 -47 10 -89 7 -36 -2 -75 -1 -86
3 -11 4 -49 4 -85 -1 -37 -4 -70 -4 -76 2 -6 5 -14 6 -18 2 -8 -8 -535 -6
-608 2 -28 3 -48 2 -48 -4 0 -13 16 -23 70 -42 25 -8 45 -22 45 -30 0 -8 7
-14 15 -14 14 0 39 -19 97 -72 13 -13 28 -23 33 -23 5 0 13 -6 17 -14 4 -8 17
-15 28 -17 10 -2 33 -23 50 -46 16 -23 36 -42 43 -42 29 -2 72 -32 72 -51 0
-11 5 -20 10 -20 6 0 10 5 10 10 0 6 8 5 20 -2 11 -7 20 -18 20 -25 0 -7 11
-15 25 -19 14 -3 22 -10 19 -15 -3 -5 6 -13 21 -19 14 -5 28 -17 31 -25 4 -8
12 -15 19 -15 16 0 47 -35 38 -43 -3 -4 3 -7 15 -7 24 0 30 -15 10 -24 -7 -3
3 -4 22 -1 19 3 29 2 23 -1 -7 -3 -13 -13 -13 -21 0 -11 6 -14 21 -10 17 4 19
3 10 -6 -17 -17 -13 -27 13 -27 16 0 26 -7 30 -22 6 -23 7 -23 21 -4 14 19 15
18 15 -12 0 -24 7 -36 28 -48 15 -10 51 -32 80 -51 28 -18 52 -31 52 -27 0 3
18 -8 39 -25 21 -17 44 -31 50 -31 13 0 14 -20 2 -38 -7 -11 -19 -9 -62 11
-82 37 -294 103 -387 121 -46 9 -87 18 -92 21 -19 11 -294 42 -445 49 -115 6
-339 25 -415 36 -36 5 -92 9 -125 9 -33 0 -71 3 -85 6 -14 3 -65 8 -115 10
-49 3 -130 7 -180 10 -49 3 -151 7 -225 10 -74 2 -151 7 -170 10 -19 3 -114 8
-210 11 -175 6 -188 7 -225 5 -11 -1 -36 1 -55 3 -19 2 -96 8 -170 11 -74 4
-155 9 -180 10 -124 7 -178 8 -188 1 -6 -3 -13 -2 -16 2 -3 5 -17 7 -30 5 -14
-3 -38 -1 -53 4 -15 5 -47 6 -71 3 -23 -4 -45 -4 -48 -1 -6 6 -16 7 -239 16
-77 3 -167 7 -200 9 -33 2 -99 5 -147 7 -49 2 -88 6 -88 10 0 3 -28 6 -62 6
-59 0 -307 10 -318 13 -3 1 -32 1 -65 1 -90 -1 -135 8 -128 25 3 8 1 14 -5 14
-5 0 -12 -9 -15 -21 -4 -16 -12 -20 -34 -17 -15 2 -27 8 -26 14 1 7 -11 14
-28 16 -22 4 -29 1 -25 -9 4 -10 1 -11 -12 -4 -10 5 -41 7 -70 5 -45 -4 -52
-3 -52 13 0 13 2 15 9 5 10 -16 57 -6 65 14 3 8 13 14 22 14 10 0 14 5 10 15
-5 13 55 14 517 10 850 -8 1162 -15 1462 -29 55 -3 172 -8 260 -11 233 -9 342
-14 410 -20 33 -3 105 -7 160 -9 55 -3 145 -7 200 -10 55 -3 169 -8 254 -11
84 -3 157 -8 161 -10 10 -6 82 -7 153 -1 36 2 57 0 57 -6 0 -7 21 -9 60 -5 37
4 60 3 60 -3 0 -6 13 -10 29 -10 24 0 28 3 24 20 -3 11 0 20 6 20 6 0 11 -6
11 -14 0 -9 7 -12 20 -9 11 3 20 1 20 -5 0 -14 54 -25 80 -17 23 7 27 25 5 25
-8 0 -15 6 -15 13 0 7 -7 22 -15 33 -15 18 -15 18 -13 0 2 -14 -4 -19 -29 -21
-33 -3 -43 7 -22 21 8 4 7 9 -2 15 -11 7 -12 12 -1 29 7 11 9 20 4 20 -16 0
-32 -24 -33 -49 0 -15 -3 -20 -6 -13 -2 6 -8 10 -13 7 -10 -6 -7 21 3 31 14
14 7 26 -12 21 -11 -3 -28 3 -40 14 -14 13 -21 15 -24 6 -3 -7 -6 0 -6 16 -1
27 -25 39 -33 15 -7 -21 -30 4 -25 28 3 16 0 24 -9 24 -8 0 -13 -5 -11 -11 1
-6 -4 -14 -10 -16 -9 -3 -13 7 -13 32 0 32 -2 36 -15 25 -8 -6 -19 -9 -26 -5
-8 6 -7 10 2 16 8 5 15 14 15 21 1 7 2 18 3 25 0 6 9 14 19 16 10 3 6 5 -10 6
-16 0 -28 -4 -28 -10 0 -14 -25 -39 -39 -39 -15 0 -14 17 2 23 6 2 -3 4 -21 4
-21 0 -28 -3 -20 -9 10 -6 8 -8 -4 -8 -10 0 -18 5 -18 11 0 6 -16 9 -37 8 -31
-3 -37 0 -35 14 2 9 -2 17 -8 17 -5 0 -10 7 -10 15 0 16 -35 21 -44 6 -8 -13
-36 -7 -46 9 -11 17 -2 40 16 40 8 0 14 5 14 10 0 19 -19 10 -53 -25 -37 -38
-51 -37 -36 2 14 38 11 48 -11 28 -11 -10 -22 -16 -25 -13 -8 7 5 38 16 38 5
0 9 5 9 10 0 13 -27 13 -32 0 -2 -5 -14 -7 -30 -2 -21 5 -25 11 -18 22 5 8 12
11 16 7 4 -4 13 5 21 19 16 33 17 39 1 27 -28 -22 -48 -23 -48 -3 0 11 7 20
15 20 8 0 15 7 15 15 0 8 -6 15 -12 15 -18 -1 -58 -36 -58 -51 0 -8 -7 -5 -21
7 -21 19 -21 19 -47 -24 -6 -10 -15 -10 -36 -2 -45 17 -56 13 -56 -20 0 -16
-5 -30 -11 -30 -5 0 -7 4 -4 10 4 6 -6 7 -25 4 -32 -7 -42 9 -13 20 15 6 13
11 -15 32 -18 14 -32 30 -32 35 0 6 4 8 8 5 4 -2 14 0 22 5 13 8 12 12 -4 24
-17 13 -21 13 -32 -3 -11 -15 -13 -14 -19 10 -6 23 -11 27 -30 22 -13 -3 -26
-1 -30 6 -5 8 -10 8 -20 0 -8 -6 -29 -8 -54 -4 -31 5 -41 11 -41 25 0 11 -6
19 -13 19 -9 0 -13 -11 -12 -30 1 -17 -2 -33 -7 -36 -4 -3 -8 -11 -8 -17 0 -7
4 -6 10 3 8 13 10 12 10 -2 0 -32 -21 -19 -41 26 -12 27 -27 46 -41 49 -24 7
-42 -3 -20 -10 17 -6 15 -23 -3 -23 -8 0 -17 11 -21 25 -6 25 -34 36 -34 14 0
-7 -9 0 -21 15 -15 19 -19 34 -14 56 5 23 3 30 -9 30 -17 0 -32 -42 -21 -59 3
-6 -1 -11 -9 -11 -9 0 -16 -6 -16 -12 0 -23 -20 16 -20 40 0 13 -6 22 -16 22
-11 0 -15 6 -11 20 4 17 0 20 -28 20 -29 0 -32 -3 -28 -21 3 -11 11 -18 18
-15 8 3 11 -2 8 -15 -6 -21 -23 -26 -23 -6 0 7 -9 23 -20 35 -19 20 -22 53 -7
68 12 12 8 24 -8 24 -8 0 -15 -9 -15 -20 0 -11 -7 -20 -15 -20 -8 0 -15 -8
-16 -17 0 -12 -2 -13 -6 -5 -3 7 1 19 7 27 7 8 8 15 3 15 -16 0 -11 34 6 47
14 10 14 12 -4 18 -45 15 -61 24 -44 24 10 1 16 9 15 19 -1 12 6 17 22 16 31
-1 28 14 -5 18 -14 2 -28 9 -31 16 -3 9 3 11 20 7 16 -4 29 -1 37 9 9 11 10
16 2 16 -6 0 -11 5 -11 11 0 5 4 8 9 4 5 -3 17 2 25 11 15 14 16 14 16 0 0
-17 5 -18 55 -18 17 0 38 -7 48 -16 10 -9 18 -12 17 -7 -5 25 1 45 14 45 8 0
18 4 21 10 4 6 -5 9 -19 8 -17 -2 -26 -8 -26 -20 0 -10 -4 -18 -10 -18 -14 0
-13 37 1 46 7 4 7 9 1 13 -5 3 -13 17 -17 30 -7 22 -5 23 19 19 22 -4 32 1 54
28 15 19 29 46 32 61 5 25 9 28 40 25 27 -2 31 0 20 7 -8 6 -11 11 -6 11 5 0
18 -8 28 -17 18 -16 19 -15 34 5 17 24 49 29 57 10 3 -7 6 -2 6 10 1 22 4 23
44 17 23 -4 55 -13 71 -21z m-187 10 c-3 -3 -12 -4 -19 -1 -8 3 -5 6 6 6 11 1
17 -2 13 -5z m-117 -66 c0 -4 -9 -8 -20 -8 -11 0 -20 4 -20 8 0 4 9 8 20 8 11
0 20 -4 20 -8z m-10216 -23 c3 -8 3 -23 0 -32 -5 -15 -4 -16 5 -3 8 12 13 12
23 2 6 -6 19 -12 28 -12 8 0 27 -11 42 -25 29 -27 59 -36 39 -12 -16 20 -3 27
30 15 16 -5 29 -17 29 -25 0 -12 7 -14 30 -9 26 5 32 2 42 -19 6 -14 19 -27
30 -30 21 -7 23 -16 6 -33 -8 -8 -8 -12 -1 -12 6 0 16 6 22 14 7 8 21 12 31 9
11 -3 20 0 20 6 0 16 39 13 57 -5 14 -13 14 -19 2 -42 -19 -37 -26 -41 -65
-32 -26 6 -34 5 -34 -6 0 -8 7 -14 15 -14 9 0 15 -9 15 -25 0 -14 5 -25 11
-25 6 0 9 6 6 14 -3 8 1 17 9 20 9 3 14 -1 14 -11 0 -13 5 -12 23 7 12 14 22
36 22 49 0 30 21 39 28 11 3 -11 1 -18 -4 -14 -10 6 -12 -7 -3 -29 3 -9 14
-12 30 -9 28 5 70 -30 58 -49 -4 -6 0 -15 7 -20 20 -12 37 -11 19 1 -13 9 -12
12 4 25 11 8 14 15 8 15 -7 0 -12 5 -12 11 0 5 5 7 10 4 16 -10 33 5 21 18 -7
9 -1 12 19 12 18 0 25 -3 19 -9 -5 -6 -9 -18 -9 -28 0 -10 -7 -18 -15 -18 -8
0 -15 -3 -16 -7 0 -5 -3 -21 -5 -38 -4 -24 -3 -28 7 -17 20 19 35 15 47 -13 6
-14 18 -25 26 -25 8 0 18 -5 22 -12 5 -7 3 -8 -6 -3 -8 5 -18 1 -26 -10 -12
-17 -14 -16 -24 10 -9 23 -14 26 -38 20 -41 -10 -53 -34 -27 -55 15 -12 17
-10 19 19 2 23 26 25 26 2 0 -12 5 -22 10 -22 6 -1 16 -2 23 -3 6 -1 19 3 27
8 42 30 58 35 64 21 4 -10 -1 -15 -14 -15 -12 0 -20 -7 -20 -17 0 -15 -2 -16
-10 -3 -8 12 -10 11 -10 -7 0 -14 -6 -23 -15 -23 -8 0 -15 -4 -15 -10 0 -13
17 -13 25 0 3 5 13 6 21 3 13 -5 11 -10 -11 -30 -28 -27 -29 -46 -1 -51 26 -5
45 16 26 29 -12 9 -12 10 3 5 12 -4 29 6 52 31 28 30 35 44 33 72 -2 21 2 35
10 37 7 1 8 0 2 -3 -6 -3 -7 -11 0 -23 6 -10 6 -30 1 -48 -8 -25 -6 -32 7 -35
11 -3 8 -5 -8 -6 -35 -2 -52 -15 -45 -33 5 -11 1 -16 -12 -15 -10 1 -22 -8
-28 -21 -6 -14 -15 -20 -25 -16 -39 17 -64 16 -77 -1 -7 -11 -13 -13 -13 -7 0
7 -4 12 -10 12 -5 0 -10 -6 -10 -14 0 -12 -16 -14 -80 -11 -58 2 -80 -1 -80
-10 0 -21 -34 -42 -72 -44 -37 -2 -60 15 -38 29 9 5 9 9 1 14 -16 10 -31 -2
-25 -19 3 -7 1 -22 -6 -32 -10 -16 -10 -15 -5 5 8 27 -10 30 -24 3 -8 -14 -6
-23 10 -37 14 -12 16 -21 9 -28 -8 -8 -15 -5 -26 9 -34 47 -70 85 -81 85 -22
0 -14 -26 11 -40 33 -17 31 -48 -3 -43 l-26 4 28 -18 c34 -22 34 -33 2 -33
-14 0 -25 5 -25 10 0 6 -7 10 -15 10 -12 0 -14 -7 -9 -27 7 -26 6 -26 -9 -12
-16 17 -14 52 6 77 6 8 6 12 -1 12 -6 0 -12 -6 -15 -12 -4 -10 -7 -10 -18 0
-7 6 -19 12 -27 12 -12 0 -12 -3 -2 -15 7 -8 9 -26 5 -42 -6 -30 -50 -69 -60
-54 -3 5 -1 12 4 16 6 3 8 11 5 19 -3 7 4 17 14 22 16 7 18 13 10 34 -9 23
-11 24 -17 6 -7 -17 -8 -18 -14 -3 -3 9 -13 17 -22 17 -17 0 -20 -16 -5 -25
13 -8 13 -52 1 -60 -15 -9 -33 34 -27 61 5 19 2 24 -13 24 -11 0 -26 3 -34 6
-9 3 -17 -3 -21 -18 -5 -18 -8 -20 -15 -9 -18 27 -30 2 -14 -30 11 -22 18 -27
23 -18 5 6 6 18 3 25 -5 14 27 35 54 33 17 -1 17 -2 1 -6 -22 -6 -24 -43 -2
-43 8 0 12 -5 8 -11 -3 -6 -15 -9 -25 -6 -19 5 -23 -3 -19 -32 1 -12 -1 -13
-14 -2 -8 7 -20 10 -26 6 -6 -4 -10 -3 -9 2 7 40 -14 43 -48 7 -13 -14 -27
-23 -31 -19 -4 4 1 12 11 19 9 7 17 19 17 26 0 9 -3 10 -14 1 -8 -6 -20 -10
-27 -9 -10 2 -13 -7 -12 -32 l1 -34 -19 24 -19 25 0 -33 c0 -28 -5 -36 -30
-45 -18 -7 -30 -19 -30 -29 0 -10 -5 -17 -12 -15 -6 1 -14 -7 -16 -18 -7 -33
-19 -38 -14 -5 3 21 0 32 -12 36 -9 3 -16 13 -16 20 0 11 4 12 19 5 15 -8 20
-7 25 6 4 10 1 20 -9 25 -8 5 -15 18 -15 28 0 11 -4 20 -10 20 -5 0 -10 -4
-10 -10 0 -5 -13 -23 -29 -39 -17 -17 -26 -33 -22 -35 12 -8 6 -49 -9 -54 -8
-3 -11 1 -8 10 8 21 -3 34 -34 42 -29 7 -39 -8 -13 -18 23 -8 18 -20 -13 -32
-33 -13 -52 -8 -53 14 0 13 -3 11 -11 -5 -14 -29 -42 -31 -33 -3 4 14 2 20 -8
20 -23 0 -27 -11 -11 -35 12 -19 12 -24 1 -34 -8 -6 -16 -9 -19 -6 -2 3 -11
-11 -18 -30 -18 -45 -33 -45 -28 0 4 34 -6 49 -14 23 -3 -7 -13 -13 -24 -13
-10 0 -19 -5 -19 -12 0 -22 -15 -26 -39 -9 -19 12 -24 13 -20 2 3 -8 -4 -16
-17 -19 -19 -5 -20 -8 -10 -21 11 -13 9 -16 -13 -22 -25 -6 -35 -27 -17 -38
10 -7 2 -56 -10 -56 -5 0 -9 7 -9 15 0 8 -7 15 -15 15 -11 0 -14 -7 -9 -25 4
-16 2 -25 -5 -25 -7 0 -17 -13 -22 -30 -11 -30 -32 -32 -27 -3 2 9 -3 18 -9
20 -7 3 -13 -3 -13 -11 0 -9 -8 -20 -17 -23 -10 -4 -23 -14 -30 -22 -7 -9 -13
-11 -13 -6 0 6 -9 -8 -19 -30 -23 -48 -49 -60 -73 -32 -17 19 -18 19 -19 1 -1
-10 -1 -27 0 -36 1 -11 -9 -23 -23 -30 -27 -11 -35 -28 -15 -28 8 0 8 -5 -1
-15 -10 -12 -10 -15 2 -15 8 0 18 4 24 9 5 5 41 14 79 21 72 12 168 29 195 34
8 2 22 6 30 9 8 3 65 11 125 17 61 6 178 18 260 26 83 8 188 17 235 19 47 2
106 7 131 10 97 13 126 16 189 20 36 2 114 6 174 10 60 3 114 9 119 12 6 3 40
7 77 8 79 3 225 14 260 20 14 2 63 7 110 10 47 3 110 8 140 11 109 10 147 12
295 19 83 3 158 9 168 12 18 5 112 9 333 16 60 2 115 6 121 10 6 4 94 8 196
10 101 3 188 6 193 9 5 2 72 6 149 7 77 2 156 5 175 7 42 4 537 15 848 19 214
3 222 2 207 -15 -14 -15 -14 -20 -2 -27 7 -4 16 -16 20 -25 5 -13 0 -17 -21
-17 -15 0 -51 -4 -79 -9 -36 -6 -54 -5 -57 2 -3 8 -7 7 -13 0 -10 -15 -54 -21
-70 -11 -7 5 -19 5 -25 0 -7 -4 -33 -8 -58 -9 -42 -1 -214 -11 -325 -20 -27
-2 -93 -5 -145 -7 -52 -3 -131 -8 -175 -11 -44 -4 -118 -7 -165 -7 -47 -1
-117 -5 -157 -10 -40 -6 -121 -12 -180 -14 -96 -3 -208 -11 -438 -30 -38 -4
-104 -8 -145 -10 -41 -2 -120 -9 -175 -14 -188 -19 -240 -24 -300 -27 -85 -4
-91 -5 -185 -14 -47 -5 -132 -12 -190 -15 -139 -8 -210 -14 -300 -26 -67 -9
-174 -18 -400 -34 -41 -3 -88 -8 -105 -10 -16 -3 -59 -7 -95 -10 -36 -3 -94
-10 -130 -15 -36 -6 -141 -17 -235 -25 -252 -22 -256 -23 -314 -34 -30 -6
-102 -18 -160 -26 -58 -8 -131 -22 -161 -31 -183 -54 -481 -176 -582 -240 -21
-13 -44 -24 -52 -24 -9 0 -24 -10 -35 -21 -20 -22 -36 -32 -106 -69 -22 -11
-49 -26 -60 -33 -35 -21 -147 -117 -167 -143 -11 -13 -25 -24 -33 -24 -7 0
-15 -4 -17 -8 -2 -4 -23 -23 -48 -42 -24 -19 -68 -60 -97 -90 -28 -30 -55 -51
-59 -47 -4 4 0 15 9 25 10 10 17 24 17 30 0 6 11 19 25 28 13 9 27 25 31 37 6
19 30 47 165 187 20 20 50 46 68 56 17 10 31 22 31 26 0 11 78 88 89 88 5 0
27 17 48 37 21 21 44 36 51 35 7 -2 32 15 54 38 22 22 43 38 46 35 3 -3 15 4
26 14 12 11 44 31 73 45 69 35 146 109 130 126 -10 10 1 11 50 8 48 -3 64 -1
68 10 3 9 0 12 -9 9 -7 -3 -19 0 -25 6 -13 13 -15 57 -2 57 6 0 10 8 10 18 1
56 4 70 16 66 16 -7 29 12 15 21 -14 9 -12 25 3 20 6 -3 20 8 29 25 11 20 22
28 33 24 10 -4 14 -2 10 8 -3 8 6 25 20 38 14 13 25 34 25 47 0 15 8 27 23 33
12 5 18 9 12 10 -5 0 1 6 15 13 16 8 26 23 28 40 3 21 8 27 21 22 13 -4 23 6
40 45 14 31 33 56 50 65 16 8 35 29 44 47 15 32 15 33 -5 41 -11 4 -30 5 -41
1 -19 -6 -247 -16 -307 -13 -14 0 -34 0 -45 0 -208 -4 -430 -11 -430 -12 0 -1
-45 -3 -100 -4 -55 -2 -142 -5 -192 -8 -51 -3 -93 -2 -93 2 0 5 12 17 27 26
23 15 57 18 232 21 113 2 324 6 468 8 l262 5 43 48 c24 26 79 83 123 128 45
44 96 103 115 130 19 28 39 55 45 60 6 6 41 46 78 90 37 44 83 91 102 105 19
14 35 29 35 33 0 16 28 38 32 25 3 -8 9 -8 24 0 14 8 15 12 4 12 -26 1 166 98
212 107 20 4 29 13 34 37 4 17 9 26 11 19 2 -7 11 -9 19 -6 8 3 14 0 14 -6 0
-14 50 5 65 25 7 10 30 17 61 19 41 3 50 7 52 24 4 23 18 28 25 9 3 -10 7 -10
18 -1 11 8 22 8 49 -1 19 -6 42 -11 50 -10 8 0 23 2 33 2 10 1 17 10 17 22 0
23 15 27 24 5z m10016 -85 c0 -5 -4 -10 -10 -10 -5 0 -10 5 -10 10 0 6 5 10
10 10 6 0 10 -4 10 -10z m70 -5 c7 -9 8 -15 2 -15 -5 0 -12 7 -16 15 -3 8 -4
15 -2 15 2 0 9 -7 16 -15z m-9709 -51 c-25 -11 -36 -11 -52 -1 -30 19 -23 22
33 18 l52 -3 -33 -14z m83 -9 c-4 -8 -8 -15 -10 -15 -2 0 -4 7 -4 15 0 8 4 15
10 15 5 0 7 -7 4 -15z m146 5 c0 -6 -6 -13 -14 -16 -8 -3 -18 -24 -22 -47 -4
-23 -9 -34 -12 -24 -2 10 -13 17 -27 17 -13 0 -27 5 -30 10 -3 6 -2 10 4 10 6
0 21 11 34 24 32 32 67 46 67 26z m9490 0 c0 -5 -4 -10 -10 -10 -5 0 -10 5
-10 10 0 6 5 10 10 10 6 0 10 -4 10 -10z m-260 -4 c0 -2 -7 -9 -15 -16 -12
-10 -15 -10 -15 4 0 9 7 16 15 16 8 0 15 -2 15 -4z m74 -4 c2 -4 7 -23 11 -43
6 -30 3 -37 -12 -43 -10 -3 -23 -9 -30 -12 -8 -3 -11 4 -9 22 2 16 8 30 15 32
17 6 13 32 -5 32 -8 0 -12 5 -9 10 7 12 32 13 39 2z m-9244 -16 c0 -2 -7 -6
-15 -10 -8 -3 -15 -1 -15 4 0 6 7 10 15 10 8 0 15 -2 15 -4z m9085 -6 c3 -5 2
-10 -4 -10 -5 0 -13 5 -16 10 -3 6 -2 10 4 10 5 0 13 -4 16 -10z m105 -8 c0
-13 -12 -22 -22 -16 -10 6 -1 24 13 24 5 0 9 -4 9 -8z m-9166 -27 c-4 -8 -14
-15 -23 -15 -14 1 -13 3 3 15 25 19 27 19 20 0z m9126 -17 c0 -19 -2 -20 -10
-8 -13 19 -13 30 0 30 6 0 10 -10 10 -22z m-9170 2 c0 -5 -2 -10 -4 -10 -3 0
-8 5 -11 10 -3 6 -1 10 4 10 6 0 11 -4 11 -10z m-110 -20 c0 -5 -4 -10 -10
-10 -5 0 -10 5 -10 10 0 6 5 10 10 10 6 0 10 -4 10 -10z m9227 -12 c-3 -8 -6
-5 -6 6 -1 11 2 17 5 13 3 -3 4 -12 1 -19z m145 -20 c-7 -7 -12 -8 -12 -2 0
14 12 26 19 19 2 -3 -1 -11 -7 -17z m-9212 -7 c0 -11 -5 -21 -12 -23 -6 -2 -8
-10 -4 -17 6 -9 14 -5 32 14 25 27 48 26 37 0 -3 -8 -1 -15 5 -15 6 0 17 -3
25 -6 10 -3 17 2 20 13 3 11 5 6 6 -12 1 -40 -30 -62 -47 -34 -19 30 -35 23
-27 -13 6 -26 5 -30 -10 -25 -9 4 -21 7 -26 7 -5 0 -9 6 -9 13 0 7 -9 18 -21
25 -14 9 -18 17 -11 25 5 7 12 24 16 40 7 31 26 37 26 8z m190 14 c0 -2 -9
-13 -20 -23 -22 -21 -17 -57 6 -48 8 3 14 -1 14 -10 0 -8 -4 -12 -10 -9 -6 4
-10 -6 -10 -22 -1 -23 -2 -25 -11 -11 -5 9 -16 15 -23 12 -10 -4 -14 5 -14 35
-1 29 3 41 14 41 8 0 14 7 14 16 0 8 4 13 9 9 5 -3 12 -1 16 5 6 10 15 14 15
5z m81 -11 c12 -14 11 -16 -5 -13 -11 2 -21 10 -24 17 -5 17 13 15 29 -4z
m8874 6 c-4 -6 -11 -8 -16 -4 -5 3 -17 0 -25 -7 -12 -10 -13 -9 -8 5 3 9 17
16 31 16 14 0 22 -4 18 -10z m49 -26 c3 -9 1 -23 -4 -32 -9 -14 -10 -13 -5 6
4 13 2 22 -4 22 -6 0 -11 5 -11 10 0 16 17 12 24 -6z m-9104 -4 c0 -5 -4 -10
-10 -10 -5 0 -10 5 -10 10 0 6 5 10 10 10 6 0 10 -4 10 -10z m130 0 c0 -5 -7
-10 -16 -10 -8 0 -12 5 -9 10 3 6 10 10 16 10 5 0 9 -4 9 -10z m8895 -20 c3
-5 -1 -10 -10 -10 -9 0 -13 5 -10 10 3 6 8 10 10 10 2 0 7 -4 10 -10z m-8895
-30 c0 -5 -5 -10 -11 -10 -5 0 -7 5 -4 10 3 6 8 10 11 10 2 0 4 -4 4 -10z
m8873 -24 c-3 -4 -9 -2 -14 5 -13 22 -11 31 5 17 8 -7 12 -17 9 -22z m-8873
-16 c0 -11 -4 -20 -9 -20 -11 0 -22 26 -14 34 12 12 23 5 23 -14z m8920 10 c0
-5 -2 -10 -4 -10 -3 0 -8 5 -11 10 -3 6 -1 10 4 10 6 0 11 -4 11 -10z m90 -11
c10 -18 9 -20 -7 -17 -10 2 -19 11 -21 21 -5 24 15 21 28 -4z m-9133 -31 c-3
-8 -6 -5 -6 6 -1 11 2 17 5 13 3 -3 4 -12 1 -19z m9023 8 c0 -3 -4 -8 -10 -11
-5 -3 -10 -1 -10 4 0 6 5 11 10 11 6 0 10 -2 10 -4z m-8604 -43 c-10 -10 -19
5 -10 18 6 11 8 11 12 0 2 -7 1 -15 -2 -18z m-326 -3 c0 -5 -2 -10 -4 -10 -3
0 -8 5 -11 10 -3 6 -1 10 4 10 6 0 11 -4 11 -10z m9110 -25 c0 -8 -2 -15 -4
-15 -2 0 -6 7 -10 15 -3 8 -1 15 4 15 6 0 10 -7 10 -15z m-9215 -15 c-3 -5
-13 -6 -21 -3 -12 4 -13 8 -3 14 15 9 32 2 24 -11z m315 10 c0 -5 -4 -10 -9
-10 -6 0 -13 5 -16 10 -3 6 1 10 9 10 9 0 16 -4 16 -10z m9026 -20 c1 -17 -3
-30 -7 -30 -5 0 -9 7 -9 15 0 9 -7 18 -15 21 -19 8 -10 24 13 24 12 0 17 -9
18 -30z m-9159 -32 c-3 -7 -5 -2 -5 12 0 14 2 19 5 13 2 -7 2 -19 0 -25z m58
12 c3 -5 -1 -10 -9 -10 -9 0 -16 5 -16 10 0 6 4 10 9 10 6 0 13 -4 16 -10z
m9195 0 c0 -5 -7 -10 -16 -10 -8 0 -12 5 -9 10 3 6 10 10 16 10 5 0 9 -4 9
-10z m-140 -10 c0 -5 -2 -10 -4 -10 -3 0 -8 5 -11 10 -3 6 -1 10 4 10 6 0 11
-4 11 -10z m-9025 -29 c3 -5 1 -12 -5 -16 -5 -3 -10 1 -10 9 0 18 6 21 15 7z
m9115 -12 c0 -5 -4 -9 -10 -9 -5 0 -10 7 -10 16 0 8 5 12 10 9 6 -3 10 -10 10
-16z m-9320 1 c0 -5 -4 -10 -10 -10 -5 0 -10 5 -10 10 0 6 5 10 10 10 6 0 10
-4 10 -10z m9632 -24 c11 -16 10 -26 -3 -26 -5 0 -7 5 -4 10 3 6 -1 10 -9 10
-9 0 -15 -5 -13 -11 1 -6 -3 -13 -9 -16 -7 -2 -11 8 -10 25 1 24 5 28 21 24
11 -3 23 -10 27 -16z m-162 4 c0 -5 -5 -10 -11 -10 -5 0 -7 5 -4 10 3 6 8 10
11 10 2 0 4 -4 4 -10z m232 -2 c-16 -16 -15 -28 3 -28 8 0 15 -4 15 -10 0 -5
-9 -10 -19 -10 -11 0 -22 -4 -25 -9 -3 -5 -16 -7 -27 -4 -19 5 -19 7 -5 15 10
5 21 21 26 34 5 13 17 24 27 24 13 0 14 -3 5 -12z m53 -19 c9 -17 14 -34 10
-37 -8 -9 -45 36 -45 54 0 24 19 15 35 -17z m-9777 3 c2 -6 -6 -10 -17 -9 -22
1 -26 8 -14 21 9 9 26 3 31 -12z m9365 -32 c3 -11 1 -20 -4 -20 -5 0 -9 9 -9
20 0 11 2 20 4 20 2 0 6 -9 9 -20z m157 1 c0 -4 -9 -7 -20 -7 -20 0 -25 7 -14
19 7 7 34 -2 34 -12z m-9850 -5 c0 -3 -4 -8 -10 -11 -5 -3 -10 -1 -10 4 0 6 5
11 10 11 6 0 10 -2 10 -4z m170 0 c0 -2 -7 -7 -16 -10 -8 -3 -12 -2 -9 4 6 10
25 14 25 6z m9726 -30 c-3 -14 -2 -28 4 -31 12 -7 13 -25 2 -25 -11 0 -34 58
-27 70 12 20 27 10 21 -14z m72 6 c2 -7 -3 -12 -12 -12 -9 0 -16 7 -16 16 0
17 22 14 28 -4z m-9788 -2 c0 -5 -2 -10 -4 -10 -3 0 -8 5 -11 10 -3 6 -1 10 4
10 6 0 11 -4 11 -10z m9893 -10 c4 -15 0 -20 -14 -20 -17 0 -18 3 -7 20 7 11
13 20 14 20 1 0 4 -9 7 -20z m87 0 c0 -5 -9 -10 -20 -10 -12 0 -20 -7 -20 -17
0 -12 -3 -14 -10 -7 -17 17 0 44 26 44 13 0 24 -4 24 -10z m-320 -9 c0 -6 -4
-13 -10 -16 -5 -3 -10 1 -10 9 0 9 5 16 10 16 6 0 10 -4 10 -9z m-9942 -29
c-2 -9 7 -18 22 -23 28 -8 27 -9 -16 -14 -29 -4 -32 -2 -32 23 0 15 2 30 5 35
7 12 24 -3 21 -21z m72 18 c0 -5 -7 -10 -15 -10 -8 0 -15 5 -15 10 0 6 7 10
15 10 8 0 15 -4 15 -10z m167 -22 c-3 -8 -6 -5 -6 6 -1 11 2 17 5 13 3 -3 4
-12 1 -19z m10213 12 c0 -5 -7 -10 -15 -10 -8 0 -15 5 -15 10 0 6 7 10 15 10
8 0 15 -4 15 -10z m36 -17 c-10 -10 -19 5 -10 18 6 11 8 11 12 0 2 -7 1 -15
-2 -18z m-10526 7 c0 -5 -4 -10 -10 -10 -5 0 -10 5 -10 10 0 6 5 10 10 10 6 0
10 -4 10 -10z m200 -31 c0 -5 -4 -9 -10 -9 -5 0 -10 7 -10 16 0 8 5 12 10 9 6
-3 10 -10 10 -16z m9907 5 c-3 -3 -12 -4 -19 -1 -8 3 -5 6 6 6 11 1 17 -2 13
-5z m69 -31 c-11 -11 -19 6 -11 24 8 17 8 17 12 0 3 -10 2 -21 -1 -24z m224
27 c0 -5 -4 -10 -9 -10 -6 0 -13 5 -16 10 -3 6 1 10 9 10 9 0 16 -4 16 -10z
m170 -10 c0 -5 -7 -10 -15 -10 -8 0 -15 5 -15 10 0 6 7 10 15 10 8 0 15 -4 15
-10z m-10330 -10 c0 -5 -4 -10 -10 -10 -5 0 -10 5 -10 10 0 6 5 10 10 10 6 0
10 -4 10 -10z m-3689 -13 c-6 -8 -8 -17 -4 -20 3 -4 -1 -7 -10 -7 -9 0 -19 5
-22 10 -3 6 1 10 9 10 9 0 16 5 16 10 0 6 5 10 11 10 8 0 9 -4 0 -13z m13989
-11 c0 -2 -7 -7 -16 -10 -8 -3 -12 -2 -9 4 6 10 25 14 25 6z m-10655 -25 c3
-5 1 -12 -5 -16 -5 -3 -10 1 -10 9 0 18 6 21 15 7z m-75 -11 c0 -5 -4 -10 -10
-10 -5 0 -10 5 -10 10 0 6 5 10 10 10 6 0 10 -4 10 -10z m-3325 -9 c3 -5 2
-12 -3 -15 -5 -3 -9 1 -9 9 0 17 3 19 12 6z m14159 -6 c3 -8 12 -15 21 -15 8
0 15 -5 15 -11 0 -5 -4 -8 -9 -5 -4 3 -20 10 -35 16 -15 5 -24 14 -21 20 9 15
22 12 29 -5z m-10914 -15 c0 -5 -4 -10 -10 -10 -5 0 -10 5 -10 10 0 6 5 10 10
10 6 0 10 -4 10 -10z m-294 -42 c-19 -26 -20 -20 -5 19 6 15 13 22 16 16 2 -7
-3 -23 -11 -35z m11334 33 c0 -6 -4 -13 -10 -16 -5 -3 -10 1 -10 9 0 9 5 16
10 16 6 0 10 -4 10 -9z m-11260 -15 c0 -2 -7 -9 -15 -16 -12 -10 -15 -10 -15
4 0 9 7 16 15 16 8 0 15 -2 15 -4z m11382 -28 c-12 -12 -35 -1 -27 12 3 5 13
6 21 3 10 -4 12 -9 6 -15z m-13639 -5 c-7 -2 -19 -2 -25 0 -7 3 -2 5 12 5 14
0 19 -2 13 -5z m13693 -30 c-11 -11 -19 6 -11 24 8 17 8 17 12 0 3 -10 2 -21
-1 -24z m44 -8 c0 -8 -4 -15 -10 -15 -5 0 -10 7 -10 15 0 8 5 15 10 15 6 0 10
-7 10 -15z m-11920 -46 c0 -5 -4 -9 -10 -9 -5 0 -10 7 -10 16 0 8 5 12 10 9 6
-3 10 -10 10 -16z m11910 6 c0 -8 -4 -15 -9 -15 -13 0 -22 16 -14 24 11 11 23
6 23 -9z m-70 -36 c0 -6 -4 -7 -10 -4 -5 3 -10 11 -10 16 0 6 5 7 10 4 6 -3
10 -11 10 -16z m233 -31 c29 -14 36 -28 12 -28 -8 0 -15 5 -15 10 0 6 -9 10
-20 10 -11 0 -20 5 -20 10 0 13 10 13 43 -2z m-12245 -15 c-2 -10 3 -23 12
-30 13 -11 12 -12 -7 -13 -13 0 -23 5 -23 10 0 6 -9 10 -19 10 -30 0 -35 19
-9 29 36 15 50 13 46 -6z m-2118 3 c0 -2 -7 -21 -16 -42 -16 -38 -17 -38 -25
-15 -7 18 -5 29 7 42 15 17 34 25 34 15z m10317 -2 c-3 -3 -12 -4 -19 -1 -8 3
-5 6 6 6 11 1 17 -2 13 -5z m243 -4 c0 -15 28 -12 33 3 2 6 7 9 11 6 3 -3 0
-14 -8 -24 -12 -17 -16 -18 -31 -5 -19 16 -22 15 -43 -2 -10 -9 -10 -14 0 -26
11 -13 10 -15 -5 -9 -10 4 -21 7 -23 7 -3 0 -2 5 1 11 4 6 -2 13 -13 16 -11 3
-23 10 -25 17 -4 9 11 13 49 14 30 1 54 -3 54 -8z m-8354 -27 c-10 -10 -19 5
-10 18 6 11 8 11 12 0 2 -7 1 -15 -2 -18z m8224 -4 c0 -15 5 -19 15 -15 9 3
15 0 15 -10 0 -10 -8 -14 -22 -12 -17 2 -24 11 -26 31 -2 15 1 27 7 27 6 0 11
-9 11 -21z m-43 -11 c-3 -8 -6 -5 -6 6 -1 11 2 17 5 13 3 -3 4 -12 1 -19z
m3943 6 c0 -8 -4 -12 -10 -9 -5 3 -10 10 -10 16 0 5 5 9 10 9 6 0 10 -7 10
-16z m-4040 -10 c0 -9 -5 -14 -12 -12 -18 6 -21 28 -4 28 9 0 16 -7 16 -16z
m-8443 -210 c-3 -3 -12 -4 -19 -1 -8 3 -5 6 6 6 11 1 17 -2 13 -5z m-1291
-132 c3 -64 -4 -99 -21 -99 -13 0 -20 17 -16 40 0 4 -3 7 -9 7 -16 0 -12 46 8
84 21 43 35 32 38 -32z m804 -22 c0 -5 -5 -10 -11 -10 -5 0 -7 5 -4 10 3 6 8
10 11 10 2 0 4 -4 4 -10z m14276 -102 c-9 -12 -16 -20 -16 -16 0 3 -3 13 -6
21 -3 10 1 17 13 19 26 6 27 2 9 -24z m181 -225 c-7 -6 -46 10 -41 18 3 5 14
3 24 -3 11 -7 18 -13 17 -15z m107 -37 c9 3 14 -3 14 -20 0 -22 -3 -23 -19
-13 -11 7 -19 21 -18 32 0 11 3 15 5 8 3 -7 11 -10 18 -7z m-14739 -75 c-3 -6
-11 -11 -17 -11 -6 0 -6 6 2 15 14 17 26 13 15 -4z m-135 -71 c-14 -10 -27
-17 -29 -14 -6 5 31 33 44 33 6 1 -1 -8 -15 -19z m-332 -210 c-14 -22 -24 -19
-15 5 4 8 11 15 17 15 6 0 6 -7 -2 -20z m-108 -150 c0 -5 -8 -10 -17 -10 -17
-1 -73 -70 -73 -90 0 -6 -6 -10 -13 -10 -7 0 -30 -21 -52 -47 -22 -27 -43 -49
-47 -51 -4 -2 -8 -9 -8 -16 0 -7 -8 -21 -18 -32 -44 -49 -92 -112 -92 -122 0
-7 -9 -17 -20 -24 -11 -7 -20 -20 -20 -29 0 -9 -7 -19 -15 -23 -8 -3 -15 -12
-15 -21 0 -8 -4 -15 -10 -15 -5 0 -10 -7 -10 -16 0 -23 -33 -13 -36 11 -2 11
1 22 6 25 4 3 10 18 11 35 4 33 31 65 54 65 8 0 15 7 15 16 0 8 7 22 15 30 8
9 15 24 15 35 0 10 5 19 11 19 5 0 7 -4 4 -10 -3 -6 1 -7 9 -4 9 3 16 10 16
16 0 5 -4 6 -10 3 -5 -3 -10 3 -10 14 0 12 7 21 16 21 20 0 39 20 48 48 4 12
14 22 21 22 8 0 22 11 31 25 9 13 24 27 34 30 12 4 17 12 13 22 -4 10 -2 14 4
10 17 -11 43 3 43 22 0 17 26 44 51 54 23 9 49 8 49 -3z m-250 -170 c0 -5 -4
-10 -10 -10 -5 0 -10 5 -10 10 0 6 5 10 10 10 6 0 10 -4 10 -10z m-219 -373
c-13 -13 -15 1 -4 30 7 17 8 17 11 -1 2 -10 -1 -23 -7 -29z m1429 -232 c0 -14
-4 -25 -10 -25 -5 0 -7 7 -4 15 4 8 1 15 -6 15 -6 0 -8 5 -5 10 11 18 25 10
25 -15z m-70 -30 c0 -18 -55 -75 -71 -75 -6 0 -24 -9 -40 -21 -34 -24 -65 -22
-61 4 3 20 37 57 51 57 5 0 11 4 13 8 5 11 70 42 91 42 9 0 17 -7 17 -15z
m9400 -257 c0 -29 3 -1213 7 -2630 l6 -2578 -2483 0 -2483 0 6 2628 c4 1445 7
2628 7 2630 0 1 1112 2 2470 2 l2470 0 0 -52z m-10935 -886 c-3 -3 -11 0 -18
7 -9 10 -8 11 6 5 10 -3 15 -9 12 -12z m25 -732 c0 -5 -4 -10 -9 -10 -6 0 -13
5 -16 10 -3 6 1 10 9 10 9 0 16 -4 16 -10z m85 -830 c3 -5 1 -10 -4 -10 -6 0
-11 5 -11 10 0 6 2 10 4 10 3 0 8 -4 11 -10z m15 -110 c0 -5 -4 -10 -10 -10
-5 0 -10 5 -10 10 0 6 5 10 10 10 6 0 10 -4 10 -10z m80 -411 c0 -5 -4 -9 -10
-9 -5 0 -10 7 -10 16 0 8 5 12 10 9 6 -3 10 -10 10 -16z m41 -177 c-5 -10 -18
-25 -27 -33 -11 -9 -9 -2 6 19 26 35 36 42 21 14z m9 -64 c0 -16 -3 -19 -11
-11 -6 6 -8 16 -5 22 11 17 16 13 16 -11z m50 -98 c0 -5 -2 -10 -4 -10 -3 0
-8 5 -11 10 -3 6 -1 10 4 10 6 0 11 -4 11 -10z m3 -59 c-3 -13 -10 -18 -20
-14 -14 5 -13 8 3 20 23 17 23 17 17 -6z m27 -61 c0 -5 -5 -10 -11 -10 -5 0
-7 5 -4 10 3 6 8 10 11 10 2 0 4 -4 4 -10z m70 -250 c0 -5 -2 -10 -4 -10 -3 0
-8 5 -11 10 -3 6 -1 10 4 10 6 0 11 -4 11 -10z m84 -206 c3 -8 2 -12 -4 -9 -6
3 -10 10 -10 16 0 14 7 11 14 -7z m220 -382 c3 -5 -1 -9 -9 -9 -8 0 -15 4 -15
9 0 4 4 8 9 8 6 0 12 -4 15 -8z m153 -184 c-3 -8 -6 -5 -6 6 -1 11 2 17 5 13
3 -3 4 -12 1 -19z m15140 6 c-3 -3 -12 -4 -19 -1 -8 3 -5 6 6 6 11 1 17 -2 13
-5z m-14723 -425 c-3 -5 -10 -7 -15 -3 -5 3 -7 10 -3 15 3 5 10 7 15 3 5 -3 7
-10 3 -15z m13316 -419 c0 -5 -4 -10 -10 -10 -5 0 -10 5 -10 10 0 6 5 10 10
10 6 0 10 -4 10 -10z m60 -10 c-8 -5 -19 -10 -25 -10 -5 0 -3 5 5 10 8 5 20
10 25 10 6 0 3 -5 -5 -10z m-100 -9 c0 -12 -20 -25 -27 -18 -7 7 6 27 18 27 5
0 9 -4 9 -9z m-40 -21 c0 -5 -8 -10 -17 -10 -15 0 -16 2 -3 10 19 12 20 12 20
0z m-70 -30 c6 -11 9 -20 8 -20 -2 0 -11 9 -21 20 -9 11 -13 20 -7 20 5 0 14
-9 20 -20z m-173 -45 c0 -8 -4 -12 -9 -9 -5 3 -6 10 -3 15 9 13 12 11 12 -6z
m-93 -73 c3 -5 -1 -9 -9 -9 -8 0 -12 4 -9 9 3 4 7 8 9 8 2 0 6 -4 9 -8z m-222
-29 c-6 -2 -10 -9 -6 -14 3 -5 0 -9 -5 -9 -6 0 -11 7 -11 15 0 8 8 15 18 14
10 0 12 -3 4 -6z m-9932 -43 c0 -5 -5 -10 -11 -10 -5 0 -7 5 -4 10 3 6 8 10
11 10 2 0 4 -4 4 -10z"/>
<path d="M14004 9214 c3 -9 6 -23 6 -32 0 -12 4 -9 14 8 15 28 12 40 -11 40
-10 0 -13 -6 -9 -16z"/>
<path d="M14020 9060 c0 -5 5 -10 10 -10 6 0 10 5 10 10 0 6 -4 10 -10 10 -5
0 -10 -4 -10 -10z"/>
<path d="M14065 9060 c3 -5 8 -10 11 -10 2 0 4 5 4 10 0 6 -5 10 -11 10 -5 0
-7 -4 -4 -10z"/>
<path d="M13752 8911 c4 -13 18 -16 19 -4 0 4 -5 9 -11 12 -7 2 -11 -2 -8 -8z"/>
<path d="M13855 8900 c3 -5 8 -10 11 -10 2 0 4 5 4 10 0 6 -5 10 -11 10 -5 0
-7 -4 -4 -10z"/>
<path d="M13790 8860 c0 -5 5 -10 10 -10 6 0 10 5 10 10 0 6 -4 10 -10 10 -5
0 -10 -4 -10 -10z"/>
<path d="M13845 8860 c3 -5 8 -10 11 -10 2 0 4 5 4 10 0 6 -5 10 -11 10 -5 0
-7 -4 -4 -10z"/>
<path d="M13902 8774 c-7 -8 -8 -14 -2 -14 5 0 10 -11 10 -24 0 -14 5 -28 10
-31 11 -7 11 15 1 56 -5 23 -8 25 -19 13z"/>
<path d="M14045 8750 c-3 -5 1 -10 10 -10 9 0 13 5 10 10 -3 6 -8 10 -10 10
-2 0 -7 -4 -10 -10z"/>
<path d="M14210 8740 c0 -5 7 -10 15 -10 8 0 15 5 15 10 0 6 -7 10 -15 10 -8
0 -15 -4 -15 -10z"/>
<path d="M14435 8710 c-3 -5 1 -10 9 -10 9 0 16 5 16 10 0 6 -4 10 -9 10 -6 0
-13 -4 -16 -10z"/>
<path d="M14555 8691 c-3 -5 -1 -12 5 -16 5 -3 10 1 10 9 0 18 -6 21 -15 7z"/>
<path d="M14100 8660 c0 -5 5 -10 11 -10 5 0 7 5 4 10 -3 6 -8 10 -11 10 -2 0
-4 -4 -4 -10z"/>
<path d="M14419 8657 c6 -8 8 -17 4 -20 -3 -4 -2 -7 4 -7 9 0 23 22 23 36 0 2
-10 4 -21 4 -17 0 -19 -3 -10 -13z"/>
<path d="M14233 8653 c-18 -7 -16 -23 2 -23 8 0 15 7 15 15 0 8 -1 15 -2 14
-2 0 -9 -3 -15 -6z"/>
<path d="M14350 8654 c0 -10 31 -36 37 -31 3 3 -2 13 -10 22 -16 15 -27 19
-27 9z"/>
<path d="M14476 8644 c-9 -24 -2 -26 12 -4 7 11 8 20 3 20 -5 0 -12 -7 -15
-16z"/>
<path d="M14760 8641 c0 -6 5 -13 10 -16 6 -3 10 1 10 9 0 9 -4 16 -10 16 -5
0 -10 -4 -10 -9z"/>
<path d="M14600 8624 c0 -9 5 -14 12 -12 18 6 21 28 4 28 -9 0 -16 -7 -16 -16z"/>
<path d="M14430 8585 c0 -8 6 -15 14 -15 8 0 16 7 20 15 4 10 -1 15 -14 15
-11 0 -20 -7 -20 -15z"/>
<path d="M14476 8564 c-4 -9 -4 -19 -1 -22 2 -3 7 3 11 12 4 9 4 19 1 22 -2 3
-7 -3 -11 -12z"/>
<path d="M14521 8548 c-1 -16 4 -28 9 -28 12 0 12 8 0 35 -8 18 -9 17 -9 -7z"/>
<path d="M15150 8535 c0 -8 7 -15 15 -15 8 0 15 7 15 15 0 8 -7 15 -15 15 -8
0 -15 -7 -15 -15z"/>
<path d="M14810 8485 c7 -8 16 -12 21 -9 13 8 1 24 -18 24 -13 0 -13 -3 -3
-15z"/>
<path d="M14971 8444 c0 -11 3 -14 6 -6 3 7 2 16 -1 19 -3 4 -6 -2 -5 -13z"/>
<path d="M15017 8434 c-6 -10 9 -42 16 -34 3 3 1 14 -3 24 -3 11 -9 15 -13 10z"/>
<path d="M14960 8331 c0 -5 7 -14 15 -21 13 -10 15 -9 15 9 0 12 -6 21 -15 21
-8 0 -15 -4 -15 -9z"/>
<path d="M15230 8215 c0 -8 4 -15 10 -15 5 0 7 7 4 15 -4 8 -8 15 -10 15 -2 0
-4 -7 -4 -15z"/>
<path d="M15320 8135 c7 -8 17 -15 22 -15 6 0 5 7 -2 15 -7 8 -17 15 -22 15
-6 0 -5 -7 2 -15z"/>
<path d="M11584 8058 c-3 -4 9 -8 25 -8 17 0 31 -4 31 -10 0 -5 8 -10 18 -10
14 0 15 2 2 10 -13 8 -12 10 3 10 9 0 17 3 17 8 0 10 -90 11 -96 0z"/>
<path d="M15420 8060 c0 -5 5 -10 10 -10 6 0 10 5 10 10 0 6 -4 10 -10 10 -5
0 -10 -4 -10 -10z"/>
<path d="M11530 8050 c0 -5 4 -10 9 -10 6 0 13 5 16 10 3 6 -1 10 -9 10 -9 0
-16 -4 -16 -10z"/>
<path d="M15496 8024 c-4 -9 -4 -19 -1 -22 2 -3 7 3 11 12 4 9 4 19 1 22 -2 3
-7 -3 -11 -12z"/>
<path d="M15610 8030 c0 -5 5 -10 10 -10 6 0 10 5 10 10 0 6 -4 10 -10 10 -5
0 -10 -4 -10 -10z"/>
<path d="M15640 8000 c0 -5 5 -10 10 -10 6 0 10 5 10 10 0 6 -4 10 -10 10 -5
0 -10 -4 -10 -10z"/>
<path d="M15625 7960 c3 -5 10 -10 16 -10 5 0 9 5 9 10 0 6 -7 10 -16 10 -8 0
-12 -4 -9 -10z"/>
<path d="M15860 7931 c0 -6 5 -13 10 -16 6 -3 10 1 10 9 0 9 -4 16 -10 16 -5
0 -10 -4 -10 -9z"/>
<path d="M15890 7920 c0 -5 5 -10 10 -10 6 0 10 5 10 10 0 6 -4 10 -10 10 -5
0 -10 -4 -10 -10z"/>
<path d="M3630 9149 c0 -5 5 -7 10 -4 6 3 10 8 10 11 0 2 -4 4 -10 4 -5 0 -10
-5 -10 -11z"/>
<path d="M3770 9120 c0 -5 5 -10 11 -10 5 0 7 5 4 10 -3 6 -8 10 -11 10 -2 0
-4 -4 -4 -10z"/>
<path d="M3810 9106 c0 -9 5 -16 10 -16 6 0 10 4 10 9 0 6 -4 13 -10 16 -5 3
-10 -1 -10 -9z"/>
<path d="M3898 8913 c7 -3 16 -2 19 1 4 3 -2 6 -13 5 -11 0 -14 -3 -6 -6z"/>
<path d="M4262 8879 c2 -7 10 -15 17 -17 8 -3 12 1 9 9 -2 7 -10 15 -17 17 -8
3 -12 -1 -9 -9z"/>
<path d="M4040 8860 c0 -5 5 -10 10 -10 6 0 10 5 10 10 0 6 -4 10 -10 10 -5 0
-10 -4 -10 -10z"/>
<path d="M4081 8854 c0 -11 3 -14 6 -6 3 7 2 16 -1 19 -3 4 -6 -2 -5 -13z"/>
<path d="M4240 8840 c0 -6 7 -10 15 -10 8 0 15 2 15 4 0 2 -7 6 -15 10 -8 3
-15 1 -15 -4z"/>
<path d="M4120 8820 c0 -5 5 -10 11 -10 5 0 7 5 4 10 -3 6 -8 10 -11 10 -2 0
-4 -4 -4 -10z"/>
<path d="M4260 8814 c0 -5 5 -15 11 -21 14 -14 2 -34 -18 -31 -9 2 -18 -3 -20
-9 -7 -20 22 -15 48 6 l24 20 -22 23 c-13 12 -23 18 -23 12z"/>
<path d="M4220 8800 c0 -5 5 -10 10 -10 6 0 10 5 10 10 0 6 -4 10 -10 10 -5 0
-10 -4 -10 -10z"/>
<path d="M4341 8794 c0 -11 3 -14 6 -6 3 7 2 16 -1 19 -3 4 -6 -2 -5 -13z"/>
<path d="M4305 8761 c-3 -5 -1 -12 5 -16 5 -3 10 1 10 9 0 18 -6 21 -15 7z"/>
<path d="M4100 8726 c0 -24 17 -28 23 -6 3 13 0 20 -9 20 -8 0 -14 -6 -14 -14z"/>
<path d="M4185 8700 c3 -5 8 -10 11 -10 2 0 4 5 4 10 0 6 -5 10 -11 10 -5 0
-7 -4 -4 -10z"/>
<path d="M4250 8690 c0 -5 5 -10 10 -10 6 0 10 5 10 10 0 6 -4 10 -10 10 -5 0
-10 -4 -10 -10z"/>
<path d="M4386 8685 c3 -8 12 -11 20 -8 20 7 17 18 -5 20 -13 1 -18 -3 -15
-12z"/>
<path d="M4160 8660 c0 -5 5 -10 10 -10 6 0 10 5 10 10 0 6 -4 10 -10 10 -5 0
-10 -4 -10 -10z"/>
<path d="M4000 8656 c0 -2 7 -6 15 -10 8 -3 15 -1 15 4 0 6 -7 10 -15 10 -8 0
-15 -2 -15 -4z"/>
<path d="M4060 8645 c-8 -9 -8 -15 -2 -15 12 0 26 19 19 26 -2 2 -10 -2 -17
-11z"/>
<path d="M4330 8650 c0 -5 5 -10 11 -10 5 0 7 5 4 10 -3 6 -8 10 -11 10 -2 0
-4 -4 -4 -10z"/>
<path d="M4406 8651 c-9 -13 11 -61 25 -61 6 0 8 7 5 16 -3 9 -6 24 -6 35 0
20 -15 26 -24 10z"/>
<path d="M4274 8639 c7 -17 -19 -53 -32 -45 -5 3 -17 -3 -27 -14 -22 -24 -22
-24 40 -1 57 22 63 31 35 56 -14 13 -19 14 -16 4z"/>
<path d="M4360 8641 c0 -5 5 -13 10 -16 6 -3 10 -2 10 4 0 5 -4 13 -10 16 -5
3 -10 2 -10 -4z"/>
<path d="M4190 8630 c0 -5 5 -10 10 -10 6 0 10 5 10 10 0 6 -4 10 -10 10 -5 0
-10 -4 -10 -10z"/>
<path d="M4330 8612 c0 -13 -11 -27 -27 -36 -19 -10 -23 -15 -11 -16 14 0 61
16 77 26 1 2 -6 13 -18 25 l-21 23 0 -22z"/>
<path d="M4080 8599 c0 -5 5 -7 10 -4 6 3 10 8 10 11 0 2 -4 4 -10 4 -5 0 -10
-5 -10 -11z"/>
<path d="M4005 8580 c-8 -13 4 -32 16 -25 12 8 12 35 0 35 -6 0 -13 -4 -16
-10z"/>
<path d="M3910 8569 c0 -12 29 -31 39 -25 16 10 1 35 -20 33 -10 -1 -19 -4
-19 -8z"/>
<path d="M3885 8540 c-3 -5 -11 -7 -19 -4 -9 3 -13 -5 -13 -26 0 -20 5 -29 12
-26 7 2 17 0 23 -6 17 -17 32 1 32 38 0 33 -20 48 -35 24z m25 -18 c0 -13 -12
-22 -22 -16 -10 6 -1 24 13 24 5 0 9 -4 9 -8z"/>
<path d="M3662 8498 c6 -16 68 -19 68 -4 0 7 -16 13 -36 14 -25 2 -35 -1 -32
-10z"/>
<path d="M3820 8479 c0 -5 5 -7 10 -4 6 3 10 8 10 11 0 2 -4 4 -10 4 -5 0 -10
-5 -10 -11z"/>
<path d="M3564 8449 c-3 -6 -1 -16 5 -22 8 -8 11 -5 11 11 0 24 -5 28 -16 11z"/>
<path d="M3351 8384 c0 -11 3 -14 6 -6 3 7 2 16 -1 19 -3 4 -6 -2 -5 -13z"/>
<path d="M3450 8368 c0 -4 4 -8 10 -8 5 0 7 -6 4 -14 -3 -8 -1 -17 5 -21 7 -4
11 5 11 23 0 19 -5 29 -15 29 -8 0 -15 -4 -15 -9z"/>
<path d="M3215 8250 c-3 -5 1 -10 9 -10 9 0 16 5 16 10 0 6 -4 10 -9 10 -6 0
-13 -4 -16 -10z"/>
<path d="M2980 8174 c0 -8 5 -12 10 -9 6 4 8 11 5 16 -9 14 -15 11 -15 -7z"/>
<path d="M2780 8001 c0 -6 5 -13 10 -16 6 -3 10 1 10 9 0 9 -4 16 -10 16 -5 0
-10 -4 -10 -9z"/>
<path d="M2670 7866 c0 -9 5 -16 10 -16 6 0 10 4 10 9 0 6 -4 13 -10 16 -5 3
-10 -1 -10 -9z"/>
<path d="M2406 7841 c-4 -5 -2 -12 3 -15 5 -4 12 -2 15 3 4 5 2 12 -3 15 -5 4
-12 2 -15 -3z"/>
<path d="M2430 7761 c0 -5 5 -13 10 -16 6 -3 10 -2 10 4 0 5 -4 13 -10 16 -5
3 -10 2 -10 -4z"/>
<path d="M2329 7700 c-1 -11 -2 -26 -3 -32 -1 -7 7 -12 17 -12 9 1 17 -2 17
-7 0 -12 32 -11 50 2 12 8 11 9 -6 7 -26 -4 -54 18 -54 43 0 25 -20 24 -21 -1z"/>
<path d="M2520 7705 c-7 -8 -8 -15 -2 -15 5 0 15 7 22 15 7 8 8 15 2 15 -5 0
-15 -7 -22 -15z"/>
<path d="M2400 7679 c0 -5 5 -7 10 -4 6 3 10 8 10 11 0 2 -4 4 -10 4 -5 0 -10
-5 -10 -11z"/>
<path d="M1110 6390 c0 -5 5 -10 10 -10 6 0 10 5 10 10 0 6 -4 10 -10 10 -5 0
-10 -4 -10 -10z"/>
<path d="M9215 4709 c-122 -11 -203 -27 -310 -61 -468 -152 -817 -532 -932
-1016 -23 -97 -26 -132 -30 -387 -3 -174 -1 -319 6 -382 45 -414 277 -792 626
-1015 352 -227 792 -282 1190 -152 479 158 824 548 932 1054 27 126 27 714 0
840 -92 428 -355 777 -733 972 -218 113 -505 169 -749 147z m384 -318 c70 -26
120 -60 177 -119 46 -47 104 -136 104 -159 0 -10 -23 -13 -84 -13 l-84 0 -31
38 c-57 73 -156 122 -246 122 -44 0 -116 -20 -163 -44 l-30 -15 -35 70 -35 70
22 14 c32 21 94 45 140 55 64 14 204 4 265 -19z m-672 -46 c-45 -31 -67 -71
-67 -125 0 -78 56 -142 157 -180 239 -89 261 -100 307 -152 27 -29 50 -67 57
-91 18 -67 7 -155 -26 -222 l-30 -60 -6 57 c-7 67 -39 115 -100 154 -22 13
-115 54 -207 90 -100 39 -179 76 -196 92 -92 86 -90 268 4 375 22 25 59 54 82
65 59 29 70 27 25 -3z m983 -437 c-1 -96 -50 -206 -131 -292 -66 -71 -170
-134 -187 -113 -14 18 -62 115 -62 126 0 6 18 20 41 32 43 21 129 95 129 110
0 5 -56 9 -125 9 l-125 0 -35 70 c-19 38 -35 74 -35 80 0 6 91 10 265 10 l265
0 0 -32z m-1052 -174 c15 -10 22 -25 22 -48 0 -28 -8 -40 -45 -70 -32 -26 -46
-47 -51 -72 l-7 -36 -18 29 c-21 32 -34 102 -25 136 16 67 75 96 124 61z m691
-690 c256 -53 548 -223 794 -463 37 -36 67 -73 67 -82 0 -9 -41 -55 -90 -103
-249 -236 -523 -390 -795 -447 -79 -17 -284 -17 -360 0 -216 46 -414 141 -620
296 -103 78 -265 233 -265 255 0 21 134 150 253 243 221 173 470 287 692 316
86 12 225 5 324 -15z"/>
<path d="M9208 2830 c-66 -17 -159 -70 -207 -118 -181 -182 -92 -446 182 -534
73 -24 227 -29 296 -9 135 39 254 134 286 231 22 65 17 169 -10 225 -31 65
-107 133 -193 173 -73 34 -83 36 -197 38 -66 2 -137 -1 -157 -6z m225 -204
c18 -7 45 -28 61 -45 24 -25 30 -40 30 -80 1 -44 -3 -54 -34 -86 -59 -61 -164
-79 -240 -40 -14 7 -38 27 -55 45 -25 26 -30 40 -30 80 0 40 5 54 30 81 17 17
44 37 60 45 39 17 137 18 178 0z"/>
<path d="M10244 1427 c-2 -7 -3 -82 -2 -167 3 -152 3 -155 26 -158 l22 -3 0
170 c0 165 -1 171 -20 171 -11 0 -23 -6 -26 -13z"/>
<path d="M7987 1406 c-20 -19 -27 -35 -27 -64 0 -44 20 -67 87 -101 56 -28 71
-56 46 -83 -15 -17 -26 -19 -75 -14 -46 4 -57 3 -62 -11 -8 -20 5 -29 56 -37
45 -7 110 7 127 28 7 8 14 29 17 48 7 42 -18 75 -83 114 -64 37 -74 52 -53 84
6 10 26 15 62 15 46 0 53 3 53 20 0 17 -8 20 -61 23 -53 2 -64 0 -87 -22z"/>
<path d="M9333 1409 c-52 -33 -78 -84 -78 -156 0 -66 16 -98 67 -136 33 -25
132 -26 177 -2 30 15 31 18 31 85 l0 70 -60 0 c-53 0 -60 -2 -60 -19 0 -15 8
-21 33 -23 28 -3 32 -7 35 -37 2 -20 -2 -37 -10 -42 -18 -12 -85 -11 -109 1
-45 25 -62 109 -35 175 20 47 66 69 128 61 39 -6 49 -4 55 10 9 24 -15 34 -82
34 -43 0 -69 -6 -92 -21z"/>
<path d="M8967 1372 c-10 -10 -17 -26 -17 -35 0 -13 -9 -17 -33 -17 -18 0 -43
-7 -55 -16 -20 -14 -23 -14 -28 0 -3 9 -12 16 -20 16 -11 0 -14 -23 -14 -110
l0 -110 25 0 c24 0 25 2 25 74 0 82 5 91 63 101 l37 7 0 -74 c0 -61 4 -78 19
-92 33 -30 116 -19 97 13 -4 6 -20 11 -37 11 l-29 0 0 70 0 70 30 0 c23 0 30
4 30 20 0 16 -7 20 -30 20 -28 0 -30 3 -30 35 0 39 -9 44 -33 17z"/>
<path d="M8273 1315 c-18 -8 -33 -10 -33 -5 0 6 -9 10 -20 10 -19 0 -20 -7
-20 -110 l0 -110 25 0 c25 0 25 1 25 80 0 85 9 100 59 100 20 0 21 -6 21 -90
l0 -90 30 0 30 0 0 80 c0 76 1 81 24 92 47 21 56 7 56 -87 0 -84 0 -85 25 -85
25 0 25 0 25 93 0 50 -4 97 -8 104 -16 25 -61 34 -97 18 -30 -12 -38 -12 -62
0 -34 18 -39 18 -80 0z"/>
<path d="M8620 1317 c-24 -8 -35 -18 -35 -32 0 -13 5 -18 15 -16 8 3 31 5 50
5 28 1 36 -3 38 -20 3 -19 -3 -22 -45 -27 -71 -8 -105 -63 -70 -111 15 -21 73
-24 106 -7 14 8 21 8 21 1 0 -5 9 -10 20 -10 19 0 20 7 20 93 0 77 -3 97 -17
110 -26 23 -63 28 -103 14z m70 -142 c0 -18 -7 -26 -25 -31 -54 -13 -72 19
-24 43 36 19 49 16 49 -12z"/>
<path d="M9623 1315 c-66 -29 -84 -139 -31 -192 36 -36 110 -35 147 1 22 23
26 35 26 86 0 50 -4 63 -25 84 -32 31 -76 39 -117 21z m87 -54 c26 -49 -1
-131 -43 -131 -45 0 -73 80 -43 125 21 31 70 35 86 6z"/>
<path d="M10390 1312 c-85 -42 -71 -197 20 -215 38 -8 105 13 105 33 0 12 -11
14 -51 12 -44 -3 -54 0 -67 19 -9 12 -14 26 -11 31 3 4 34 8 70 8 74 0 83 9
64 66 -9 26 -21 40 -46 50 -42 18 -42 18 -84 -4z m80 -52 c10 -19 8 -20 -35
-20 -46 0 -54 7 -33 28 19 19 56 14 68 -8z"/>
<path d="M10592 1320 c-12 -5 -27 -21 -34 -35 -16 -36 1 -68 53 -96 23 -13 40
-28 38 -34 -2 -5 -24 -10 -49 -10 -34 0 -45 -4 -48 -17 -2 -12 7 -20 35 -27
50 -14 94 -1 113 31 20 37 2 71 -49 94 -63 28 -60 64 5 51 17 -3 28 1 34 13 8
15 4 20 -22 29 -36 13 -45 13 -76 1z"/>
<path d="M9822 1297 c-26 -28 -29 -82 -7 -114 11 -16 13 -28 6 -40 -18 -35
-34 -102 -28 -117 17 -43 139 -47 182 -6 21 19 25 21 30 7 16 -40 144 -49 185
-12 23 21 26 67 5 85 -8 6 -35 17 -60 23 -53 14 -59 29 -13 39 41 8 68 41 68
83 0 20 6 35 15 39 8 3 15 12 15 21 0 12 -14 15 -76 15 -88 0 -108 -8 -123
-52 -9 -26 -8 -38 7 -68 17 -36 15 -60 -11 -117 l-9 -21 -22 24 c-12 15 -42
30 -71 38 -56 14 -61 28 -14 37 46 10 73 41 72 84 -1 24 3 35 13 35 8 0 14 9
14 20 0 18 -7 20 -78 20 -69 0 -81 -3 -100 -23z m92 -23 c21 -21 20 -47 -3
-68 -38 -34 -85 20 -54 63 17 25 36 27 57 5z m213 4 c21 -28 22 -49 3 -68 -28
-28 -69 -10 -70 32 0 20 26 48 44 48 8 0 18 -6 23 -12z m-214 -199 c20 -5 37
-13 37 -17 0 -19 -27 -32 -66 -32 -45 0 -58 13 -42 43 10 20 19 21 71 6z m220
0 c20 -5 37 -14 37 -19 0 -29 -106 -42 -116 -15 -7 17 12 45 30 45 6 0 28 -5
49 -11z"/>
<path d="M9083 1234 c-10 -26 11 -35 73 -32 52 3 59 5 62 26 3 21 0 22 -63 22
-50 0 -67 -4 -72 -16z"/>
<path d="M13375 10050 c4 -6 11 -8 16 -5 14 9 11 15 -7 15 -8 0 -12 -5 -9 -10z"/>
<path d="M13800 10020 c0 -5 4 -10 9 -10 6 0 13 5 16 10 3 6 -1 10 -9 10 -9 0
-16 -4 -16 -10z"/>
<path d="M4423 9793 c-7 -2 -13 -8 -13 -13 0 -10 38 -1 46 11 6 10 -13 11 -33
2z"/>
<path d="M4522 9787 c-8 -10 -6 -16 9 -26 27 -16 35 -8 16 19 -11 16 -16 18
-25 7z"/>
<path d="M4573 9784 c-17 -7 -4 -34 16 -34 14 0 14 -2 1 -10 -9 -6 -10 -10 -3
-10 13 0 33 30 33 49 0 11 -25 13 -47 5z"/>
<path d="M4450 9772 c0 -13 23 -32 39 -32 11 0 10 4 -4 20 -19 21 -35 26 -35
12z"/>
<path d="M990 2993 c5 -2 8 -9 5 -13 -3 -5 -1 -11 4 -14 5 -4 8 2 7 11 -2 9
-8 18 -15 19 -6 1 -7 0 -1 -3z"/>
<path d="M1026 2704 c-4 -9 -4 -19 -1 -22 3 -3 5 0 5 7 0 7 5 9 10 6 15 -9 12
-38 -2 -29 -10 5 -10 4 0 -7 10 -11 15 -10 29 4 11 11 13 17 5 17 -7 0 -11 3
-11 8 5 33 -23 46 -35 16z"/>
<path d="M1030 2560 c0 -5 5 -10 11 -10 5 0 7 5 4 10 -3 6 -8 10 -11 10 -2 0
-4 -4 -4 -10z"/>
<path d="M1070 2469 c0 -15 18 -19 23 -6 3 8 -1 14 -9 14 -8 0 -14 -4 -14 -8z"/>
<path d="M1094 2323 c-10 -27 -9 -29 18 -28 28 0 36 9 18 20 -6 4 -7 11 -4 17
4 6 2 8 -4 4 -5 -3 -12 -1 -14 4 -2 6 -8 -2 -14 -17z"/>
<path d="M1138 2254 c-4 -3 -2 -16 4 -28 7 -11 11 -24 10 -28 -4 -14 15 -9 28
7 12 14 9 17 -17 14 -5 0 -10 9 -13 21 -3 12 -8 18 -12 14z"/>
<path d="M1949 1028 c10 -14 9 -17 -11 -20 -22 -3 -22 -3 3 -14 23 -11 25 -10
24 7 -1 11 -8 25 -15 32 -12 10 -12 9 -1 -5z"/>
</g>
</svg>
