<?xml version="1.0" standalone="no"?>
<!DOCTYPE svg PUBLIC "-//W3C//DTD SVG 20010904//EN"
 "http://www.w3.org/TR/2001/REC-SVG-20010904/DTD/svg10.dtd">
<svg version="1.0" xmlns="http://www.w3.org/2000/svg"
 width="2792.000000pt" height="1564.000000pt" viewBox="0 0 2792.000000 1564.000000"
 preserveAspectRatio="xMidYMid meet">

<g transform="translate(0.000000,1564.000000) scale(0.100000,-0.100000)"
fill="#000000" stroke="none">
<path d="M14675 13864 c-22 -8 -53 -17 -70 -19 -55 -7 -199 -37 -247 -51 -26
-8 -61 -14 -78 -14 -17 0 -43 -6 -58 -14 -15 -7 -50 -17 -78 -21 -28 -3 -63
-13 -78 -20 -15 -8 -44 -17 -64 -21 -20 -3 -51 -14 -68 -24 -17 -10 -43 -17
-57 -17 -14 0 -42 -10 -62 -22 -20 -11 -46 -21 -58 -21 -13 0 -39 -8 -58 -18
-20 -10 -61 -26 -92 -36 -32 -10 -59 -22 -63 -27 -3 -5 -16 -9 -30 -9 -13 0
-41 -9 -61 -20 -21 -11 -45 -20 -53 -20 -18 0 -77 -21 -107 -38 -12 -7 -31
-12 -42 -12 -11 0 -49 -13 -84 -30 -36 -16 -70 -30 -76 -30 -7 0 -34 -11 -61
-25 -27 -14 -57 -25 -67 -25 -10 0 -28 -7 -40 -15 -12 -9 -48 -24 -80 -34 -32
-11 -71 -26 -88 -35 -16 -9 -39 -16 -50 -16 -11 -1 -31 -7 -45 -15 -14 -8 -34
-15 -45 -15 -11 0 -47 -12 -80 -26 -61 -26 -112 -42 -153 -49 -12 -2 -37 -12
-55 -24 -17 -11 -58 -34 -89 -50 -56 -30 -108 -84 -108 -112 0 -8 -4 -19 -9
-24 -5 -6 -11 -54 -12 -109 -2 -61 -7 -103 -15 -111 -17 -17 -290 -27 -704
-26 -401 2 -661 10 -687 23 -12 6 -104 2 -131 -5 -18 -5 -23 -3 -18 8 6 16 0
17 -104 20 -30 1 -58 -3 -62 -9 -4 -6 -15 -3 -28 9 -17 15 -23 16 -29 6 -6 -9
-10 -10 -12 -2 -5 13 -38 21 -99 22 -25 1 -58 5 -75 10 -33 9 -168 21 -257 22
-32 0 -58 4 -58 9 0 4 -8 8 -17 8 -17 -1 -17 -1 0 -11 9 -6 15 -14 12 -20 -4
-5 1 -9 9 -9 9 0 16 -4 16 -10 0 -5 7 -10 15 -10 8 0 15 -3 15 -7 0 -5 -17 -8
-38 -7 -120 3 -122 4 -122 21 0 12 3 14 10 7 12 -12 70 -6 70 7 0 5 -4 9 -10
9 -5 0 -10 7 -10 15 0 8 -9 15 -20 15 -22 0 -27 -15 -7 -23 9 -4 9 -6 0 -6 -7
-1 -18 8 -25 19 -15 24 -36 26 -44 5 -4 -8 -10 -15 -15 -15 -5 0 -9 7 -9 15 0
16 -45 21 -54 6 -3 -5 -15 -7 -26 -4 -11 3 -17 9 -14 14 3 5 -5 9 -18 9 -25 0
-54 -35 -38 -45 5 -3 20 -3 35 -1 17 3 25 0 25 -10 0 -18 10 -18 24 0 16 21
50 24 51 6 0 -10 8 -14 23 -12 16 2 20 -1 16 -12 -4 -11 -15 -13 -41 -9 -23 4
-38 2 -43 -7 -6 -9 -12 -8 -27 7 -16 16 -21 17 -32 6 -17 -18 -47 -18 -32 0
11 14 5 27 -11 27 -5 0 -6 -4 -3 -10 3 -5 2 -10 -3 -10 -6 0 -9 11 -8 25 0 14
4 25 9 25 4 0 7 5 7 11 0 8 -13 9 -41 5 -29 -5 -38 -3 -34 5 5 8 1 8 -14 0
-19 -11 -20 -14 -7 -26 17 -18 36 -19 36 -4 0 8 4 8 14 0 7 -6 13 -21 12 -34
-1 -19 -6 -22 -41 -19 -22 2 -42 9 -44 14 -2 6 -7 5 -11 -2 -9 -14 -90 -18
-110 -5 -19 12 -192 12 -213 0 -12 -7 -20 -7 -25 1 -14 22 -50 26 -61 7 -6
-11 -11 -13 -11 -5 0 9 -11 13 -33 11 -18 -2 -37 -1 -42 3 -6 3 -25 4 -43 3
-19 -2 -46 4 -62 13 -29 17 -57 9 -30 -8 12 -8 12 -10 2 -10 -8 0 -16 9 -19
20 -4 15 -11 18 -37 13 -17 -3 -37 -10 -43 -16 -10 -7 -13 -4 -13 12 0 31 -55
30 -64 -1 -6 -23 -6 -23 -24 -3 -13 16 -24 19 -47 14 -16 -4 -22 -7 -12 -8 16
-1 16 -3 -3 -23 -21 -23 -31 -19 -43 16 -5 14 -57 -3 -57 -18 0 -7 -7 -19 -15
-26 -12 -10 -15 -9 -15 8 0 21 -18 32 -53 32 -16 0 -18 -3 -8 -9 18 -12 2 -19
-36 -16 -18 1 -33 -2 -33 -7 0 -4 11 -8 25 -8 32 0 32 -12 0 -27 -20 -9 -25
-8 -25 2 0 22 -22 29 -35 11 -8 -10 -19 -14 -29 -10 -12 5 -19 0 -23 -15 -4
-14 -9 -18 -17 -12 -13 10 -56 -4 -56 -18 0 -7 -9 -7 -25 -1 -18 7 -28 5 -40
-7 -9 -8 -18 -13 -21 -10 -3 2 2 12 11 21 19 18 12 21 -15 6 -12 -7 -17 -17
-13 -28 5 -14 3 -14 -9 2 -15 19 -15 19 -36 -2 -13 -13 -19 -29 -16 -44 l5
-23 -10 23 c-9 18 -16 21 -38 16 -38 -9 -43 -13 -43 -30 0 -9 -6 -14 -12 -11
-28 9 -77 -24 -164 -111 -62 -63 -104 -130 -104 -169 0 -11 -7 -26 -15 -33 -8
-7 -15 -24 -15 -38 0 -53 -34 -183 -49 -191 -9 -5 -37 -12 -63 -15 -41 -6 -49
-4 -60 13 -17 28 -23 27 -88 -13 -44 -27 -70 -35 -130 -40 -41 -4 -88 -11
-105 -16 -34 -11 -182 -54 -265 -77 -30 -8 -64 -19 -75 -24 -65 -27 -100 -39
-119 -39 -28 -1 -128 -45 -120 -53 4 -3 -7 -2 -24 2 -20 6 -32 6 -34 -1 -4
-10 -71 -37 -188 -75 -25 -8 -58 -20 -75 -28 -16 -7 -61 -23 -100 -35 -38 -13
-74 -26 -79 -31 -6 -5 -19 -9 -30 -9 -12 0 -43 -11 -71 -24 -198 -93 -254
-116 -283 -116 -13 0 -35 -6 -50 -14 -15 -7 -49 -19 -77 -25 -27 -7 -57 -18
-65 -25 -18 -15 -117 -56 -136 -56 -8 0 -44 -15 -82 -34 -37 -19 -76 -37 -87
-41 -16 -5 -17 -8 -5 -15 12 -7 12 -13 4 -27 -6 -10 -16 -18 -22 -18 -6 0 -14
-3 -18 -7 -4 -5 0 -8 9 -8 10 0 17 -4 17 -10 0 -5 -5 -10 -11 -10 -5 0 -7 -4
-4 -10 3 -5 -3 -10 -15 -10 -20 0 -21 -4 -18 -66 1 -36 6 -68 10 -70 5 -3 6
-15 2 -27 -3 -13 -1 -43 5 -67 7 -31 7 -48 -1 -57 -7 -9 -7 -17 0 -25 12 -16
26 -116 24 -181 0 -27 3 -45 9 -42 11 8 11 3 -1 -29 -5 -15 -6 -26 0 -26 5 0
8 -24 8 -52 0 -29 0 -82 1 -118 0 -36 0 -72 -1 -80 -1 -9 2 -29 6 -45 5 -22 4
-26 -4 -15 -8 13 -10 13 -10 -2 0 -9 4 -19 9 -23 5 -3 8 -41 6 -85 -2 -44 1
-83 6 -86 5 -3 6 -11 2 -17 -11 -16 -12 -217 -2 -244 6 -17 5 -23 -6 -23 -17
0 -17 0 -6 -57 5 -23 5 -41 1 -38 -3 2 -5 -17 -3 -43 1 -26 5 -150 7 -277 3
-126 6 -232 7 -235 1 -3 3 -18 5 -35 2 -16 5 -52 8 -80 7 -67 17 -118 26 -130
4 -5 11 -25 15 -42 3 -18 15 -39 25 -46 10 -7 26 -28 35 -47 18 -36 116 -125
213 -192 29 -21 55 -38 57 -38 2 0 19 -14 37 -31 18 -17 75 -51 126 -76 95
-46 98 -50 93 -110 -1 -13 3 -23 10 -23 9 0 8 -4 0 -14 -9 -10 -11 -43 -7
-108 3 -51 7 -121 7 -155 1 -40 5 -60 12 -56 6 4 7 -4 3 -22 -6 -24 -4 -27 11
-21 13 4 11 1 -4 -10 -28 -20 -33 -88 -8 -98 12 -4 13 -10 6 -24 -11 -20 -10
-40 2 -59 5 -7 5 -18 2 -23 -3 -6 1 -13 9 -16 14 -5 14 -8 0 -29 -9 -13 -13
-29 -9 -36 4 -6 1 -15 -6 -20 -10 -6 -11 -9 -1 -9 14 0 17 -46 3 -54 -12 -8
-8 -116 5 -141 6 -11 10 -39 9 -62 -1 -23 2 -40 7 -37 7 5 13 -19 9 -40 -1 -5
4 -13 11 -18 9 -6 6 -7 -8 -3 -20 5 -21 2 -22 -70 0 -41 4 -72 9 -69 5 3 9 0
9 -5 0 -6 -4 -11 -10 -11 -5 0 -10 -5 -10 -11 0 -5 4 -8 9 -4 14 8 21 -9 11
-25 -5 -9 -5 -19 1 -26 7 -9 7 -25 0 -49 -10 -37 -6 -65 9 -65 5 0 12 -9 15
-20 5 -15 13 -19 33 -16 25 5 26 4 8 -9 -10 -8 -16 -21 -13 -29 7 -17 -25 -40
-38 -28 -5 4 2 -8 15 -25 21 -29 22 -34 9 -50 -11 -13 -15 -38 -14 -83 2 -59
5 -66 35 -91 20 -17 29 -32 25 -39 -6 -9 -10 -8 -17 4 -9 17 -38 22 -38 7 0
-4 11 -20 25 -35 29 -31 32 -48 9 -44 -10 2 -19 -3 -21 -9 -3 -9 4 -11 26 -7
20 4 31 2 31 -5 0 -6 -5 -11 -10 -11 -6 0 -9 -3 -8 -7 0 -5 -7 -25 -16 -47
-16 -36 -16 -39 0 -57 9 -10 15 -19 11 -19 -3 0 -1 -16 5 -36 7 -28 7 -39 -4
-46 -10 -7 -9 -11 6 -23 14 -11 17 -22 13 -44 -6 -26 -3 -32 17 -37 14 -3 29
-18 37 -35 10 -26 9 -32 -6 -43 -12 -9 -15 -18 -9 -27 5 -8 7 -22 5 -32 -2
-14 3 -18 20 -15 17 2 23 -3 26 -21 3 -21 1 -22 -14 -10 -11 9 -14 10 -9 2 9
-16 -6 -17 -22 -1 -6 6 -15 9 -18 5 -10 -10 5 -39 16 -32 5 3 15 -5 22 -19 6
-14 17 -26 25 -26 7 0 13 -4 13 -10 0 -14 -23 -13 -38 2 -16 16 -34 -2 -22
-22 7 -11 10 -12 10 -2 0 9 10 6 29 -10 34 -26 40 -42 12 -33 -11 3 -24 -1
-32 -12 -12 -15 -12 -16 4 -10 11 4 17 2 17 -8 0 -8 -4 -15 -10 -15 -5 0 2
-11 15 -25 14 -13 25 -34 24 -47 l0 -23 -9 23 c-13 32 -20 27 -17 -13 1 -19 6
-35 10 -35 5 0 1 -7 -7 -16 -21 -20 -20 -28 0 -20 10 4 22 -1 30 -11 18 -24
17 -34 -2 -26 -12 4 -15 2 -12 -8 3 -8 12 -13 22 -11 19 3 21 -19 4 -36 -7 -7
-8 -12 -2 -12 6 0 15 5 22 12 18 18 24 4 12 -27 -6 -15 -16 -25 -23 -22 -8 3
-12 -8 -12 -36 0 -35 4 -41 23 -42 23 -2 51 -30 52 -52 0 -7 8 -17 18 -22 9
-6 12 -11 6 -11 -6 0 -23 12 -38 26 -18 19 -26 22 -26 12 0 -9 7 -21 15 -28 8
-7 12 -16 9 -21 -3 -5 2 -9 10 -9 19 0 20 -13 5 -41 -8 -15 -6 -27 9 -52 10
-18 17 -40 15 -49 -3 -11 1 -18 10 -18 9 0 18 -6 21 -12 3 -7 4 0 2 15 -2 17
1 26 8 24 6 -2 11 -26 11 -53 1 -47 23 -122 24 -81 1 9 5 17 10 17 14 0 25
-21 15 -29 -13 -9 -17 -61 -5 -61 6 0 11 5 11 12 0 9 3 9 13 -1 10 -10 8 -15
-6 -26 -17 -12 -17 -14 -2 -27 9 -7 24 -21 34 -31 20 -19 39 -8 25 15 -4 6 -3
8 4 4 6 -3 9 -26 7 -51 -2 -41 0 -45 26 -54 20 -7 29 -17 29 -32 0 -12 7 -27
15 -33 9 -6 17 -21 18 -34 0 -12 7 -22 15 -22 9 0 11 -7 7 -20 -4 -11 -3 -20
2 -19 28 5 36 -2 18 -15 -18 -13 -18 -14 3 -20 13 -4 22 -16 22 -27 0 -16 5
-19 20 -14 11 4 20 2 20 -4 0 -6 -5 -11 -11 -11 -5 0 -7 -5 -3 -12 5 -8 2 -9
-9 -5 -11 4 -17 1 -17 -7 0 -8 10 -12 26 -10 20 2 24 0 15 -9 -6 -6 -11 -14
-11 -18 0 -8 37 -21 65 -23 11 0 20 -5 20 -11 0 -5 -6 -9 -13 -7 -8 2 -12 -2
-9 -10 2 -7 10 -12 17 -10 7 1 18 -2 24 -8 7 -5 16 -7 19 -3 4 3 7 1 7 -5 0
-7 -4 -12 -10 -12 -5 0 -10 -5 -10 -10 0 -6 6 -10 13 -8 7 2 14 -1 16 -7 2 -5
17 -18 32 -27 16 -10 29 -25 29 -34 0 -11 6 -14 20 -9 23 7 26 -5 8 -24 -9 -8
-9 -11 -2 -9 13 4 69 -51 70 -69 3 -37 5 -43 14 -43 6 0 14 10 19 23 6 16 4
24 -8 29 -13 6 -12 7 4 5 13 -1 22 -14 28 -40 7 -27 14 -37 28 -37 10 0 19 -4
19 -10 0 -5 -7 -10 -15 -10 -19 0 -19 -16 0 -24 9 -3 15 0 15 9 0 21 9 18 31
-10 12 -15 26 -22 36 -18 12 5 14 1 8 -17 -5 -15 -4 -20 4 -16 18 11 40 -17
29 -37 -7 -14 -4 -17 17 -17 17 0 25 -5 25 -18 0 -10 9 -25 20 -35 21 -18 28
-9 8 11 -6 6 -9 15 -5 19 4 4 23 -10 41 -29 25 -26 40 -35 55 -31 12 3 21 1
21 -5 0 -5 9 -12 20 -15 12 -3 20 -14 20 -27 0 -19 1 -20 16 -6 8 9 20 16 25
16 17 0 23 -32 8 -41 -10 -6 -8 -9 10 -9 14 0 32 -7 42 -16 10 -9 32 -24 51
-33 18 -10 37 -28 43 -39 11 -25 38 -30 28 -6 -5 14 -3 15 16 5 12 -7 26 -23
31 -37 10 -25 30 -33 30 -12 0 9 3 9 12 0 7 -7 20 -12 30 -12 10 0 17 -5 16
-12 -2 -7 2 -12 7 -13 6 0 17 -5 25 -10 8 -5 24 -8 35 -6 17 3 17 1 5 -14 -13
-15 -10 -16 31 -11 46 7 62 1 72 -24 4 -12 6 -11 6 3 1 19 16 23 26 7 3 -5 15
-10 26 -10 10 0 19 -6 19 -14 0 -9 7 -12 19 -9 10 2 25 -3 34 -11 8 -9 22 -16
31 -16 8 0 18 -4 21 -10 3 -5 15 -10 25 -10 10 0 20 -5 22 -11 3 -9 10 -8 28
1 20 11 25 10 37 -6 7 -10 13 -13 13 -5 0 14 41 5 52 -12 4 -6 31 -12 60 -14
122 -7 160 -12 172 -22 7 -6 34 -10 62 -9 27 1 55 -1 61 -5 7 -4 74 -10 149
-13 76 -3 141 -7 144 -9 4 -2 38 -7 76 -11 95 -8 173 -15 209 -17 17 -2 36 -6
44 -11 8 -5 16 -4 21 4 5 9 9 9 14 1 4 -6 18 -11 31 -11 13 0 26 -6 29 -12 5
-10 7 -10 12 0 6 14 44 17 44 3 0 -5 9 -11 20 -14 13 -3 18 -1 13 5 -4 8 5 9
28 3 19 -4 51 -7 71 -6 20 1 39 -3 43 -9 3 -5 23 -10 43 -10 35 -1 36 -2 18
-15 -11 -8 -15 -15 -9 -15 6 0 23 10 38 21 l27 22 39 -21 c22 -12 41 -17 44
-11 7 11 88 12 99 2 4 -5 17 -9 29 -10 84 -9 107 -10 107 -2 0 5 9 9 21 9 11
0 18 -4 14 -9 -3 -6 19 -10 52 -10 32 0 78 -2 103 -4 25 -2 50 0 57 5 7 6 14
2 18 -12 6 -17 9 -19 22 -9 8 7 43 14 78 15 34 0 67 4 73 8 6 4 24 1 39 -7 15
-8 34 -12 41 -10 6 3 12 -1 12 -9 0 -10 2 -10 8 -1 5 8 17 10 37 5 16 -5 48
-5 72 -2 33 5 43 4 43 -7 0 -10 5 -11 18 -5 9 5 40 7 67 5 133 -11 135 -11
135 4 0 8 6 13 13 10 6 -2 11 -9 10 -15 -2 -6 4 -9 12 -6 8 4 15 11 15 16 0 6
12 2 27 -7 18 -12 28 -14 31 -7 5 16 72 15 72 0 0 -9 2 -10 8 -2 4 6 16 8 27
4 11 -4 35 -3 54 1 27 6 38 3 55 -12 17 -16 22 -17 24 -6 3 15 63 30 72 18 8
-10 143 -11 154 -2 13 10 116 12 116 2 0 -3 14 -6 30 -7 17 -1 30 2 30 6 0 11
60 18 66 8 10 -15 23 -8 17 10 -6 15 -4 15 15 -2 12 -10 28 -16 37 -13 19 8
47 -2 39 -14 -10 -17 22 -9 43 10 23 22 35 18 26 -7 -3 -11 -2 -13 4 -6 13 17
36 22 57 12 13 -7 21 -6 27 3 6 10 9 11 9 2 0 -7 6 -13 14 -13 8 0 17 -6 19
-12 4 -10 8 -10 15 1 8 11 34 15 99 16 99 1 145 -9 136 -31 -7 -20 24 -18 35
3 8 14 19 15 73 8 35 -4 81 -8 102 -7 20 1 37 -2 37 -7 0 -4 33 -8 73 -8 39 0
93 -4 118 -8 31 -4 49 -3 53 4 5 8 13 8 28 0 11 -6 31 -8 44 -5 13 4 24 3 24
-1 0 -5 23 -8 50 -9 28 0 50 2 50 6 0 10 157 3 177 -9 13 -7 23 -5 35 6 11 10
22 12 35 5 39 -20 82 -22 92 -4 8 14 13 15 31 4 18 -11 22 -10 30 10 7 18 9
19 9 6 1 -19 21 -26 21 -7 0 6 9 4 22 -5 16 -11 25 -13 35 -5 9 8 14 7 19 -4
4 -12 12 -14 28 -7 13 5 29 4 40 -2 14 -8 21 -7 28 6 5 9 14 16 19 16 6 0 7
-4 4 -10 -9 -14 4 -13 75 11 34 11 69 18 77 15 22 -9 36 3 22 20 -9 11 -8 14
5 14 9 0 16 -5 16 -11 0 -8 58 -39 75 -39 3 0 5 14 5 30 0 20 5 30 15 30 8 0
15 -4 15 -10 0 -5 -5 -10 -12 -10 -9 0 -8 -3 1 -12 10 -10 15 -10 18 -2 2 7
13 10 24 7 15 -4 17 -8 8 -19 -9 -11 -8 -14 5 -14 9 0 16 4 16 9 0 6 21 11 48
13 34 2 46 7 44 17 -3 12 -1 12 13 1 9 -7 14 -19 11 -27 -8 -21 14 -15 35 10
10 12 18 16 19 10 0 -19 20 -16 20 2 0 9 -7 18 -15 21 -8 4 -15 12 -15 20 0
26 19 14 36 -22 14 -29 19 -33 26 -20 5 9 6 21 3 26 -3 6 -2 10 3 10 5 0 12
-8 15 -19 5 -22 51 -33 86 -20 17 7 27 6 33 -3 8 -10 11 -10 15 0 7 18 31 15
50 -7 9 -11 21 -17 26 -14 5 3 3 10 -4 15 -10 7 -6 8 11 3 14 -3 32 -6 40 -6
8 1 23 1 33 2 9 0 17 5 17 10 0 6 8 6 20 -1 18 -9 20 -8 20 15 0 16 4 24 11
19 6 -3 9 -17 6 -30 -3 -18 0 -24 13 -24 13 0 17 6 13 20 -6 23 12 27 24 6 10
-16 53 -31 53 -18 0 5 10 12 22 16 18 4 20 8 10 18 -15 15 -16 28 -2 28 6 0
10 -6 10 -14 0 -19 25 -27 39 -13 8 8 11 3 11 -21 0 -35 10 -40 34 -17 19 19
36 19 36 0 0 -8 7 -15 15 -15 8 0 15 8 15 17 0 14 3 13 16 -6 l16 -22 19 20
c23 25 33 27 25 6 -4 -10 1 -15 14 -15 11 0 20 5 20 10 0 6 5 10 11 10 5 0 8
-4 4 -9 -8 -14 15 -25 28 -12 8 8 16 6 29 -6 10 -9 18 -11 18 -6 0 6 19 9 46
8 36 -3 44 0 40 10 -7 19 11 29 21 12 11 -19 51 -39 63 -32 6 3 10 13 10 21 0
8 5 12 11 9 6 -4 8 -13 5 -21 -3 -9 2 -14 14 -14 11 0 20 6 20 14 0 24 13 25
54 5 22 -10 42 -16 45 -12 3 5 23 9 44 9 26 1 37 -3 37 -13 0 -12 8 -14 38 -8
20 3 41 10 46 15 5 5 17 5 28 -1 12 -7 25 -6 39 1 11 7 28 8 37 4 20 -8 53 -6
65 5 4 5 31 3 59 -2 34 -7 56 -7 67 0 9 6 31 8 49 5 18 -2 39 1 47 8 16 14 35
5 35 -16 0 -8 5 -14 10 -14 6 0 10 4 10 9 0 13 38 23 107 26 34 2 67 6 73 10
6 4 17 2 25 -5 9 -7 40 -9 89 -6 67 5 75 4 69 -11 -4 -11 -3 -14 5 -9 7 4 12
13 12 20 0 8 11 21 25 30 14 9 25 12 25 6 0 -5 -4 -10 -9 -10 -5 0 -12 -7 -15
-16 -5 -14 -4 -15 9 -4 13 11 18 10 30 -7 15 -21 55 -22 55 -2 0 15 22 10 42
-8 14 -12 18 -13 16 -4 -4 19 53 35 65 18 6 -8 7 -6 3 5 -7 25 12 33 33 14 23
-21 37 -20 63 4 29 27 35 25 43 -11 6 -28 8 -29 24 -15 20 18 51 21 51 6 0
-14 27 -13 32 1 5 14 85 21 93 9 3 -5 12 -7 19 -4 8 3 17 0 21 -6 5 -8 11 -8
22 1 11 10 16 10 22 0 7 -11 13 -11 32 0 13 7 30 12 37 11 6 -2 12 4 12 13 0
9 5 13 11 10 6 -4 8 -13 5 -20 -4 -11 10 -13 60 -12 45 1 67 -2 73 -12 7 -11
9 -11 13 0 4 12 7 12 21 1 10 -8 25 -11 38 -7 14 5 25 2 30 -6 6 -11 11 -11
21 -1 6 6 19 12 28 12 8 0 27 6 42 14 19 10 28 11 31 3 3 -9 10 -9 28 -1 34
15 109 6 102 -12 -3 -8 0 -14 6 -14 6 0 11 7 11 15 0 20 26 19 34 -2 5 -12 9
-14 18 -5 17 17 29 15 26 -5 -2 -10 5 -19 15 -21 15 -3 18 0 12 17 -8 26 19
30 29 4 6 -14 8 -14 20 3 14 18 15 18 33 1 22 -19 49 -22 58 -7 4 6 15 8 26 5
13 -5 19 -2 17 7 -2 8 8 14 23 16 20 2 28 -2 32 -18 3 -12 10 -19 15 -16 6 3
8 14 5 24 -2 10 3 24 11 31 13 11 16 11 16 -3 0 -9 -5 -16 -11 -16 -5 0 -7 -5
-3 -11 3 -6 17 -8 30 -5 16 4 24 2 24 -6 0 -8 6 -6 18 5 15 15 15 19 2 27 -8
5 -11 12 -7 17 5 4 12 1 16 -6 5 -7 13 -11 19 -7 6 3 13 2 17 -4 3 -5 15 -10
26 -10 10 0 19 -4 19 -10 0 -5 7 -10 15 -10 18 0 19 12 3 28 -22 22 2 26 25 4
15 -14 27 -18 36 -12 10 5 20 1 31 -13 l17 -21 8 25 c13 41 45 53 46 17 0 -15
3 -18 6 -8 3 8 10 19 16 25 11 12 98 7 112 -6 6 -6 -6 -8 -34 -4 -37 4 -42 3
-32 -9 6 -8 26 -16 43 -18 24 -4 32 -1 36 14 7 29 31 21 40 -14 8 -33 9 -33
21 -10 6 12 16 20 20 17 5 -3 12 2 15 11 3 8 10 12 16 9 16 -10 12 -22 -10
-28 -11 -3 -20 -13 -20 -24 0 -11 3 -14 8 -7 11 16 69 25 97 14 19 -7 26 -6
34 7 7 14 12 15 24 5 12 -10 19 -7 40 18 25 30 26 30 44 11 31 -32 57 -34 87
-6 16 15 43 27 69 30 23 3 51 8 62 11 16 5 18 4 8 -7 -10 -10 -9 -16 4 -31 19
-21 33 -23 33 -4 0 7 11 21 25 30 20 13 25 14 25 3 0 -12 27 -15 79 -8 3 1 -4
7 -15 15 -23 17 -14 31 13 18 10 -5 32 -16 50 -24 17 -9 35 -12 40 -8 15 14
63 21 63 9 0 -6 9 -9 19 -6 20 5 31 -9 24 -30 -7 -20 -31 -15 -43 7 -6 11 -15
20 -21 20 -5 0 -1 -10 11 -22 11 -12 20 -28 20 -35 0 -8 5 -11 10 -8 6 4 18 1
26 -6 8 -6 16 -10 18 -8 3 3 15 69 16 92 0 4 7 7 15 7 13 0 14 -4 5 -20 -7
-13 -7 -26 -2 -36 7 -13 10 -11 15 12 5 24 11 29 37 31 27 2 30 0 24 -19 -4
-14 -2 -18 5 -14 6 4 11 16 11 27 0 10 5 19 10 19 6 0 10 -9 10 -20 0 -11 7
-20 16 -20 8 0 12 5 9 10 -3 6 3 10 14 10 12 0 21 8 23 22 4 30 23 33 36 6
l11 -23 7 22 c7 25 24 29 42 11 9 -9 16 -6 31 11 l19 22 21 -26 c21 -28 45
-26 34 2 -5 13 -1 15 22 10 16 -3 40 -1 53 4 16 6 29 6 37 -1 10 -8 16 -7 23
7 6 10 23 19 39 20 15 1 42 4 58 7 17 2 33 5 38 5 4 1 7 6 7 12 0 6 -9 8 -20
4 -11 -3 -20 -2 -20 4 0 13 33 23 54 15 10 -4 16 -1 16 7 0 11 2 11 9 0 7 -10
5 -19 -6 -26 -9 -7 -13 -17 -9 -23 8 -13 38 13 50 43 4 11 10 15 14 10 6 -9
16 -10 47 -6 6 1 -1 10 -15 21 l-25 20 37 0 c20 0 40 -5 44 -11 4 -8 9 -7 15
2 5 8 21 13 39 11 22 -3 30 1 30 12 0 9 7 16 16 16 21 0 44 25 53 57 4 15 13
29 20 31 9 3 11 -2 6 -17 -7 -22 10 -30 18 -8 3 6 10 -1 17 -18 10 -27 13 -29
24 -12 7 9 24 17 37 17 13 0 33 7 43 15 18 13 15 20 -6 16 -17 -2 -6 15 14 24
13 6 28 21 35 35 7 14 13 20 13 14 0 -7 15 -12 35 -12 28 0 35 4 35 19 0 12 5
16 15 13 9 -4 15 0 15 10 0 9 7 16 15 16 8 0 15 4 15 8 0 8 63 33 95 38 6 1
12 3 15 4 5 2 46 9 68 12 6 1 11 8 10 16 -2 8 4 16 13 17 9 2 34 15 57 29 23
14 51 26 61 26 11 0 32 12 46 27 14 15 25 23 25 16 0 -17 77 28 90 52 6 12 23
22 37 23 15 1 30 8 34 14 5 7 11 9 15 5 4 -4 18 0 31 8 13 9 28 13 34 9 8 -4
9 1 4 16 -6 18 -4 22 8 17 10 -4 29 9 54 38 21 25 44 45 52 45 8 0 29 11 47
25 18 14 37 25 43 25 14 0 111 93 111 106 0 6 18 18 40 28 25 11 40 24 40 35
0 23 28 53 62 68 15 7 34 24 44 38 9 14 23 25 30 25 8 0 17 14 21 30 3 17 11
30 17 30 6 0 20 14 30 30 9 17 28 38 42 46 13 9 24 22 24 29 0 7 16 29 35 49
19 20 31 36 27 36 -4 0 1 5 10 11 10 5 15 16 12 24 -4 8 -1 15 5 15 6 0 11 6
11 13 0 7 11 24 25 39 14 15 25 33 25 40 0 7 12 27 26 43 24 27 57 88 58 108
1 4 6 11 11 15 13 9 65 113 65 130 0 6 5 12 11 12 6 0 8 9 4 20 -4 13 -1 22 8
26 8 3 20 24 27 47 8 23 20 50 29 60 12 15 13 20 2 26 -11 7 -11 10 1 17 20
12 36 57 47 133 6 36 15 69 20 74 5 5 7 16 4 23 -3 8 -1 14 4 14 5 0 9 8 10
18 1 9 6 44 12 77 6 33 14 78 17 100 3 22 13 55 21 73 8 18 12 40 9 47 -3 8
-1 17 3 19 4 3 11 37 14 77 3 39 13 82 22 95 17 26 20 59 5 49 -5 -3 -10 -2
-10 4 0 5 4 12 9 15 4 3 11 29 14 57 4 28 10 56 15 63 5 6 15 52 22 101 7 50
15 95 18 100 4 6 8 28 9 50 2 22 8 55 14 73 6 19 13 50 15 70 9 99 16 149 23
167 15 34 32 151 46 320 3 28 7 64 9 80 13 79 24 190 20 196 -2 3 1 20 6 38 5
17 11 79 15 138 3 59 10 112 16 119 5 6 9 63 8 125 -1 63 3 132 9 154 6 22 9
56 7 75 -1 19 2 40 7 47 5 6 12 67 15 135 3 68 9 128 14 134 5 6 5 25 -1 44
-6 21 -6 39 1 51 5 10 7 29 3 43 -7 28 5 38 55 42 66 6 91 68 50 125 -14 20
-29 29 -48 29 -47 0 -66 22 -67 79 0 28 -3 54 -7 57 -4 4 -4 17 -1 29 3 13 1
26 -5 29 -5 4 -8 12 -5 20 3 7 -1 26 -7 42 -7 16 -13 44 -15 62 -2 19 -8 39
-13 46 -6 7 -8 15 -5 19 7 7 -11 65 -39 125 -11 24 -20 51 -21 60 -2 17 -39
102 -57 132 -5 8 -12 22 -15 30 -3 8 -10 22 -15 30 -5 8 -16 29 -24 45 -18 35
-29 54 -67 108 -16 22 -28 45 -28 52 0 6 -11 22 -25 35 -14 13 -25 28 -25 33
0 8 -26 41 -91 113 -10 12 -19 26 -19 32 0 5 -16 22 -35 36 -19 15 -35 36 -35
47 0 10 -7 19 -15 19 -8 0 -15 5 -15 10 0 6 -6 10 -12 10 -7 0 -26 15 -43 33
-16 18 -43 41 -58 51 -29 18 -44 30 -91 72 -15 13 -30 24 -34 24 -4 1 -23 14
-42 30 -19 17 -40 30 -47 30 -7 0 -13 3 -13 8 0 4 -21 21 -45 37 -25 17 -45
33 -45 38 0 4 -9 7 -20 7 -11 0 -20 3 -20 8 0 4 -14 13 -30 21 -33 14 -35 34
-6 39 12 3 16 -2 14 -14 -2 -12 4 -20 17 -22 11 -3 31 -12 45 -22 14 -9 30
-15 36 -13 6 2 17 -3 24 -12 7 -8 21 -15 31 -15 11 0 19 -4 19 -10 0 -5 8 -10
17 -10 10 0 26 -11 38 -25 11 -14 32 -26 47 -27 15 -1 25 -4 22 -7 -5 -6 47
-61 58 -61 22 0 117 97 133 135 4 11 7 24 6 29 -1 5 6 17 16 28 21 23 42 100
49 178 3 30 12 68 19 83 10 19 12 42 7 70 -4 23 -5 78 -2 122 3 44 2 81 -1 83
-4 2 -5 12 -2 23 8 30 -17 239 -34 284 -8 22 -16 52 -18 66 -1 14 -8 36 -15
48 -6 12 -13 32 -15 43 -6 27 -33 68 -46 68 -6 0 -8 9 -4 20 4 14 -5 30 -36
60 -50 48 -78 57 -184 58 -44 1 -101 1 -126 1 -29 1 -53 8 -66 19 -44 37 -201
97 -232 87 -10 -3 -24 1 -31 10 -7 8 -17 15 -23 15 -6 0 -45 13 -86 29 -116
44 -168 59 -264 76 -48 8 -96 19 -107 25 -10 5 -32 10 -49 10 -16 0 -60 6 -98
14 -37 8 -135 26 -218 41 -82 14 -157 28 -165 32 -19 8 -18 8 -60 16 -19 5
-73 16 -120 27 -86 19 -215 44 -434 84 l-120 21 -3 135 c-4 165 -20 295 -39
311 -8 6 -14 21 -14 34 0 60 -220 293 -278 294 -13 1 -21 5 -17 10 3 5 -7 18
-22 29 -42 28 -65 34 -76 20 -6 -9 -7 -8 -3 4 4 13 -6 24 -38 43 -23 14 -50
25 -59 25 -8 0 -17 3 -19 8 -4 9 -74 42 -113 53 -16 4 -61 17 -100 28 -76 22
-142 28 -115 11 13 -8 13 -10 -1 -10 -9 0 -19 3 -23 7 -13 13 -101 32 -104 22
-2 -5 -10 -9 -18 -9 -8 0 -11 6 -8 15 4 8 1 15 -5 15 -6 0 -10 -6 -8 -12 1 -7
-10 -14 -25 -16 -19 -2 -25 -8 -21 -18 3 -8 0 -14 -6 -14 -6 0 -11 3 -11 8 0
15 -42 34 -52 24 -6 -6 -16 -8 -23 -6 -7 3 -16 1 -19 -5 -4 -6 -14 -7 -22 -4
-9 3 -19 1 -23 -6 -6 -9 -10 -9 -19 2 -8 10 -8 20 3 40 l14 27 -94 0 c-73 0
-94 -3 -99 -15 -4 -10 1 -15 14 -15 11 0 20 -4 20 -10 0 -14 -12 -12 -38 6
-18 13 -21 19 -11 30 9 11 8 14 -4 14 -9 0 -18 -12 -22 -30 -8 -35 -40 -58
-49 -35 -3 8 -12 12 -21 9 -10 -4 -15 0 -15 10 0 9 -7 16 -15 16 -9 0 -12 -6
-9 -15 8 -21 -3 -19 -34 5 -17 14 -29 17 -36 10 -13 -13 -29 -13 -21 0 4 7 -8
8 -37 4 -40 -6 -71 -27 -81 -57 -3 -9 -7 -9 -19 0 -10 9 -18 9 -25 2 -8 -8
-13 -8 -17 0 -4 6 -3 11 3 11 6 0 15 8 20 18 9 17 5 19 -64 19 -60 1 -77 -2
-91 -18 -21 -23 -34 -24 -34 -4 0 11 -12 15 -46 15 -37 0 -47 -4 -51 -20 -6
-24 -19 -25 -40 -5 -10 11 -25 14 -48 9 -18 -3 -75 -11 -126 -18 -64 -8 -93
-15 -91 -24 1 -6 -7 -12 -18 -12 -11 0 -20 5 -20 10 0 13 -37 13 -45 0 -4 -6
-10 -8 -15 -5 -4 3 -50 0 -102 -5 -196 -21 -330 -35 -488 -50 -100 -9 -203
-20 -315 -34 -16 -2 -115 -16 -220 -30 -256 -35 -406 -43 -422 -24 -7 8 -26
66 -42 129 -16 63 -37 128 -45 144 -9 17 -16 34 -16 39 0 5 -29 52 -63 105
-35 53 -82 128 -105 166 -46 81 -146 193 -200 227 -20 12 -44 28 -52 35 -192
157 -275 203 -362 203 -29 -1 -71 -8 -93 -16z m3732 -827 c10 -9 2 -12 -32
-13 -25 0 -45 3 -45 8 0 4 8 8 18 8 15 0 15 2 2 11 -11 8 -8 9 15 4 17 -3 35
-12 42 -18z m40 17 c-3 -3 -12 -4 -19 -1 -8 3 -5 6 6 6 11 1 17 -2 13 -5z
m-647 -29 c8 -9 9 -15 2 -15 -6 0 -14 5 -18 11 -5 8 -9 8 -14 -1 -5 -7 -13 -9
-21 -5 -9 6 -8 10 7 16 28 11 30 11 44 -6z m-103 -21 c1 -5 -2 -16 -7 -24 -9
-13 -11 -13 -19 -1 -5 8 -7 20 -4 28 6 15 25 13 30 -3z m316 -4 c3 -11 1 -20
-4 -20 -4 0 -13 9 -19 20 -8 16 -8 20 3 20 8 0 17 -9 20 -20z m-163 0 c0 -5
-4 -10 -10 -10 -5 0 -10 5 -10 10 0 6 5 10 10 10 6 0 10 -4 10 -10z m120 0 c0
-5 -8 -10 -17 -10 -15 0 -16 2 -3 10 19 12 20 12 20 0z m700 0 c0 -5 -4 -10
-10 -10 -5 0 -10 5 -10 10 0 6 5 10 10 10 6 0 10 -4 10 -10z m-895 -11 c11
-17 2 -18 -19 -3 -17 12 -17 14 -4 14 9 0 20 -5 23 -11z m285 1 c0 -5 -4 -10
-10 -10 -5 0 -10 5 -10 10 0 6 5 10 10 10 6 0 10 -4 10 -10z m-600 -34 c0 -3
-4 -8 -10 -11 -5 -3 -10 -1 -10 4 0 6 5 11 10 11 6 0 10 -2 10 -4z m-8857
-181 c-3 -9 -8 -14 -10 -11 -3 3 -2 9 2 15 9 16 15 13 8 -4z m97 -15 c0 -13
-11 -13 -30 0 -12 8 -11 10 8 10 12 0 22 -4 22 -10z m1229 -13 c6 -8 8 -17 4
-20 -12 -13 -32 -7 -43 13 -9 17 -8 20 8 20 11 0 25 -6 31 -13z m81 -2 c-7 -9
-15 -13 -19 -10 -3 3 1 10 9 15 21 14 24 12 10 -5z m-33 -30 c8 -22 -6 -33
-17 -15 -13 20 -12 30 0 30 6 0 13 -7 17 -15z m222 -1 c2 -2 2 -6 0 -9 -8 -7
-49 7 -49 17 0 8 38 2 49 -8z m8954 -426 c15 -6 27 -14 27 -19 0 -5 7 -6 16
-2 10 4 20 -1 26 -11 8 -13 13 -15 24 -5 11 9 22 7 49 -10 20 -12 43 -21 51
-21 7 0 36 -16 63 -35 26 -19 53 -35 58 -35 5 0 48 -31 96 -70 47 -38 90 -70
95 -70 5 0 17 -9 27 -20 10 -11 73 -53 139 -92 152 -90 290 -181 311 -203 6
-6 32 -27 58 -46 27 -19 73 -54 103 -77 60 -48 99 -58 229 -56 335 3 785 17
823 24 26 4 51 5 57 2 5 -4 39 -7 75 -8 l64 0 1 -52 0 -51 -23 26 c-17 20 -25
24 -34 15 -8 -8 -8 -15 2 -27 7 -8 8 -15 3 -15 -5 0 -16 11 -23 25 -7 13 -17
22 -21 19 -4 -2 -10 0 -14 6 -4 7 -13 6 -27 -1 -15 -8 -19 -8 -14 0 4 6 -9 4
-29 -6 -33 -16 -38 -16 -63 -1 -20 11 -51 15 -115 14 -48 0 -87 3 -87 7 0 5
-8 6 -18 3 -34 -11 -122 -14 -128 -5 -3 5 -11 6 -17 2 -13 -8 -563 -6 -619 2
-22 4 -38 2 -38 -4 0 -13 16 -23 70 -42 25 -8 45 -21 45 -29 0 -7 7 -14 16
-16 10 -1 26 -10 37 -20 58 -56 81 -74 91 -74 7 0 14 -7 17 -15 4 -8 13 -15
21 -15 7 0 34 -21 58 -46 30 -32 49 -45 60 -40 9 3 13 2 10 -4 -3 -5 6 -12 20
-16 15 -4 25 -13 25 -24 0 -22 17 -35 22 -19 2 7 17 -2 33 -19 16 -17 33 -28
38 -25 4 3 11 -4 14 -16 3 -12 13 -21 24 -21 11 0 19 -7 19 -15 0 -9 8 -19 17
-22 26 -10 53 -36 47 -45 -3 -4 6 -8 20 -8 30 0 35 -16 9 -24 -10 -3 -6 -4 10
-2 24 3 27 0 21 -17 -5 -17 -3 -19 15 -14 11 3 21 1 21 -4 0 -5 -7 -9 -16 -9
-8 0 -12 -4 -9 -10 3 -5 17 -10 31 -10 15 0 24 -6 24 -15 0 -8 7 -15 15 -15 8
0 15 5 15 12 0 23 13 -3 14 -28 1 -22 14 -35 71 -71 39 -24 77 -46 85 -50 8
-4 29 -17 46 -30 17 -13 36 -23 42 -23 7 0 12 -7 12 -16 0 -11 6 -15 20 -11
24 6 26 -6 3 -24 -13 -11 -17 -11 -20 -1 -3 6 -9 10 -14 7 -4 -3 -32 5 -61 18
-29 13 -73 30 -98 36 -25 7 -59 19 -76 26 -29 14 -164 49 -304 79 -101 23
-266 41 -455 51 -49 3 -166 13 -260 22 -93 9 -197 17 -230 18 -33 1 -82 5
-109 9 -28 4 -93 9 -145 11 -53 2 -123 6 -156 9 -33 3 -118 8 -190 11 -152 7
-294 13 -420 20 -75 4 -158 6 -235 5 -8 0 -31 2 -50 5 -19 2 -89 6 -155 9 -66
3 -160 8 -210 10 -49 3 -151 8 -225 11 -74 4 -164 8 -200 10 -133 9 -337 17
-397 15 -33 -1 -64 3 -67 9 -4 6 -15 7 -28 2 -12 -4 -40 -4 -62 1 -22 5 -45 7
-53 4 -7 -3 -24 -1 -37 5 -16 8 -30 8 -42 1 -11 -6 -29 -6 -48 -1 -29 9 -185
17 -368 20 -43 0 -80 5 -83 9 -3 5 -13 6 -22 3 -11 -4 -14 -3 -9 5 4 7 3 12
-2 12 -6 0 -13 -7 -16 -16 -8 -20 -62 -15 -58 5 2 10 -4 12 -20 8 -12 -4 -28
-1 -35 5 -9 7 -13 7 -13 -1 0 -15 -137 -15 -142 0 -2 7 -12 7 -31 0 -43 -17
-74 -14 -80 8 -2 10 -1 25 4 32 8 13 13 6 10 -13 -1 -10 57 -21 69 -13 6 3 8
11 4 16 -3 5 -10 6 -16 3 -9 -6 -27 12 -28 26 0 11 104 9 118 -2 10 -9 16 -8
22 2 5 8 12 11 16 8 3 -4 -1 -14 -10 -24 -13 -12 -20 -13 -31 -4 -15 13 -55 5
-55 -11 0 -5 9 -13 21 -17 24 -9 81 -3 74 8 -2 4 7 12 20 18 14 7 25 16 25 22
0 7 155 8 493 5 270 -4 497 -6 502 -7 6 0 26 1 45 1 38 2 499 -7 700 -13 165
-6 595 -24 595 -26 0 0 52 -3 115 -5 63 -3 153 -7 200 -10 191 -13 320 -19
605 -30 83 -3 166 -9 185 -13 19 -4 51 -5 70 -2 19 3 47 3 61 -1 15 -4 32 -3
40 2 8 4 19 3 26 -2 7 -7 36 -8 68 -5 38 4 54 2 49 -5 -4 -7 4 -9 22 -7 21 2
28 8 26 21 -2 9 2 17 8 17 5 0 10 -7 10 -15 0 -12 7 -14 26 -9 18 5 25 3 21
-3 -9 -15 39 -26 75 -18 21 5 26 10 19 19 -6 7 -8 23 -5 37 4 21 2 20 -10 -5
l-14 -30 -7 32 c-7 34 -25 44 -25 15 0 -13 -9 -19 -30 -20 -17 -1 -30 1 -30 6
0 13 36 42 43 34 4 -3 7 -1 7 5 0 15 -6 15 -31 2 -22 -12 -27 8 -7 28 7 7 8
12 2 12 -17 0 -34 -23 -34 -47 0 -20 -2 -22 -14 -11 -9 9 -11 19 -5 30 12 23
11 28 -6 28 -8 0 -15 -4 -15 -10 0 -5 -5 -10 -11 -10 -5 0 -7 5 -4 11 4 6 -1
16 -11 24 -14 10 -21 10 -26 2 -5 -7 -8 0 -8 16 0 17 -5 27 -15 27 -8 0 -15
-4 -15 -10 0 -5 -7 -10 -15 -10 -10 0 -15 10 -15 30 0 17 -4 30 -10 30 -5 0
-10 -7 -10 -15 0 -8 -4 -15 -10 -15 -5 0 -10 14 -10 31 0 28 -3 31 -25 27 -29
-6 -33 6 -7 21 14 9 15 12 3 20 -9 6 -21 5 -33 -2 -14 -9 -20 -9 -27 1 -6 10
-15 9 -45 -3 -20 -9 -41 -13 -47 -10 -16 10 0 23 21 18 12 -3 20 0 20 7 0 7
-13 10 -36 8 -32 -2 -37 1 -49 30 -9 21 -21 32 -35 32 -11 0 -20 -4 -20 -9 0
-5 -9 -7 -19 -4 -21 5 -35 29 -25 44 12 20 -14 8 -28 -12 -22 -34 -41 -21 -23
15 8 15 15 30 15 32 0 10 -23 3 -37 -11 -22 -23 -29 -10 -9 19 9 14 12 27 7
31 -6 3 -14 -2 -19 -10 -7 -13 -14 -14 -36 -5 -27 10 -28 30 0 30 8 0 14 2 14
4 0 2 3 12 7 21 5 15 3 16 -18 5 -14 -8 -24 -9 -26 -3 -2 6 -10 19 -18 29 -14
18 -15 18 -21 -4 -6 -22 -7 -22 -26 -5 -20 18 -20 18 -47 -26 -6 -10 -13 -11
-29 -2 -11 6 -30 11 -40 11 -16 0 -20 -7 -20 -36 0 -20 -6 -41 -12 -47 -10 -9
-11 -8 -6 7 8 23 -2 58 -15 50 -5 -3 -7 -10 -4 -15 4 -5 -3 -9 -14 -9 -25 0
-26 6 -5 28 15 14 15 16 -4 23 -11 4 -26 18 -33 30 -10 19 -9 21 5 16 11 -5
16 -1 16 12 0 25 -22 32 -37 12 -11 -14 -12 -13 -13 7 0 12 -4 22 -10 22 -13
0 -13 -6 6 -41 15 -29 11 -57 -4 -32 -8 13 -82 6 -82 -7 0 -5 -9 -6 -20 -3
l-21 6 21 14 c11 8 20 23 20 35 0 14 5 18 15 15 20 -8 28 8 11 22 -10 9 -16 9
-21 1 -5 -7 -21 -9 -46 -5 -25 4 -39 3 -39 -4 0 -6 9 -11 19 -11 20 0 35 -25
25 -41 -3 -5 -16 -9 -29 -9 -23 0 -25 7 -26 93 0 10 -8 17 -20 17 -13 0 -18
-4 -13 -12 12 -18 22 -88 13 -88 -14 0 -39 31 -53 65 -11 25 -19 32 -37 30
-35 -4 -37 -6 -9 -14 l25 -7 -22 -12 c-19 -11 -23 -10 -23 3 0 8 -4 15 -10 15
-5 0 -7 7 -4 15 4 9 0 15 -10 15 -9 0 -17 -8 -17 -17 -1 -17 -2 -17 -6 0 -5
20 -19 23 -26 5 -2 -7 -8 -9 -13 -5 -5 4 -2 12 5 16 10 6 11 14 3 27 -7 12 -6
23 1 35 13 21 4 34 -17 26 -10 -4 -14 -17 -11 -42 2 -20 1 -34 -3 -31 -3 3
-11 1 -19 -5 -10 -9 -14 -5 -19 21 -4 20 -16 36 -30 42 -13 6 -24 15 -24 20 0
5 4 7 9 3 5 -3 12 -1 16 5 4 6 -6 10 -22 10 -40 0 -78 27 -63 45 7 8 9 19 5
25 -3 5 -1 10 4 10 6 0 11 5 11 12 0 6 -9 3 -20 -7 -11 -10 -20 -23 -20 -29 0
-7 -8 -19 -18 -27 -17 -15 -19 -14 -19 12 0 18 5 25 14 22 7 -3 13 0 13 6 0 6
-8 11 -17 11 -17 1 -17 1 -1 14 20 14 14 26 -13 26 -13 0 -17 7 -14 28 2 21 7
26 24 25 11 -2 21 1 21 6 0 6 -12 11 -27 13 -33 4 -42 26 -11 27 37 1 58 4 58
9 0 3 -8 11 -17 19 -10 8 -13 12 -8 9 6 -2 17 -1 25 4 8 5 19 3 27 -6 16 -16
33 -10 33 12 0 16 16 19 25 4 3 -5 1 -10 -5 -10 -6 0 -9 -4 -6 -9 3 -5 15 -7
26 -4 12 3 20 0 20 -8 0 -7 3 -10 6 -7 3 3 -1 16 -8 28 -10 17 -10 24 -1 27 8
3 7 11 -3 31 -20 38 -18 45 11 39 20 -3 32 3 55 32 17 20 28 42 25 52 -10 32
45 46 98 24 12 -5 17 -3 17 9 0 19 52 35 58 18 7 -21 24 -13 19 9 -5 19 -3 20
31 15 20 -4 49 -12 65 -18z m-303 -69 c0 -4 -7 -6 -15 -3 -8 4 -15 10 -15 15
0 4 7 6 15 3 8 -4 15 -10 15 -15z m-10207 -45 c-1 -16 1 -21 3 -11 6 19 20 22
30 6 3 -6 17 -9 30 -6 13 2 21 1 19 -3 -2 -4 7 -18 20 -30 20 -18 28 -21 37
-12 9 9 9 12 -1 12 -7 0 -10 4 -6 9 8 13 62 -6 69 -25 4 -10 13 -13 31 -8 20
5 26 1 35 -20 5 -14 16 -26 24 -26 19 0 27 -25 13 -41 -7 -7 0 -5 15 4 15 9
33 14 41 11 8 -3 17 2 20 10 7 16 35 12 50 -8 6 -8 10 -7 14 2 2 6 9 12 14 12
5 0 -2 -19 -15 -42 -21 -39 -28 -43 -66 -46 -27 -2 -40 -7 -37 -15 3 -7 10
-11 17 -9 8 2 11 -4 7 -17 -3 -12 2 -26 10 -33 14 -11 15 -10 9 8 -4 15 -2 24
9 28 11 4 15 -1 15 -17 1 -21 1 -22 12 -2 7 11 18 26 26 34 13 13 16 13 26 -1
8 -11 21 -14 39 -11 19 4 29 1 33 -11 3 -9 13 -16 21 -16 13 0 13 -3 3 -15
-18 -22 -6 -29 14 -9 10 9 15 23 11 31 -4 11 -1 13 10 9 9 -3 18 1 21 9 10 24
21 17 26 -14 3 -23 1 -27 -13 -24 -30 8 -30 -15 1 -37 33 -23 41 -53 13 -48
-10 1 -24 -1 -32 -6 -9 -6 -18 -4 -26 7 -10 14 -12 11 -11 -16 2 -53 36 -84
36 -32 0 14 5 25 10 25 6 0 10 -9 10 -20 0 -11 5 -20 11 -20 6 0 9 -6 6 -12
-2 -7 -12 -12 -22 -10 -10 2 -14 -1 -10 -7 10 -17 24 -13 58 19 18 16 37 30
44 30 7 0 17 8 22 18 6 9 11 12 11 5 0 -6 3 -18 6 -26 4 -10 -1 -15 -13 -14
-10 1 -17 -4 -16 -10 2 -7 -2 -13 -7 -13 -5 0 -10 5 -10 10 0 6 -5 10 -11 10
-6 0 -9 -6 -6 -14 3 -8 -1 -20 -9 -26 -21 -19 -17 -32 7 -20 30 16 38 2 11
-19 -34 -25 -18 -57 26 -52 6 1 12 -5 12 -14 0 -18 -10 -19 -44 -4 -14 7 -33
8 -43 4 -10 -5 -24 -7 -30 -6 -7 1 -13 -5 -13 -14 0 -12 -6 -15 -19 -10 -11 3
-22 1 -26 -5 -3 -6 -11 -7 -17 -4 -6 4 -27 8 -47 9 -28 2 -40 -3 -57 -23 -18
-22 -31 -27 -72 -28 -28 -1 -55 -5 -61 -8 -7 -5 -8 -1 -4 10 8 22 -17 14 -31
-10 -9 -13 -7 -20 7 -30 25 -19 23 -40 -3 -26 -11 6 -20 15 -20 20 0 19 -63
71 -79 65 -12 -5 -9 -10 17 -27 19 -12 32 -28 32 -40 0 -16 -3 -18 -13 -9 -8
6 -17 8 -21 4 -4 -4 3 -15 16 -25 20 -15 21 -19 8 -28 -20 -13 -43 -13 -35 0
7 11 -22 26 -32 16 -4 -3 -1 -12 5 -18 20 -20 13 -29 -10 -16 -13 7 -24 13
-26 14 -1 0 5 15 14 33 11 23 21 31 33 27 11 -4 10 -1 -4 9 -11 9 -19 25 -17
36 2 13 -1 19 -10 17 -8 -2 -14 2 -14 7 0 6 6 9 13 7 7 -2 13 2 13 8 0 5 7 10
15 10 8 0 15 9 15 20 0 11 -4 20 -10 20 -5 0 -10 -5 -10 -10 0 -6 -19 -19 -42
-30 -24 -10 -37 -19 -29 -19 11 -1 11 -4 1 -16 -10 -12 -10 -15 2 -15 18 0 54
-38 44 -47 -3 -4 -12 -1 -18 5 -17 17 -44 16 -29 -1 13 -17 10 -77 -5 -77 -6
0 -17 -7 -24 -15 -7 -8 -16 -13 -20 -10 -13 8 2 54 20 60 15 5 17 11 9 37 -4
17 -6 35 -3 39 3 5 0 9 -5 9 -10 0 -15 -14 -12 -34 1 -5 -7 -6 -19 -3 -23 6
-39 -11 -20 -23 8 -5 10 -17 6 -34 -5 -22 -9 -25 -20 -14 -17 18 -26 66 -12
72 6 2 4 5 -5 5 -19 1 -33 -37 -20 -53 13 -17 20 -56 10 -56 -5 0 -9 7 -9 15
0 8 -9 15 -21 15 -16 0 -19 -4 -14 -20 4 -12 2 -20 -5 -20 -16 0 -23 26 -11
48 12 22 -13 67 -31 56 -6 -4 -6 -10 1 -17 6 -6 10 -29 10 -51 -2 -30 -3 -34
-6 -13 -5 33 -23 36 -23 5 l-1 -23 -18 23 c-16 18 -24 21 -45 12 -17 -6 -26
-17 -26 -31 0 -18 -2 -19 -15 -9 -12 10 -15 10 -16 -1 -1 -8 -2 -18 -4 -24 -1
-5 -3 -17 -4 -25 -3 -30 -21 13 -21 53 0 26 -4 37 -15 37 -8 0 -15 -7 -15 -16
0 -8 5 -12 10 -9 6 4 11 -7 12 -24 0 -17 1 -37 2 -43 1 -7 -5 -12 -11 -11 -7
2 -13 -6 -13 -18 0 -12 -4 -17 -11 -14 -6 4 -13 -2 -16 -14 -7 -28 -20 -27
-19 2 1 16 -5 23 -22 25 -19 3 -21 6 -12 18 9 10 17 11 31 3 15 -7 19 -6 19 5
0 8 6 17 13 19 6 3 2 6 -10 6 -18 1 -23 7 -23 26 0 14 -4 25 -10 25 -5 0 -10
-9 -10 -20 0 -11 -6 -20 -14 -20 -8 0 -20 -13 -28 -30 -15 -34 -17 -35 -52
-19 -27 12 -56 -1 -56 -24 0 -7 4 -7 12 1 14 14 38 16 38 2 0 -10 -52 -40 -70
-40 -5 0 -10 9 -10 20 0 11 -4 20 -10 20 -5 0 -10 -9 -10 -19 0 -11 -4 -23
-10 -26 -10 -6 -14 7 -11 33 1 6 -5 12 -14 12 -12 0 -15 -6 -9 -22 12 -38 10
-53 -6 -51 -9 2 -22 -12 -32 -35 l-16 -37 -11 28 c-11 29 -51 39 -51 12 0 -21
-30 -31 -42 -14 -7 11 -11 11 -15 2 -2 -7 -13 -13 -24 -13 -21 0 -25 -15 -8
-26 7 -4 -2 -13 -21 -22 -30 -15 -31 -17 -14 -29 13 -10 15 -16 7 -24 -6 -6
-9 -18 -6 -25 3 -8 0 -14 -6 -14 -6 0 -11 7 -11 15 0 8 -7 15 -15 15 -17 0
-20 -16 -5 -25 18 -11 -37 -47 -60 -40 -16 5 -20 2 -20 -14 0 -14 -6 -21 -20
-21 -11 0 -30 -14 -42 -31 -21 -27 -24 -29 -35 -13 -20 27 -27 9 -8 -19 9 -14
12 -28 7 -30 -10 -7 -39 -3 -48 6 -13 12 -24 -4 -24 -35 0 -26 -2 -29 -15 -18
-9 7 -18 10 -22 6 -3 -3 -1 -6 5 -6 7 0 12 -4 12 -10 0 -5 -6 -10 -14 -10 -9
0 -12 -8 -8 -25 5 -26 12 -30 28 -17 12 11 93 29 164 37 30 4 78 13 105 20 28
8 79 16 115 20 36 3 103 10 150 15 77 9 137 15 240 25 19 2 85 6 145 9 61 4
135 10 165 15 30 5 60 6 67 4 7 -3 19 0 27 6 8 7 43 11 77 11 63 -1 174 5 254
15 22 2 74 7 115 9 41 3 154 12 250 20 96 9 207 18 245 22 39 3 84 7 100 9 17
1 102 6 190 9 88 4 167 9 177 12 18 5 177 14 338 18 58 1 112 5 120 9 8 4 98
9 200 11 102 3 185 6 185 6 0 1 38 3 85 5 47 2 137 7 200 10 110 6 390 12 877
21 l222 3 -4 -27 c-1 -15 4 -35 13 -45 15 -16 14 -18 -14 -18 -92 -1 -143 -5
-150 -11 -11 -12 -72 -9 -80 3 -4 8 -9 7 -15 -2 -4 -8 -28 -14 -56 -14 -115
-3 -340 -17 -363 -22 -36 -9 -53 -10 -285 -18 -115 -4 -235 -9 -265 -11 -30
-2 -86 -7 -125 -10 -38 -3 -101 -7 -140 -8 -38 -2 -128 -8 -200 -14 -160 -14
-371 -29 -405 -29 -14 0 -43 -3 -65 -6 -22 -3 -76 -9 -120 -12 -44 -4 -98 -9
-120 -12 -22 -3 -71 -6 -110 -8 -76 -4 -149 -10 -223 -19 -26 -3 -96 -8 -157
-11 -117 -6 -192 -12 -265 -20 -25 -3 -65 -8 -90 -11 -25 -3 -99 -9 -165 -14
-66 -5 -138 -12 -160 -15 -22 -3 -69 -7 -105 -10 -80 -6 -213 -20 -385 -39
-71 -8 -168 -17 -215 -21 -115 -10 -135 -12 -205 -25 -33 -6 -76 -13 -95 -15
-84 -12 -199 -34 -245 -48 -134 -41 -465 -175 -465 -188 0 -5 -7 -9 -16 -9 -9
0 -39 -13 -66 -30 -26 -16 -55 -30 -62 -30 -8 0 -22 -7 -31 -16 -21 -22 -71
-55 -115 -78 -19 -9 -46 -24 -59 -31 -31 -17 -151 -118 -151 -127 0 -13 -161
-129 -170 -123 -6 4 -7 -1 -3 -11 4 -12 3 -15 -5 -10 -7 4 -12 1 -12 -8 0 -9
-7 -16 -16 -16 -9 0 -14 -6 -12 -12 3 -7 -8 -23 -23 -36 -29 -23 -29 -23 -29
-3 0 12 4 21 9 21 6 0 16 12 24 28 7 15 18 26 24 25 6 -1 17 12 24 30 17 44
195 233 242 256 15 8 27 18 27 23 0 12 76 88 88 88 6 0 27 16 46 35 20 19 44
35 52 35 9 0 34 18 56 40 22 22 45 40 51 40 6 0 18 6 26 14 9 7 42 28 74 45
32 18 76 50 98 71 36 35 38 39 22 49 -15 8 -15 10 -2 11 8 0 20 -5 27 -12 8
-8 12 -8 12 -1 0 16 42 24 57 11 10 -8 17 -7 26 5 7 9 25 17 41 19 25 2 30 8
32 33 3 28 3 29 -8 8 -6 -13 -20 -23 -30 -23 -11 0 -17 4 -13 9 3 6 -2 14 -11
19 -9 5 -17 13 -17 18 -1 5 -5 8 -10 6 -4 -1 -6 15 -5 37 2 28 7 37 17 33 10
-4 13 1 9 21 -6 31 6 36 21 10 5 -10 13 -14 17 -10 5 5 2 12 -5 17 -12 7 -10
14 7 42 15 23 22 28 22 15 0 -10 5 -15 10 -12 6 4 8 11 5 16 -3 5 5 21 19 35
13 15 27 42 31 61 5 29 9 32 21 22 12 -10 13 -9 8 5 -4 11 -1 16 14 16 21 0
32 18 32 52 0 14 5 18 15 14 14 -5 48 31 40 44 -4 6 23 36 75 85 37 35 43 53
20 65 -12 6 -30 8 -42 4 -19 -6 -246 -16 -308 -13 -14 0 -34 0 -45 0 -11 0
-112 -3 -225 -5 -113 -3 -205 -6 -205 -7 0 -1 -45 -3 -100 -5 -55 -1 -139 -5
-188 -7 -48 -2 -90 -1 -92 3 -3 4 7 16 21 25 22 14 60 18 248 21 121 2 331 6
466 8 l245 5 124 128 c69 70 140 150 158 176 19 26 42 56 51 66 9 9 45 51 80
92 35 41 78 85 97 99 19 14 35 29 35 33 0 14 30 40 30 27 0 -6 6 -10 13 -7 6
2 11 10 9 17 -2 7 3 10 12 7 8 -3 17 1 20 9 3 8 12 14 19 14 8 0 26 9 41 21
15 11 32 22 39 23 6 1 21 7 32 13 11 6 22 11 25 11 43 2 80 35 72 65 -1 5 3 5
10 1 26 -16 53 -14 81 7 16 11 47 22 70 24 30 2 43 8 45 20 3 12 10 15 27 11
13 -3 26 -2 29 3 10 16 45 0 39 -17 -3 -13 -1 -12 12 3 10 13 18 16 23 9 4 -6
18 -10 32 -8 14 1 28 3 33 3 4 1 7 8 7 17 0 9 6 14 13 11 6 -2 11 -17 10 -33z
m10157 6 c12 -8 11 -10 -7 -10 -13 0 -23 5 -23 10 0 13 11 13 30 0z m-70 -68
c0 -15 -2 -15 -10 -2 -13 20 -13 33 0 25 6 -3 10 -14 10 -23z m-70 2 c0 -8 -4
-12 -10 -9 -5 3 -10 10 -10 16 0 5 5 9 10 9 6 0 10 -7 10 -16z m-9652 -43 c11
-7 10 -10 -3 -15 -19 -7 -35 0 -35 15 0 11 20 12 38 0z m242 -11 c0 -6 -6 -13
-14 -16 -8 -3 -18 -24 -21 -46 -6 -33 -9 -38 -17 -25 -5 9 -18 17 -28 17 -11
0 -20 7 -20 15 0 8 4 15 8 15 5 0 17 8 28 18 30 29 64 40 64 22z m9234 -8 c2
-4 -5 -9 -17 -9 -17 -2 -19 0 -7 7 18 12 18 12 24 2z m74 -21 c-2 -17 0 -27 5
-24 5 3 7 -3 5 -13 -2 -11 -6 -17 -9 -14 -3 3 -13 -3 -23 -13 -10 -9 -23 -14
-29 -10 -8 5 -8 8 1 11 7 2 12 12 12 22 0 10 5 20 12 22 6 2 9 12 5 21 -4 11
-13 15 -24 11 -15 -5 -16 -4 -3 5 8 6 23 11 34 11 15 0 17 -6 14 -29z m-58
-10 c0 -6 -4 -13 -10 -16 -5 -3 -10 1 -10 9 0 9 5 16 10 16 6 0 10 -4 10 -9z
m-9375 -36 c0 -17 -5 -25 -17 -25 -21 0 -25 36 -5 43 21 9 22 8 22 -18z m132
3 c-3 -8 -6 -5 -6 6 -1 11 2 17 5 13 3 -3 4 -12 1 -19z m78 12 c-3 -5 -10 -10
-16 -10 -5 0 -9 5 -9 10 0 6 7 10 16 10 8 0 12 -4 9 -10z m9125 -22 c0 -19 -2
-20 -10 -8 -13 19 -13 30 0 30 6 0 10 -10 10 -22z m-9156 3 c4 -5 -3 -7 -14
-4 -23 6 -26 13 -6 13 8 0 17 -4 20 -9z m-124 -21 c0 -5 -4 -10 -10 -10 -5 0
-10 5 -10 10 0 6 5 10 10 10 6 0 10 -4 10 -10z m9380 -26 c0 -8 -4 -12 -10 -9
-5 3 -10 10 -10 16 0 5 5 9 10 9 6 0 10 -7 10 -16z m-9219 -15 c-14 -51 -13
-54 9 -27 21 27 56 29 46 3 -8 -22 19 -25 58 -7 38 18 49 38 16 29 -11 -3 -18
-1 -15 4 3 4 19 7 35 6 24 -2 27 -4 16 -17 -21 -25 -8 -50 25 -50 16 0 29 -5
29 -10 0 -6 -13 -8 -30 -5 -22 4 -30 1 -30 -10 0 -8 -9 -15 -20 -15 -15 0 -20
7 -21 28 0 25 -1 25 -9 6 -10 -24 -40 -40 -40 -21 0 7 -5 18 -12 25 -9 9 -14
6 -23 -11 -8 -15 -8 -24 -1 -29 16 -11 3 -18 -22 -11 -12 3 -22 10 -22 16 0 5
-8 15 -17 22 -14 11 -15 15 -4 28 7 9 10 21 6 27 -10 16 3 42 18 37 6 -2 10
-11 8 -18z m267 9 c19 -19 14 -30 -8 -18 -11 6 -20 15 -20 20 0 14 14 12 28
-2z m8882 3 c0 -5 -11 -8 -25 -7 -33 1 -33 16 0 16 14 0 25 -4 25 -9z m-8930
-32 c0 -5 -9 -9 -20 -9 -17 0 -19 2 -8 14 13 14 28 12 28 -5z m-126 2 c3 -5
-1 -11 -9 -15 -9 -3 -15 0 -15 9 0 16 16 20 24 6z m9136 -11 c0 -13 -11 -13
-30 0 -12 8 -11 10 8 10 12 0 22 -4 22 -10z m-115 -10 c3 -5 1 -10 -4 -10 -6
0 -11 5 -11 10 0 6 2 10 4 10 3 0 8 -4 11 -10z m-20 -39 c3 -5 1 -12 -4 -15
-5 -3 -11 1 -15 9 -6 16 9 21 19 6z m-8745 -11 c0 -5 -2 -10 -4 -10 -3 0 -8 5
-11 10 -3 6 -1 10 4 10 6 0 11 -4 11 -10z m-130 -21 c0 -11 -4 -17 -10 -14 -5
3 -10 13 -10 21 0 8 5 14 10 14 6 0 10 -9 10 -21z m9014 -4 c6 -16 -3 -19 -28
-9 -9 3 -13 10 -10 15 8 14 31 11 38 -6z m126 -37 c0 -10 5 -18 10 -18 6 0 10
-7 10 -15 0 -8 -4 -15 -10 -15 -5 0 -10 6 -10 14 0 7 -11 25 -25 40 -14 15
-25 29 -25 31 0 3 11 -1 25 -7 14 -6 25 -19 25 -30z m-9260 22 c0 -5 -4 -10
-10 -10 -5 0 -10 5 -10 10 0 6 5 10 10 10 6 0 10 -4 10 -10z m-95 -10 c3 -5
-1 -10 -9 -10 -9 0 -16 -5 -16 -11 0 -5 -4 -7 -10 -4 -5 3 -10 13 -10 21 0 16
36 19 45 4z m9115 6 c0 -3 -4 -8 -10 -11 -5 -3 -10 -1 -10 4 0 6 5 11 10 11 6
0 10 -2 10 -4z m-8980 -26 c13 -24 2 -50 -11 -29 -9 15 -12 49 -4 49 2 0 9 -9
15 -20z m160 10 c0 -5 -5 -10 -11 -10 -5 0 -7 5 -4 10 3 6 8 10 11 10 2 0 4
-4 4 -10z m-110 -32 c0 -18 -2 -20 -9 -8 -6 8 -7 18 -5 22 9 14 14 9 14 -14z
m330 12 c0 -5 -4 -10 -10 -10 -5 0 -10 5 -10 10 0 6 5 10 10 10 6 0 10 -4 10
-10z m-116 -35 c-4 -8 -10 -15 -15 -15 -4 0 -6 7 -3 15 4 8 10 15 15 15 4 0 6
-7 3 -15z m8813 -7 c-3 -8 -6 -5 -6 6 -1 11 2 17 5 13 3 -3 4 -12 1 -19z m87
7 c-4 -8 -10 -12 -15 -9 -11 6 -2 24 11 24 5 0 7 -7 4 -15z m122 -25 c1 -17
-3 -30 -7 -30 -5 0 -9 6 -9 14 0 8 -7 17 -16 20 -19 7 -9 26 14 26 12 0 17 -9
18 -30z m-9341 10 c-3 -5 -12 -7 -20 -3 -21 7 -19 13 6 13 11 0 18 -4 14 -10z
m58 -9 c3 -15 -1 -21 -17 -23 -13 -2 -22 -11 -24 -24 -2 -15 -10 -21 -28 -21
-13 0 -24 4 -24 9 0 5 -4 6 -10 3 -5 -3 -10 -1 -10 5 0 7 8 9 20 5 16 -5 20
-2 20 15 0 12 4 19 9 16 4 -3 16 3 26 14 23 25 31 25 38 1z m124 -23 c-3 -8
-6 -5 -6 6 -1 11 2 17 5 13 3 -3 4 -12 1 -19z m53 2 c0 -5 -4 -10 -10 -10 -5
0 -10 5 -10 10 0 6 5 10 10 10 6 0 10 -4 10 -10z m9065 -10 c3 -5 -1 -10 -9
-10 -9 0 -16 5 -16 10 0 6 4 10 9 10 6 0 13 -4 16 -10z m-9138 -22 c-3 -8 -6
-5 -6 6 -1 11 2 17 5 13 3 -3 4 -12 1 -19z m106 -13 c-3 -9 -8 -14 -10 -11 -3
3 -2 9 2 15 9 16 15 13 8 -4z m9117 -6 c0 -5 -4 -9 -10 -9 -5 0 -10 7 -10 16
0 8 5 12 10 9 6 -3 10 -10 10 -16z m-9320 1 c0 -5 -4 -10 -10 -10 -5 0 -10 5
-10 10 0 6 5 10 10 10 6 0 10 -4 10 -10z m-24 -43 c2 -14 -1 -15 -17 -6 -11 5
-17 15 -13 20 9 14 27 6 30 -14z m9372 -17 c0 -16 -4 -30 -9 -30 -10 0 -12 21
-3 44 9 23 11 20 12 -14z m141 -4 c10 -12 8 -13 -8 -9 -12 3 -21 9 -21 14 0
14 16 11 29 -5z m-9852 -18 c-3 -8 -6 -5 -6 6 -1 11 2 17 5 13 3 -3 4 -12 1
-19z m180 6 c-3 -3 -12 -4 -19 -1 -8 3 -5 6 6 6 11 1 17 -2 13 -5z m9728 -24
c-4 -11 -2 -20 4 -20 6 0 11 -9 11 -20 0 -11 -4 -20 -10 -20 -5 0 -10 7 -10
15 0 8 -4 15 -10 15 -11 0 -14 33 -3 43 13 14 24 6 18 -13z m69 5 c3 -9 0 -15
-9 -15 -8 0 -15 7 -15 15 0 8 4 15 9 15 5 0 11 -7 15 -15z m-9934 -5 c0 -5 -4
-10 -10 -10 -5 0 -10 5 -10 10 0 6 5 10 10 10 6 0 10 -4 10 -10z m10043 -10
c6 -22 -7 -35 -23 -25 -8 5 -8 11 -1 19 6 7 8 16 4 19 -3 4 -2 7 4 7 6 0 13
-9 16 -20z m87 0 c0 -5 -9 -10 -19 -10 -10 0 -21 -7 -25 -15 -3 -8 -10 -15
-15 -15 -7 0 -6 9 1 25 11 25 58 37 58 15z m-317 -7 c3 -5 -1 -14 -9 -21 -12
-11 -14 -9 -14 8 0 20 14 27 23 13z m511 -20 c-4 -14 -11 -20 -20 -16 -12 5
-12 8 3 23 22 21 24 20 17 -7z m-10458 -9 c-3 -7 -1 -16 5 -19 13 -9 1 -25
-18 -25 -9 0 -13 6 -10 14 4 10 -2 16 -16 19 l-22 4 23 8 c12 4 22 12 22 17 0
5 5 6 11 3 6 -4 8 -13 5 -21z m74 16 c0 -5 -7 -10 -15 -10 -8 0 -15 5 -15 10
0 6 7 10 15 10 8 0 15 -4 15 -10z m9980 6 c0 -3 -4 -8 -10 -11 -5 -3 -10 -1
-10 4 0 6 5 11 10 11 6 0 10 -2 10 -4z m441 -29 c-13 -13 -26 -3 -16 12 3 6
11 8 17 5 6 -4 6 -10 -1 -17z m-10335 -34 c-11 -11 -19 6 -11 24 8 17 8 17 12
0 3 -10 2 -21 -1 -24z m10084 27 c0 -5 -4 -10 -10 -10 -5 0 -10 5 -10 10 0 6
5 10 10 10 6 0 10 -4 10 -10z m-10200 -20 c0 -5 -4 -10 -10 -10 -5 0 -10 5
-10 10 0 6 5 10 10 10 6 0 10 -4 10 -10z m10320 0 c0 -5 -4 -10 -10 -10 -5 0
-10 5 -10 10 0 6 5 10 10 10 6 0 10 -4 10 -10z m-199 -27 c10 3 19 1 19 -4 0
-11 -31 -11 -49 0 -8 6 -10 14 -5 22 7 11 9 10 12 -4 3 -13 10 -17 23 -14z
m369 17 c0 -5 -7 -10 -15 -10 -8 0 -15 5 -15 10 0 6 7 10 15 10 8 0 15 -4 15
-10z m-10330 -9 c0 -5 -7 -11 -14 -14 -10 -4 -13 -1 -9 9 6 15 23 19 23 5z
m10220 -15 c0 -2 -7 -7 -16 -10 -8 -3 -12 -2 -9 4 6 10 25 14 25 6z m-13915
-16 c3 -5 2 -10 -4 -10 -5 0 -13 5 -16 10 -3 6 -2 10 4 10 5 0 13 -4 16 -10z
m13985 6 c0 -3 -4 -8 -10 -11 -5 -3 -10 -1 -10 4 0 6 5 11 10 11 6 0 10 -2 10
-4z m-11060 -21 c0 -8 -4 -15 -10 -15 -5 0 -10 7 -10 15 0 8 5 15 10 15 6 0
10 -7 10 -15z m415 -5 c3 -5 1 -10 -4 -10 -6 0 -11 5 -11 10 0 6 2 10 4 10 3
0 8 -4 11 -10z m10755 -27 c0 -7 -4 -13 -10 -13 -5 0 -10 12 -10 28 0 21 2 24
10 12 5 -8 10 -21 10 -27z m-10906 3 c-3 -9 -10 -16 -15 -16 -5 0 -4 9 3 20
14 22 21 20 12 -4z m10941 -26 c3 -5 2 -10 -4 -10 -5 0 -13 5 -16 10 -3 6 -2
10 4 10 5 0 13 -4 16 -10z m87 -12 c-7 -7 -12 -8 -12 -2 0 14 12 26 19 19 2
-3 -1 -11 -7 -17z m-11312 2 c0 -5 -2 -10 -4 -10 -3 0 -8 5 -11 10 -3 6 -1 10
4 10 6 0 11 -4 11 -10z m50 -10 c0 -5 -4 -10 -9 -10 -6 0 -13 5 -16 10 -3 6 1
10 9 10 9 0 16 -4 16 -10z m-70 -20 c0 -5 -4 -10 -10 -10 -5 0 -10 5 -10 10 0
6 5 10 10 10 6 0 10 -4 10 -10z m-2177 -7 c-7 -2 -19 -2 -25 0 -7 3 -2 5 12 5
14 0 19 -2 13 -5z m13693 -20 c-10 -10 -19 5 -10 18 6 11 8 11 12 0 2 -7 1
-15 -2 -18z m-11726 3 c0 -2 -7 -6 -15 -10 -8 -3 -15 -1 -15 4 0 6 7 10 15 10
8 0 15 -2 15 -4z m11765 -16 c3 -5 1 -10 -4 -10 -6 0 -11 5 -11 10 0 6 2 10 4
10 3 0 8 -4 11 -10z m-11922 -55 c-7 -21 -13 -19 -13 6 0 11 4 18 10 14 5 -3
7 -12 3 -20z m11917 10 c0 -8 -4 -15 -9 -15 -13 0 -22 16 -14 24 11 11 23 6
23 -9z m40 -19 c0 -3 -4 -8 -10 -11 -5 -3 -10 -1 -10 4 0 6 5 11 10 11 6 0 10
-2 10 -4z m-113 -12 c-3 -3 -12 -4 -19 -1 -8 3 -5 6 6 6 11 1 17 -2 13 -5z
m-14852 -14 c3 -5 1 -10 -4 -10 -6 0 -11 5 -11 10 0 6 2 10 4 10 3 0 8 -4 11
-10z m15095 -30 c14 -10 22 -21 19 -25 -4 -3 -14 1 -22 10 -9 8 -20 15 -26 15
-5 0 -13 5 -16 10 -10 17 19 11 45 -10z m-12253 -10 c-3 -12 1 -24 11 -31 15
-10 15 -10 0 -5 -11 3 -18 0 -18 -9 0 -7 -5 -17 -11 -21 -7 -4 -9 0 -5 13 5
15 0 23 -21 32 -27 12 -27 13 -8 27 29 22 58 18 52 -6z m-2129 -28 c-19 -43
-28 -48 -28 -16 0 31 17 57 31 48 5 -2 3 -17 -3 -32z m10327 28 c-3 -5 -10
-10 -16 -10 -5 0 -9 5 -9 10 0 6 7 10 16 10 8 0 12 -4 9 -10z m-8095 -14 c0
-3 -4 -8 -10 -11 -5 -3 -10 -1 -10 4 0 6 5 11 10 11 6 0 10 -2 10 -4z m12110
-17 c0 -14 -16 -11 -29 5 -10 12 -8 13 8 9 12 -3 21 -9 21 -14z m-4054 -3 c10
-8 16 -18 11 -22 -4 -4 -16 2 -27 14 -23 25 -14 29 16 8z m114 0 c0 -2 -8 -10
-17 -17 -16 -13 -17 -12 -4 4 13 16 21 21 21 13z m-8465 -136 c-3 -5 -10 -10
-16 -10 -5 0 -9 5 -9 10 0 6 7 10 16 10 8 0 12 -4 9 -10z m-1369 -245 c-1 -35
-5 -67 -9 -71 -9 -9 -38 16 -32 26 3 5 1 11 -5 15 -15 9 -12 50 8 89 14 29 19
33 28 20 6 -8 11 -43 10 -79z m871 5 c-3 -10 0 -21 6 -23 6 -2 7 -9 3 -16 -6
-9 -12 -9 -26 4 -20 18 -16 55 7 55 10 0 14 -7 10 -20z m-73 -5 c-4 -8 -8 -15
-10 -15 -2 0 -4 7 -4 15 0 8 4 15 10 15 5 0 7 -7 4 -15z m14330 -93 c3 -5 -1
-9 -9 -9 -8 0 -12 4 -9 9 3 4 7 8 9 8 2 0 6 -4 9 -8z m111 -212 c3 -5 -1 -10
-10 -10 -9 0 -13 5 -10 10 3 6 8 10 10 10 2 0 7 -4 10 -10z m-14609 -137 c-10
-10 -19 5 -10 18 6 11 8 11 12 0 2 -7 1 -15 -2 -18z m-127 -59 c-17 -21 -31
-17 -19 6 6 11 15 18 21 14 6 -4 6 -11 -2 -20z m-341 -214 c-14 -22 -24 -19
-15 5 4 8 11 15 17 15 6 0 6 -7 -2 -20z m-108 -150 c0 -5 -6 -10 -14 -10 -16
0 -76 -71 -76 -89 0 -6 -6 -11 -14 -11 -8 0 -27 -17 -42 -37 -16 -20 -37 -45
-46 -55 -10 -10 -18 -22 -18 -27 0 -4 -10 -19 -22 -32 -43 -46 -88 -107 -88
-118 0 -6 -9 -16 -20 -23 -11 -7 -20 -21 -20 -31 0 -10 -4 -16 -8 -13 -4 2
-20 -18 -35 -45 -29 -51 -43 -64 -32 -29 10 30 -14 24 -26 -6 -5 -15 -12 -24
-15 -21 -8 8 6 47 17 47 5 0 9 7 9 15 0 8 5 15 10 15 6 0 10 11 10 24 0 28 35
76 56 76 8 0 14 7 14 16 0 8 7 23 16 31 8 9 13 25 10 35 -4 17 -1 19 19 14 14
-4 27 -1 31 6 5 8 2 9 -9 5 -12 -5 -17 -1 -17 13 0 13 7 20 19 20 10 0 24 7
31 15 13 16 4 39 -12 29 -6 -4 -9 -1 -6 6 2 8 10 16 18 18 7 3 10 0 6 -7 -4
-6 -2 -11 4 -11 15 0 106 91 102 102 -1 5 3 8 10 7 37 -4 45 1 40 28 -4 21 -2
25 11 20 10 -4 17 1 20 14 4 14 14 19 36 19 17 0 31 -4 31 -10z m960 -775 c0
-25 -16 -24 -18 1 -1 15 2 22 8 19 6 -3 10 -12 10 -20z m-75 -25 c9 -14 -34
-64 -65 -78 -14 -6 -37 -18 -51 -28 -15 -9 -34 -14 -43 -11 -15 6 -15 9 -1 36
8 16 24 32 35 36 11 3 20 11 20 16 0 5 7 9 15 9 8 0 15 5 15 11 0 5 4 8 8 5 4
-2 14 -1 22 5 20 12 37 11 45 -1z m9405 -257 c0 -27 3 -1210 7 -2630 l6 -2583
-2483 0 -2483 0 6 2618 c4 1439 7 2623 7 2630 0 9 501 12 2470 12 l2470 0 0
-47z m-10963 -945 c-3 -8 -6 -5 -6 6 -1 11 2 17 5 13 3 -3 4 -12 1 -19z m48
-678 c3 -5 1 -10 -4 -10 -6 0 -11 5 -11 10 0 6 2 10 4 10 3 0 8 -4 11 -10z
m90 -830 c3 -5 2 -10 -4 -10 -5 0 -13 5 -16 10 -3 6 -2 10 4 10 5 0 13 -4 16
-10z m15 -110 c0 -5 -5 -10 -11 -10 -5 0 -7 5 -4 10 3 6 8 10 11 10 2 0 4 -4
4 -10z m100 -530 c0 -5 -2 -10 -4 -10 -3 0 -8 5 -11 10 -3 6 -1 10 4 10 6 0
11 -4 11 -10z m30 -122 c0 -16 -3 -19 -11 -11 -6 6 -8 16 -5 22 11 17 16 13
16 -11z m53 -169 c-4 -16 -8 -17 -14 -7 -13 19 -11 28 5 28 9 0 12 -7 9 -21z
m-33 -28 c0 -17 -18 -21 -24 -6 -3 9 0 15 9 15 8 0 15 -4 15 -9z m64 -27 c8
-22 8 -24 -7 -24 -7 0 -13 9 -14 20 -2 24 12 27 21 4z m151 -443 c3 -5 1 -12
-5 -16 -5 -3 -10 1 -10 9 0 18 6 21 15 7z m-20 -51 c3 -5 1 -10 -4 -10 -6 0
-11 5 -11 10 0 6 2 10 4 10 3 0 8 -4 11 -10z m235 -340 c0 -5 -2 -10 -4 -10
-3 0 -8 5 -11 10 -3 6 -1 10 4 10 6 0 11 -4 11 -10z m368 -435 c-3 -3 -9 2
-12 12 -6 14 -5 15 5 6 7 -7 10 -15 7 -18z m217 -155 c3 -5 1 -10 -4 -10 -6 0
-11 5 -11 10 0 6 2 10 4 10 3 0 8 -4 11 -10z m13300 -430 c3 -5 1 -10 -4 -10
-6 0 -11 5 -11 10 0 6 2 10 4 10 3 0 8 -4 11 -10z m-75 -34 c0 -3 -4 -8 -10
-11 -5 -3 -10 -1 -10 4 0 6 5 11 10 11 6 0 10 -2 10 -4z m-63 -48 c-3 -8 -6
-5 -6 6 -1 11 2 17 5 13 3 -3 4 -12 1 -19z m-177 -38 c0 -5 -2 -10 -4 -10 -3
0 -8 5 -11 10 -3 6 -1 10 4 10 6 0 11 -4 11 -10z m-328 -112 c-7 -7 -12 -8
-12 -2 0 14 12 26 19 19 2 -3 -1 -11 -7 -17z m-9922 -28 c0 -5 -5 -10 -11 -10
-5 0 -7 5 -4 10 3 6 8 10 11 10 2 0 4 -4 4 -10z m4080 -30 c0 -5 -4 -10 -10
-10 -5 0 -10 5 -10 10 0 6 5 10 10 10 6 0 10 -4 10 -10z m767 -6 c-3 -3 -12
-4 -19 -1 -8 3 -5 6 6 6 11 1 17 -2 13 -5z m3503 -10 c0 -8 -4 -12 -10 -9 -5
3 -10 10 -10 16 0 5 5 9 10 9 6 0 10 -7 10 -16z m-3980 -4 c0 -5 -4 -10 -10
-10 -5 0 -10 5 -10 10 0 6 5 10 10 10 6 0 10 -4 10 -10z m100 0 c0 -5 -2 -10
-4 -10 -3 0 -8 5 -11 10 -3 6 -1 10 4 10 6 0 11 -4 11 -10z m4157 -6 c-3 -3
-12 -4 -19 -1 -8 3 -5 6 6 6 11 1 17 -2 13 -5z m140 -10 c-3 -3 -12 -4 -19 -1
-8 3 -5 6 6 6 11 1 17 -2 13 -5z m173 -4 c0 -5 -7 -10 -16 -10 -8 0 -12 5 -9
10 3 6 10 10 16 10 5 0 9 -4 9 -10z"/>
<path d="M18884 12234 c3 -9 6 -22 6 -30 0 -8 4 -14 10 -14 5 0 7 6 4 14 -3 8
0 17 5 21 15 8 4 25 -16 25 -10 0 -13 -6 -9 -16z"/>
<path d="M18810 12120 c0 -6 7 -10 15 -10 8 0 15 2 15 4 0 2 -7 6 -15 10 -8 3
-15 1 -15 -4z"/>
<path d="M18900 12079 c0 -5 5 -7 10 -4 6 3 10 8 10 11 0 2 -4 4 -10 4 -5 0
-10 -5 -10 -11z"/>
<path d="M18940 12080 c0 -5 5 -10 10 -10 6 0 10 5 10 10 0 6 -4 10 -10 10 -5
0 -10 -4 -10 -10z"/>
<path d="M18808 12073 c-10 -3 -18 -9 -18 -14 0 -10 7 -11 34 0 23 9 9 19 -16
14z"/>
<path d="M18662 11970 c0 -14 2 -19 5 -12 2 6 2 18 0 25 -3 6 -5 1 -5 -13z"/>
<path d="M18710 11971 c0 -10 19 -25 25 -20 1 2 -3 10 -11 17 -8 7 -14 8 -14
3z"/>
<path d="M18680 11930 c-6 -11 -8 -20 -6 -20 3 0 10 9 16 20 6 11 8 20 6 20
-3 0 -10 -9 -16 -20z"/>
<path d="M18632 11929 c2 -7 10 -15 17 -17 8 -3 12 1 9 9 -2 7 -10 15 -17 17
-8 3 -12 -1 -9 -9z"/>
<path d="M18730 11931 c0 -10 19 -25 25 -20 1 2 -3 10 -11 17 -8 7 -14 8 -14
3z"/>
<path d="M18725 11880 c3 -5 11 -10 16 -10 6 0 7 5 4 10 -3 6 -11 10 -16 10
-6 0 -7 -4 -4 -10z"/>
<path d="M18786 11795 c-3 -8 -1 -15 4 -15 6 0 10 7 10 15 0 8 -2 15 -4 15 -2
0 -6 -7 -10 -15z"/>
<path d="M18926 11771 c-3 -5 1 -11 9 -15 8 -3 15 -1 15 4 0 13 -18 22 -24 11z"/>
<path d="M19090 11760 c0 -5 7 -10 15 -10 8 0 15 5 15 10 0 6 -7 10 -15 10 -8
0 -15 -4 -15 -10z"/>
<path d="M18790 11740 c0 -11 5 -20 10 -20 6 0 10 9 10 20 0 11 -4 20 -10 20
-5 0 -10 -9 -10 -20z"/>
<path d="M19131 11734 c0 -11 3 -14 6 -6 3 7 2 16 -1 19 -3 4 -6 -2 -5 -13z"/>
<path d="M19327 11743 c-4 -3 -7 -11 -7 -17 0 -6 5 -5 12 2 6 6 9 14 7 17 -3
3 -9 2 -12 -2z"/>
<path d="M18905 11720 c3 -5 8 -10 11 -10 2 0 4 5 4 10 0 6 -5 10 -11 10 -5 0
-7 -4 -4 -10z"/>
<path d="M19430 11710 c0 -5 5 -10 10 -10 6 0 10 5 10 10 0 6 -4 10 -10 10 -5
0 -10 -4 -10 -10z"/>
<path d="M19301 11673 c7 -10 15 -20 16 -22 2 -2 3 5 3 17 0 14 -6 22 -16 22
-14 0 -15 -3 -3 -17z"/>
<path d="M19110 11665 c0 -8 5 -15 10 -15 6 0 10 7 10 15 0 8 -4 15 -10 15 -5
0 -10 -7 -10 -15z"/>
<path d="M19640 11662 c0 -12 19 -26 26 -19 2 2 -2 10 -11 17 -9 8 -15 8 -15
2z"/>
<path d="M19250 11650 c0 -5 5 -10 10 -10 6 0 10 5 10 10 0 6 -4 10 -10 10 -5
0 -10 -4 -10 -10z"/>
<path d="M19482 11648 c2 -6 10 -14 16 -16 7 -2 10 2 6 12 -7 18 -28 22 -22 4z"/>
<path d="M19310 11611 c0 -12 6 -21 16 -21 9 0 14 7 12 17 -5 25 -28 28 -28 4z"/>
<path d="M19357 11594 c-4 -4 -7 -14 -7 -23 0 -11 3 -12 11 -4 6 6 10 16 7 23
-2 6 -7 8 -11 4z"/>
<path d="M19401 11584 c0 -11 3 -14 6 -6 3 7 2 16 -1 19 -3 4 -6 -2 -5 -13z"/>
<path d="M19090 11580 c0 -5 5 -10 10 -10 6 0 10 5 10 10 0 6 -4 10 -10 10 -5
0 -10 -4 -10 -10z"/>
<path d="M19180 11581 c0 -5 7 -11 15 -15 9 -3 15 0 15 9 0 8 -7 15 -15 15 -8
0 -15 -4 -15 -9z"/>
<path d="M19572 11571 c-11 -7 -11 -9 1 -14 16 -6 27 0 27 15 0 10 -11 10 -28
-1z"/>
<path d="M20030 11554 c0 -9 5 -14 12 -12 18 6 21 28 4 28 -9 0 -16 -7 -16
-16z"/>
<path d="M19400 11545 c0 -8 2 -15 4 -15 2 0 6 7 10 15 3 8 1 15 -4 15 -6 0
-10 -7 -10 -15z"/>
<path d="M19696 11506 c21 -15 30 -14 19 3 -3 6 -14 11 -23 11 -13 0 -13 -2 4
-14z"/>
<path d="M21315 11480 c-3 -5 1 -10 10 -10 9 0 13 5 10 10 -3 6 -8 10 -10 10
-2 0 -7 -4 -10 -10z"/>
<path d="M19850 11465 c0 -8 2 -15 4 -15 2 0 6 7 10 15 3 8 1 15 -4 15 -6 0
-10 -7 -10 -15z"/>
<path d="M19897 11463 c-8 -13 2 -43 14 -43 10 0 10 8 0 34 -5 12 -10 16 -14
9z"/>
<path d="M19740 11419 c0 -5 5 -7 10 -4 6 3 10 8 10 11 0 2 -4 4 -10 4 -5 0
-10 -5 -10 -11z"/>
<path d="M19840 11354 c0 -3 6 -12 14 -20 16 -15 32 -2 21 16 -7 11 -35 14
-35 4z"/>
<path d="M20010 11325 c0 -10 9 -15 27 -15 29 0 29 2 -4 19 -19 10 -23 9 -23
-4z"/>
<path d="M20060 11250 c0 -5 5 -10 10 -10 6 0 10 5 10 10 0 6 -4 10 -10 10 -5
0 -10 -4 -10 -10z"/>
<path d="M20102 11229 c2 -7 10 -15 17 -17 8 -3 12 1 9 9 -2 7 -10 15 -17 17
-8 3 -12 -1 -9 -9z"/>
<path d="M20200 11155 c7 -8 17 -15 22 -15 5 0 3 7 -6 15 -8 8 -18 15 -22 15
-3 0 -1 -7 6 -15z"/>
<path d="M16466 11078 c3 -4 13 -8 23 -8 9 0 22 -5 29 -12 6 -6 15 -9 19 -5
12 12 -17 32 -47 33 -16 0 -27 -3 -24 -8z"/>
<path d="M16540 11086 c0 -2 7 -7 16 -10 8 -3 12 -2 9 4 -6 10 -25 14 -25 6z"/>
<path d="M20490 11044 c0 -8 5 -12 10 -9 6 3 10 10 10 16 0 5 -4 9 -10 9 -5 0
-10 -7 -10 -16z"/>
<path d="M20510 10980 c0 -5 5 -10 10 -10 6 0 10 5 10 10 0 6 -4 10 -10 10 -5
0 -10 -4 -10 -10z"/>
<path d="M20743 10946 c3 -6 10 -10 16 -8 6 1 11 -3 11 -9 0 -5 5 -7 10 -4 17
11 11 23 -15 28 -17 3 -24 0 -22 -7z"/>
<path d="M8650 12129 c0 -5 5 -7 10 -4 6 3 10 8 10 11 0 2 -4 4 -10 4 -5 0
-10 -5 -10 -11z"/>
<path d="M9140 11895 c0 -14 25 -27 34 -18 11 11 6 21 -14 26 -12 3 -20 0 -20
-8z"/>
<path d="M8920 11879 c0 -5 5 -7 10 -4 6 3 10 8 10 11 0 2 -4 4 -10 4 -5 0
-10 -5 -10 -11z"/>
<path d="M9122 11858 c2 -6 10 -14 16 -16 7 -2 10 2 6 12 -7 18 -28 22 -22 4z"/>
<path d="M9005 11840 c-3 -5 -1 -10 4 -10 6 0 11 5 11 10 0 6 -2 10 -4 10 -3
0 -8 -4 -11 -10z"/>
<path d="M9250 11840 c0 -5 5 -10 10 -10 6 0 10 5 10 10 0 6 -4 10 -10 10 -5
0 -10 -4 -10 -10z"/>
<path d="M9100 11820 c0 -5 5 -10 10 -10 6 0 10 5 10 10 0 6 -4 10 -10 10 -5
0 -10 -4 -10 -10z"/>
<path d="M9157 11799 c5 -28 4 -30 -13 -21 -20 10 -44 6 -44 -8 0 -5 14 -8 31
-8 31 1 52 28 42 56 -10 25 -22 11 -16 -19z"/>
<path d="M9060 11795 c-7 -8 -8 -15 -2 -15 5 0 15 7 22 15 7 8 8 15 2 15 -5 0
-15 -7 -22 -15z"/>
<path d="M9180 11781 c0 -6 5 -13 10 -16 6 -3 10 1 10 9 0 9 -4 16 -10 16 -5
0 -10 -4 -10 -9z"/>
<path d="M8980 11746 c0 -8 5 -18 10 -21 6 -3 10 3 10 14 0 12 -4 21 -10 21
-5 0 -10 -6 -10 -14z"/>
<path d="M9130 11711 c0 -6 5 -13 10 -16 6 -3 10 1 10 9 0 9 -4 16 -10 16 -5
0 -10 -4 -10 -9z"/>
<path d="M8990 11680 c0 -5 5 -10 10 -10 6 0 10 5 10 10 0 6 -4 10 -10 10 -5
0 -10 -4 -10 -10z"/>
<path d="M8890 11670 c0 -5 5 -10 10 -10 6 0 10 5 10 10 0 6 -4 10 -10 10 -5
0 -10 -4 -10 -10z"/>
<path d="M8941 11666 c-7 -8 -8 -17 -3 -20 6 -3 13 1 16 10 9 23 2 28 -13 10z"/>
<path d="M9286 11671 c-8 -13 11 -61 24 -61 13 0 13 17 0 25 -5 3 -7 12 -4 19
6 16 -12 31 -20 17z"/>
<path d="M9157 11650 c4 -14 0 -20 -11 -20 -9 0 -16 -7 -16 -16 0 -11 6 -14
23 -9 34 11 40 21 25 44 -16 27 -28 27 -21 1z"/>
<path d="M9208 11663 c7 -3 16 -2 19 1 4 3 -2 6 -13 5 -11 0 -14 -3 -6 -6z"/>
<path d="M9075 11650 c-3 -5 -1 -10 4 -10 6 0 11 5 11 10 0 6 -2 10 -4 10 -3
0 -8 -4 -11 -10z"/>
<path d="M9205 11617 c-6 -12 -18 -21 -28 -21 -9 1 -17 -2 -17 -7 0 -12 18
-20 24 -10 3 4 19 11 36 14 18 4 30 13 30 22 0 9 -5 13 -11 9 -6 -3 -14 -2
-18 4 -4 7 -10 2 -16 -11z"/>
<path d="M8960 11619 c0 -5 5 -7 10 -4 6 3 10 8 10 11 0 2 -4 4 -10 4 -5 0
-10 -5 -10 -11z"/>
<path d="M9100 11606 c0 -9 5 -16 10 -16 6 0 10 4 10 9 0 6 -4 13 -10 16 -5 3
-10 -1 -10 -9z"/>
<path d="M8886 11594 c-9 -22 -8 -23 13 -17 12 3 17 11 14 19 -7 19 -19 18
-27 -2z"/>
<path d="M8892 11540 c0 -14 2 -19 5 -12 2 6 2 18 0 25 -3 6 -5 1 -5 -13z"/>
<path d="M8965 11549 c-10 -15 3 -25 16 -12 7 7 7 13 1 17 -6 3 -14 1 -17 -5z"/>
<path d="M8540 11515 c0 -8 11 -12 28 -11 37 3 39 21 2 22 -18 1 -30 -4 -30
-11z"/>
<path d="M8570 11475 c0 -8 4 -15 9 -15 5 0 11 7 15 15 3 9 0 15 -9 15 -8 0
-15 -7 -15 -15z"/>
<path d="M8440 11460 c0 -11 5 -20 10 -20 6 0 10 9 10 20 0 11 -4 20 -10 20
-5 0 -10 -9 -10 -20z"/>
<path d="M8380 11420 c0 -5 5 -10 11 -10 5 0 7 5 4 10 -3 6 -8 10 -11 10 -2 0
-4 -4 -4 -10z"/>
<path d="M8220 11405 c0 -8 4 -15 10 -15 5 0 7 7 4 15 -4 8 -8 15 -10 15 -2 0
-4 -7 -4 -15z"/>
<path d="M7855 11199 c-11 -17 1 -21 15 -4 8 9 8 15 2 15 -6 0 -14 -5 -17 -11z"/>
<path d="M7940 11190 c0 -5 5 -10 10 -10 6 0 10 5 10 10 0 6 -4 10 -10 10 -5
0 -10 -4 -10 -10z"/>
<path d="M7660 11020 c0 -5 5 -10 10 -10 6 0 10 5 10 10 0 6 -4 10 -10 10 -5
0 -10 -4 -10 -10z"/>
<path d="M7286 10861 c-4 -7 -5 -15 -2 -18 9 -9 19 4 14 18 -4 11 -6 11 -12 0z"/>
<path d="M7400 10725 c-14 -16 -10 -18 14 -9 9 3 16 10 16 15 0 14 -16 11 -30
-6z"/>
<path d="M5990 9410 c0 -5 5 -10 11 -10 5 0 7 5 4 10 -3 6 -8 10 -11 10 -2 0
-4 -4 -4 -10z"/>
<path d="M14097 7729 c-614 -55 -1100 -476 -1244 -1080 -27 -113 -28 -118 -28
-459 0 -341 1 -346 28 -459 155 -646 703 -1084 1357 -1084 662 0 1213 447
1361 1103 23 100 24 123 24 445 -1 335 -1 342 -28 454 -107 448 -403 802 -818
977 -195 82 -445 122 -652 103z m382 -318 c70 -26 120 -60 177 -119 46 -47
104 -136 104 -159 0 -9 -23 -13 -81 -13 l-82 0 -51 53 c-110 115 -251 137
-394 63 l-31 -16 -30 65 c-17 36 -31 70 -31 76 0 13 96 57 152 69 66 14 205 4
267 -19z m-672 -46 c-45 -31 -67 -71 -67 -125 0 -78 56 -142 157 -180 233 -87
260 -100 306 -149 77 -82 89 -201 32 -316 l-30 -60 -6 57 c-7 67 -39 115 -100
154 -22 13 -115 54 -207 90 -177 69 -212 92 -243 159 -23 50 -25 154 -3 218
20 59 81 129 136 155 59 29 70 27 25 -3z m983 -437 c-1 -102 -58 -224 -144
-306 -71 -69 -158 -118 -174 -99 -15 18 -62 115 -62 126 0 6 19 20 43 32 41
21 127 96 127 111 0 4 -56 8 -125 8 l-125 0 -40 80 -40 80 270 0 270 0 0 -32z
m-1052 -174 c15 -10 22 -25 22 -48 0 -27 -8 -40 -44 -70 -31 -25 -47 -47 -53
-73 l-9 -38 -22 46 c-57 118 16 246 106 183z m688 -690 c261 -53 548 -220 797
-463 37 -36 67 -73 67 -82 0 -9 -41 -55 -90 -103 -236 -224 -486 -370 -740
-434 -84 -20 -130 -26 -230 -26 -132 0 -194 9 -325 50 -164 52 -385 177 -535
302 -100 84 -210 195 -210 213 0 9 39 54 87 99 274 260 577 422 858 459 85 12
225 5 321 -15z"/>
<path d="M14087 5850 c-98 -25 -206 -100 -256 -178 -111 -173 -10 -388 221
-469 59 -21 92 -26 168 -26 52 0 115 5 139 12 135 39 254 134 286 231 22 65
17 169 -10 225 -31 65 -107 133 -193 173 -73 34 -83 36 -197 38 -66 2 -137 -1
-158 -6z m226 -204 c18 -7 45 -28 61 -45 24 -25 30 -40 30 -80 1 -42 -4 -55
-29 -81 -45 -48 -83 -63 -150 -63 -67 0 -105 15 -150 63 -25 26 -30 40 -30 80
0 40 5 54 30 81 17 17 44 37 60 45 39 17 137 18 178 0z"/>
<path d="M15124 4447 c-2 -7 -3 -82 -2 -167 3 -152 3 -155 26 -158 l22 -3 0
170 c0 165 -1 171 -20 171 -11 0 -23 -6 -26 -13z"/>
<path d="M12865 4426 c-18 -18 -25 -36 -25 -64 0 -44 20 -67 87 -101 56 -28
71 -56 46 -83 -16 -17 -26 -19 -76 -14 -47 5 -59 3 -64 -10 -20 -52 155 -53
192 -1 35 50 9 105 -72 153 -67 39 -78 58 -47 89 12 12 30 15 63 13 40 -3 46
-1 46 17 0 18 -8 20 -62 23 -56 3 -66 0 -88 -22z"/>
<path d="M14213 4429 c-52 -33 -78 -84 -78 -156 0 -66 16 -98 67 -136 33 -25
132 -26 177 -2 30 15 31 18 31 85 l0 70 -60 0 c-53 0 -60 -2 -60 -19 0 -15 8
-21 33 -23 28 -3 32 -7 35 -37 2 -20 -2 -37 -10 -42 -18 -12 -85 -11 -109 1
-45 25 -62 109 -35 175 20 47 66 69 128 61 39 -6 49 -4 55 10 9 24 -15 34 -82
34 -43 0 -69 -6 -92 -21z"/>
<path d="M13847 4392 c-10 -10 -17 -26 -17 -35 0 -13 -9 -17 -33 -17 -18 0
-43 -7 -55 -16 -20 -14 -23 -14 -28 0 -3 9 -12 16 -20 16 -11 0 -14 -23 -14
-110 l0 -110 25 0 c24 0 25 2 25 74 0 82 5 91 63 101 l37 7 0 -74 c0 -62 3
-78 20 -93 22 -20 75 -24 91 -8 17 17 1 33 -32 33 l-29 0 0 70 0 70 30 0 c23
0 30 4 30 20 0 16 -7 20 -30 20 -28 0 -30 3 -30 35 0 39 -9 44 -33 17z"/>
<path d="M13153 4335 c-18 -8 -33 -10 -33 -5 0 6 -9 10 -20 10 -19 0 -20 -7
-20 -110 l0 -110 25 0 c25 0 25 1 25 80 0 84 9 100 59 100 19 0 20 -7 23 -87
3 -88 3 -88 31 -91 l27 -3 0 81 c0 76 1 81 24 92 47 21 56 7 56 -87 0 -84 0
-85 25 -85 25 0 25 0 25 94 0 71 -4 98 -15 110 -25 24 -51 28 -89 12 -31 -13
-39 -13 -63 -1 -34 18 -39 18 -80 0z"/>
<path d="M13500 4337 c-24 -8 -35 -18 -35 -32 0 -13 5 -18 15 -16 8 3 31 5 50
5 29 1 36 -3 38 -21 3 -20 -1 -23 -27 -23 -45 0 -80 -17 -92 -44 -29 -62 29
-110 97 -81 19 8 34 10 34 4 0 -5 9 -9 20 -9 19 0 20 7 20 93 0 77 -3 97 -17
110 -26 23 -63 28 -103 14z m70 -136 c0 -25 -24 -43 -52 -39 -30 4 -29 29 2
45 35 18 50 16 50 -6z"/>
<path d="M14503 4335 c-67 -29 -84 -139 -30 -193 36 -36 109 -35 146 2 22 23
26 35 26 86 0 50 -4 63 -25 84 -32 31 -76 39 -117 21z m87 -54 c26 -49 -1
-131 -43 -131 -45 0 -73 80 -43 125 21 31 70 35 86 6z"/>
<path d="M15270 4332 c-85 -42 -71 -197 20 -215 38 -8 105 13 105 33 0 12 -11
14 -51 12 -44 -3 -54 0 -67 19 -9 12 -14 26 -11 31 3 4 34 8 70 8 74 0 83 9
64 66 -9 26 -21 40 -46 50 -42 18 -42 18 -84 -4z m78 -54 c3 -15 -4 -18 -37
-18 -43 0 -50 7 -29 28 18 18 62 11 66 -10z"/>
<path d="M15472 4340 c-12 -5 -27 -21 -34 -35 -16 -36 1 -68 53 -96 23 -13 40
-28 38 -34 -2 -5 -24 -10 -49 -10 -34 0 -45 -4 -48 -17 -2 -12 7 -20 35 -27
50 -14 94 -1 113 31 21 38 2 70 -55 97 -54 25 -54 46 -1 47 53 1 68 28 24 43
-36 13 -45 13 -76 1z"/>
<path d="M14702 4317 c-26 -28 -29 -82 -7 -114 11 -16 13 -28 6 -40 -18 -35
-34 -102 -28 -117 17 -43 139 -47 182 -6 21 19 25 21 30 7 16 -40 144 -49 185
-12 23 21 26 67 5 85 -8 6 -35 17 -60 23 -53 14 -59 29 -15 38 47 10 70 36 70
79 0 24 5 40 15 44 8 3 15 12 15 21 0 12 -14 15 -76 15 -88 0 -108 -8 -123
-52 -9 -26 -8 -38 7 -68 17 -36 15 -60 -11 -117 l-9 -21 -22 24 c-12 15 -42
30 -71 38 -50 12 -63 28 -28 34 47 8 73 26 83 57 6 17 8 39 4 48 -4 12 -1 17
10 17 9 0 16 8 16 20 0 18 -7 20 -78 20 -69 0 -81 -3 -100 -23z m92 -23 c27
-26 18 -64 -17 -77 -23 -9 -59 26 -50 50 16 45 40 54 67 27z m213 4 c21 -28
22 -49 3 -68 -28 -28 -69 -10 -70 32 0 20 26 48 44 48 8 0 18 -6 23 -12z
m-214 -199 c20 -5 37 -13 37 -17 0 -18 -26 -32 -60 -32 -44 0 -63 16 -49 42
11 21 20 22 72 7z m220 0 c20 -5 37 -13 37 -17 0 -19 -28 -32 -67 -32 -47 0
-65 19 -43 45 15 18 23 18 73 4z"/>
<path d="M13963 4254 c-10 -26 11 -35 73 -32 52 3 59 5 62 26 3 21 0 22 -63
22 -50 0 -67 -4 -72 -16z"/>
<path d="M18210 13060 c0 -5 5 -10 10 -10 6 0 10 5 10 10 0 6 -4 10 -10 10 -5
0 -10 -4 -10 -10z"/>
<path d="M18590 13050 c0 -5 6 -10 14 -10 8 0 18 5 21 10 3 6 -3 10 -14 10
-12 0 -21 -4 -21 -10z"/>
<path d="M17916 13035 c-3 -8 -1 -15 4 -15 13 0 22 18 11 24 -5 3 -11 -1 -15
-9z"/>
<path d="M9154 12808 c0 -10 6 -18 12 -18 7 0 19 -3 28 -6 10 -4 16 -1 16 8 0
7 -13 18 -28 24 -24 9 -28 8 -28 -8z"/>
<path d="M9303 12813 c-7 -2 -13 -9 -13 -14 0 -4 7 -6 16 -2 9 3 21 -3 30 -16
8 -11 22 -21 30 -21 21 0 17 18 -7 25 -12 4 -18 12 -15 21 5 14 -16 18 -41 7z"/>
<path d="M8355 12780 c-3 -5 -1 -10 4 -10 6 0 11 5 11 10 0 6 -2 10 -4 10 -3
0 -8 -4 -11 -10z"/>
<path d="M5750 6835 c0 -8 5 -15 10 -15 6 0 10 7 10 15 0 8 -4 15 -10 15 -5 0
-10 -7 -10 -15z"/>
<path d="M5871 6004 c0 -11 3 -14 6 -6 3 7 2 16 -1 19 -3 4 -6 -2 -5 -13z"/>
<path d="M6010 5131 c0 -17 18 -21 24 -6 3 9 0 15 -9 15 -8 0 -15 -4 -15 -9z"/>
<path d="M6040 5091 c0 -6 4 -13 10 -16 6 -3 7 1 4 9 -7 18 -14 21 -14 7z"/>
<path d="M6086 4931 c5 -5 20 -12 34 -16 24 -7 24 -7 5 9 -21 16 -56 23 -39 7z"/>
<path d="M6215 4680 c3 -5 11 -10 16 -10 6 0 7 5 4 10 -3 6 -11 10 -16 10 -6
0 -7 -4 -4 -10z"/>
<path d="M6675 4150 c-3 -5 -1 -10 4 -10 6 0 11 5 11 10 0 6 -2 10 -4 10 -3 0
-8 -4 -11 -10z"/>
<path d="M7210 3700 c0 -5 5 -10 10 -10 6 0 10 5 10 10 0 6 -4 10 -10 10 -5 0
-10 -4 -10 -10z"/>
<path d="M20520 3484 c0 -8 5 -12 10 -9 6 4 8 11 5 16 -9 14 -15 11 -15 -7z"/>
<path d="M20316 3396 c3 -9 11 -16 16 -16 13 0 5 23 -10 28 -7 2 -10 -2 -6
-12z"/>
<path d="M20358 3387 c-5 -28 -1 -32 19 -19 10 7 10 12 -1 27 -12 17 -13 17
-18 -8z"/>
<path d="M20260 3369 c0 -5 5 -7 10 -4 6 3 10 8 10 11 0 2 -4 4 -10 4 -5 0
-10 -5 -10 -11z"/>
<path d="M18980 3150 c0 -5 5 -10 10 -10 6 0 10 5 10 10 0 6 -4 10 -10 10 -5
0 -10 -4 -10 -10z"/>
<path d="M18331 3124 c0 -11 3 -14 6 -6 3 7 2 16 -1 19 -3 4 -6 -2 -5 -13z"/>
<path d="M16716 3118 c3 -4 11 -5 19 -1 21 7 19 12 -4 10 -11 0 -18 -5 -15 -9z"/>
<path d="M16530 3110 c0 -5 5 -10 10 -10 6 0 10 5 10 10 0 6 -4 10 -10 10 -5
0 -10 -4 -10 -10z"/>
<path d="M18040 3106 c0 -9 7 -16 16 -16 17 0 14 22 -4 28 -7 2 -12 -3 -12
-12z"/>
<path d="M17270 3100 c0 -5 5 -10 11 -10 5 0 7 5 4 10 -3 6 -8 10 -11 10 -2 0
-4 -4 -4 -10z"/>
<path d="M18798 3103 c7 -3 16 -2 19 1 4 3 -2 6 -13 5 -11 0 -14 -3 -6 -6z"/>
<path d="M18540 3080 c0 -5 5 -10 10 -10 6 0 10 5 10 10 0 6 -4 10 -10 10 -5
0 -10 -4 -10 -10z"/>
</g>
</svg>
