<?xml version="1.0" standalone="no"?>
<!DOCTYPE svg PUBLIC "-//W3C//DTD SVG 20010904//EN"
 "http://www.w3.org/TR/2001/REC-SVG-20010904/DTD/svg10.dtd">
<svg version="1.0" xmlns="http://www.w3.org/2000/svg"
 width="240pt" height="191pt" viewBox="0 0 240 191"
 preserveAspectRatio="xMidYMid meet">

<g transform="translate(0,191) scale(0.1,-0.1)"
fill="#3F3F3F" stroke="none">
<path d="M1671 1844 c-29 -21 -27 -29 14 -53 36 -21 71 -81 62 -106 -3 -6 -29
-15 -59 -18 -82 -10 -173 -59 -203 -111 -28 -49 -32 -101 -10 -134 24 -33 100
-74 184 -98 l76 -22 0 -112 0 -113 -69 -28 c-109 -44 -157 -101 -158 -188 0
-90 56 -152 169 -185 32 -10 63 -19 69 -21 13 -4 29 -194 17 -204 -4 -4 -28
-16 -53 -26 -25 -10 -60 -29 -77 -42 -68 -50 -27 -118 89 -150 l59 -17 -3 -50
c-2 -42 -7 -51 -23 -54 -51 -7 -65 -13 -65 -27 0 -11 12 -15 48 -15 36 0 50
-5 60 -20 16 -27 36 -25 51 3 9 16 28 28 62 36 65 17 99 45 99 82 0 33 -31 57
-112 87 -48 17 -48 17 -48 63 l0 46 64 11 c118 22 177 61 196 131 10 39 1 91
-21 118 -17 20 -115 68 -168 83 l-44 12 7 66 c3 37 6 102 6 145 0 75 1 78 28
88 87 36 174 83 191 105 32 40 36 87 14 131 -22 44 -106 104 -173 126 -50 16
-48 10 -34 142 l5 51 147 -1 c134 0 147 2 146 18 -2 14 6 17 40 17 23 0 52 -7
64 -16 12 -8 22 -11 22 -5 0 5 -6 13 -12 18 -9 5 -3 10 17 14 20 5 7 7 -41 8
-51 1 -73 5 -77 15 -9 22 -182 59 -244 52 -60 -7 -65 1 -36 52 14 24 15 38 8
68 -10 37 -12 39 -45 36 -82 -6 -157 -7 -186 0 -21 5 -38 2 -53 -8z m69 -348
l0 -74 -40 10 c-50 13 -84 52 -70 79 11 20 38 37 79 50 14 4 27 8 29 8 1 1 2
-32 2 -73z m192 -253 c33 -30 12 -103 -29 -103 -12 0 -14 11 -9 53 3 28 5 55
6 60 0 12 12 8 32 -10z m-189 -385 c3 -51 4 -94 2 -97 -2 -2 -20 12 -40 32
-43 43 -46 82 -9 126 14 17 29 31 33 31 5 0 11 -41 14 -92z m192 -262 c27 -11
35 -21 35 -40 0 -19 -10 -29 -52 -50 -28 -14 -53 -24 -55 -22 -2 2 -1 31 3 65
7 67 12 70 69 47z m-155 -282 c0 -8 -5 -12 -10 -9 -6 4 -8 11 -5 16 9 14 15
11 15 -7z m108 -126 c18 -18 14 -46 -8 -58 -11 -6 -20 -7 -20 -2 0 5 -3 24 -6
41 -7 33 10 43 34 19z"/>
<path d="M576 1785 c-3 -16 -13 -55 -22 -85 -9 -30 -18 -66 -21 -80 -2 -14 -9
-34 -13 -45 -5 -11 -23 -69 -40 -130 -18 -60 -52 -180 -76 -265 -25 -85 -61
-213 -80 -284 -19 -71 -37 -133 -40 -138 -3 -4 3 -8 13 -9 14 0 14 -2 -4 -9
-23 -9 -25 -18 -26 -87 -1 -19 -6 -33 -13 -33 -6 0 -14 -7 -18 -15 -3 -8 -1
-15 4 -15 6 0 10 -5 10 -11 0 -5 -4 -8 -9 -4 -5 3 -17 -21 -26 -52 -9 -32 -17
-62 -19 -68 -2 -5 1 -20 5 -32 6 -17 5 -23 -6 -23 -18 0 -20 -26 -2 -33 7 -4
6 -6 -5 -6 -14 -1 -46 -61 -31 -61 3 0 0 -7 -7 -15 -10 -13 -7 -14 26 -12 26
3 40 9 44 22 6 17 7 17 13 1 11 -27 27 -9 27 30 0 35 -15 45 -37 23 -9 -9 -11
-7 -9 7 3 16 11 19 55 17 35 -2 50 1 45 8 -4 8 0 8 14 0 30 -16 109 -14 115 3
3 8 -1 17 -8 20 -16 6 -10 36 7 36 5 0 6 -6 2 -12 -5 -10 -4 -10 7 0 11 11 11
16 0 35 -13 20 -13 21 2 8 11 -9 17 -10 17 -2 0 8 72 11 255 11 l254 -1 9 -32
c5 -18 31 -107 57 -200 l48 -167 138 0 c124 0 139 2 139 17 0 15 -51 191 -67
233 -3 8 -7 22 -9 30 -2 8 -37 130 -79 270 -42 140 -91 307 -110 370 -19 63
-50 169 -70 235 -20 66 -47 156 -60 200 -12 44 -43 145 -67 225 l-44 145 -141
5 -141 5 -6 -30z m179 -515 c2 -8 8 -28 14 -43 6 -16 13 -43 15 -60 8 -50 14
-73 25 -93 5 -11 14 -37 19 -59 6 -22 20 -74 31 -115 12 -41 24 -87 27 -102
l7 -28 -111 0 c-79 0 -112 4 -115 13 -4 8 -8 9 -14 1 -10 -13 -108 -19 -100
-7 3 5 8 20 11 34 2 13 28 110 56 214 29 105 61 224 71 265 11 41 22 82 25 90
5 13 23 -37 39 -110z m-440 -500 c3 -5 1 -10 -4 -10 -6 0 -11 5 -11 10 0 6 2
10 4 10 3 0 8 -4 11 -10z m79 -16 c3 -8 2 -12 -4 -9 -6 3 -10 10 -10 16 0 14
7 11 14 -7z m-41 -41 c-7 -2 -19 -2 -25 0 -7 3 -2 5 12 5 14 0 19 -2 13 -5z
m50 -63 c3 -11 1 -18 -4 -14 -5 3 -9 12 -9 20 0 20 7 17 13 -6z m-51 -95 c3
-31 1 -34 -18 -33 -13 1 -20 6 -18 10 3 5 10 5 16 2 8 -5 9 3 5 24 -4 18 -3
32 2 32 5 0 11 -16 13 -35z m-99 -15 c3 -12 0 -20 -8 -20 -8 0 -11 8 -8 20 3
11 7 20 8 20 1 0 5 -9 8 -20z m54 -36 c-3 -3 -12 -4 -19 -1 -8 3 -5 6 6 6 11
1 17 -2 13 -5z m-5 -32 c-4 -11 -1 -13 8 -7 9 5 11 4 6 -4 -4 -6 -12 -9 -17
-6 -5 4 -9 1 -9 -4 0 -6 6 -11 14 -11 17 0 15 -32 -2 -38 -7 -2 -10 -8 -7 -13
4 -5 -1 -6 -9 -3 -19 7 -16 27 4 36 12 5 12 7 -2 7 -19 1 -26 41 -7 41 5 0 8
4 5 8 -3 5 1 9 8 9 8 0 12 -7 8 -15z m86 -87 c-3 -3 -9 2 -12 12 -6 14 -5 15
5 6 7 -7 10 -15 7 -18z m-141 -72 c-3 -10 -5 -4 -5 12 0 17 2 24 5 18 2 -7 2
-21 0 -30z"/>
<path d="M330 350 c0 -5 -7 -10 -15 -10 -8 0 -15 -4 -15 -10 0 -5 6 -10 14
-10 7 0 16 -8 18 -18 3 -12 16 -18 38 -20 39 -3 55 -12 22 -12 -22 0 -24 -5
-24 -55 0 -46 2 -55 11 -55 6 0 7 16 4 36 -5 28 -2 40 11 49 9 7 19 23 21 35
2 12 7 30 10 41 5 13 2 19 -10 19 -11 0 -14 -7 -11 -25 4 -21 1 -25 -20 -25
-15 0 -24 6 -24 15 0 8 7 15 15 15 8 0 15 5 15 10 0 6 -7 10 -15 10 -8 0 -15
5 -15 10 0 6 -7 10 -15 10 -8 0 -15 -4 -15 -10z m17 -32 c-3 -7 -5 -2 -5 12 0
14 2 19 5 13 2 -7 2 -19 0 -25z"/>
<path d="M408 353 c7 -3 16 -2 19 1 4 3 -2 6 -13 5 -11 0 -14 -3 -6 -6z"/>
<path d="M288 283 c7 -3 16 -2 19 1 4 3 -2 6 -13 5 -11 0 -14 -3 -6 -6z"/>
<path d="M277 229 c-7 -28 11 -65 25 -51 12 12 6 64 -8 69 -6 2 -14 -6 -17
-18z m20 -26 c-3 -10 -5 -4 -5 12 0 17 2 24 5 18 2 -7 2 -21 0 -30z"/>
<path d="M339 248 c-6 -20 -1 -68 6 -68 7 0 9 15 7 35 -3 29 -9 44 -13 33z"/>
<path d="M391 224 c0 -11 3 -14 6 -6 3 7 2 16 -1 19 -3 4 -6 -2 -5 -13z"/>
<path d="M188 143 c6 -2 18 -2 25 0 6 3 1 5 -13 5 -14 0 -19 -2 -12 -5z"/>
<path d="M236 113 c10 -40 14 -41 14 -5 0 18 -5 32 -10 32 -6 0 -8 -11 -4 -27z"/>
<path d="M336 113 c10 -40 14 -41 14 -5 0 18 -5 32 -10 32 -6 0 -8 -11 -4 -27z"/>
<path d="M170 90 c0 -5 5 -10 10 -10 6 0 10 5 10 10 0 6 -4 10 -10 10 -5 0
-10 -4 -10 -10z"/>
</g>
</svg>
