<?xml version="1.0" standalone="no"?>
<!DOCTYPE svg PUBLIC "-//W3C//DTD SVG 20010904//EN"
 "http://www.w3.org/TR/2001/REC-SVG-20010904/DTD/svg10.dtd">
<svg version="1.0" xmlns="http://www.w3.org/2000/svg"
 width="512pt" height="512pt" viewBox="0 0 512 512"
 preserveAspectRatio="xMidYMid meet">

<g transform="translate(0,512) scale(0.1,-0.1)"
fill="#3f3f3f" stroke="none">
<path d="M2312 4454 c-106 -53 -142 -130 -142 -308 0 -96 -3 -118 -24 -163
-53 -113 -199 -163 -310 -106 -16 8 -70 54 -120 102 -98 93 -134 111 -222 111
-78 -1 -125 -30 -275 -171 -161 -152 -189 -196 -189 -293 1 -86 24 -129 128
-239 91 -95 112 -132 112 -201 0 -49 -22 -104 -58 -146 -56 -66 -79 -73 -242
-80 -136 -6 -149 -8 -199 -35 -57 -32 -91 -69 -116 -128 -22 -53 -22 -421 0
-474 25 -59 59 -96 116 -128 50 -27 63 -29 199 -35 163 -7 186 -14 242 -80 36
-42 58 -97 58 -146 0 -69 -21 -107 -111 -200 -104 -107 -128 -154 -129 -240 0
-94 28 -139 184 -292 151 -149 189 -172 281 -172 85 0 134 26 236 125 74 71
96 86 144 100 84 25 164 3 229 -61 52 -53 59 -79 66 -234 5 -121 10 -152 28
-186 27 -52 94 -111 141 -124 20 -5 126 -10 237 -10 196 0 201 1 252 26 102
51 132 116 141 309 8 155 16 181 76 233 44 39 133 67 183 57 59 -11 92 -33
178 -116 93 -91 146 -118 223 -119 104 0 123 11 284 169 82 81 158 164 170
186 28 53 30 164 3 215 -10 19 -56 73 -102 120 -46 47 -91 103 -100 125 -41
100 -2 222 91 280 46 29 55 30 189 36 154 6 194 18 247 76 62 66 64 78 64 323
0 211 -1 227 -22 265 -11 22 -34 52 -50 66 -56 53 -88 62 -238 69 -150 6 -176
14 -229 67 -62 61 -84 168 -50 248 8 21 54 77 101 124 47 47 94 104 104 126
23 49 25 142 4 193 -10 22 -73 94 -158 181 -160 162 -206 191 -297 191 -78 0
-132 -29 -225 -119 -88 -86 -124 -108 -187 -117 -85 -12 -169 28 -223 104 -29
42 -30 47 -36 190 -5 138 -7 151 -34 201 -16 29 -43 64 -60 77 -65 50 -91 54
-308 54 -198 0 -204 -1 -255 -26z m448 -1120 c285 -73 504 -290 581 -579 30
-111 30 -279 0 -390 -91 -340 -370 -572 -721 -601 -266 -22 -556 119 -707 342
-54 80 -76 124 -109 224 -25 77 -28 98 -28 230 0 132 3 153 28 230 33 100 55
144 109 224 114 169 317 298 527 335 74 13 240 5 320 -15z"/>
</g>
</svg>
