<?xml version="1.0" standalone="no"?>
<!DOCTYPE svg PUBLIC "-//W3C//DTD SVG 20010904//EN"
 "http://www.w3.org/TR/2001/REC-SVG-20010904/DTD/svg10.dtd">
<svg version="1.0" xmlns="http://www.w3.org/2000/svg"
 width="343pt" height="185pt" viewBox="0 0 343 185"
 preserveAspectRatio="xMidYMid meet">

<g transform="translate(0,185) scale(0.1,-0.1)"
fill="#3F3F3F" stroke="none">
<path d="M1575 1778 c-441 -37 -963 -313 -1394 -737 -102 -100 -121 -123 -113
-138 6 -10 59 -65 119 -123 466 -452 989 -716 1463 -737 439 -20 909 162 1365
528 137 110 355 323 355 346 0 5 -55 63 -123 129 -304 297 -644 519 -977 640
-224 80 -457 111 -695 92z m346 -348 c259 -67 432 -227 474 -439 15 -73 15
-87 1 -154 -73 -353 -525 -558 -936 -425 -94 30 -156 63 -231 124 -76 60 -127
126 -166 210 -23 52 -27 72 -27 164 0 74 5 118 17 149 28 72 105 178 165 226
75 60 202 123 294 146 106 26 309 25 409 -1z"/>
<path d="M1605 1113 c-176 -63 -222 -246 -88 -350 53 -42 70 -49 139 -63 100
-20 203 8 272 74 47 43 62 77 62 135 0 90 -35 142 -125 189 -67 34 -187 41
-260 15z"/>
</g>
</svg>
