<?xml version="1.0" standalone="no"?>
<!DOCTYPE svg PUBLIC "-//W3C//DTD SVG 20010904//EN"
 "http://www.w3.org/TR/2001/REC-SVG-20010904/DTD/svg10.dtd">
<svg version="1.0" xmlns="http://www.w3.org/2000/svg"
 width="352pt" height="401pt" viewBox="0 0 352 401"
 preserveAspectRatio="xMidYMid meet">

<g transform="translate(0,401) scale(0.1,-0.1)"
fill="#ffffff" stroke="none">
<path d="M1736 3924 c-66 -14 -176 -59 -222 -89 -21 -14 -21 -14 33 -123 l55
-110 41 24 c208 120 490 68 633 -116 l47 -60 134 0 c73 0 133 2 133 5 0 12
-65 133 -91 170 -95 135 -231 233 -394 285 -93 29 -271 36 -369 14z"/>
<path d="M1074 3830 c-154 -75 -258 -269 -240 -448 10 -94 41 -168 95 -222 49
-49 85 -65 386 -180 199 -76 269 -115 333 -185 61 -66 76 -106 70 -192 -5 -73
2 -71 49 21 44 87 54 126 54 227 0 125 -23 188 -96 267 -63 68 -106 91 -358
187 -222 85 -270 113 -321 187 -82 120 -52 260 73 339 58 37 33 37 -45 -1z"/>
<path d="M1862 3078 l63 -123 200 -5 199 -5 -68 -73 c-51 -54 -87 -81 -142
-109 -41 -20 -74 -38 -74 -39 0 -13 106 -214 113 -214 5 0 46 19 90 42 63 32
103 64 173 133 76 76 97 104 136 185 52 106 78 200 78 278 l0 52 -415 0 -416
0 63 -122z"/>
<path d="M873 2885 c-11 -8 -31 -36 -43 -62 -37 -80 -19 -196 44 -278 15 -20
15 -20 10 2 -9 33 13 88 49 121 18 17 49 46 70 65 49 46 51 91 6 136 -24 25
-39 31 -73 31 -23 0 -51 -7 -63 -15z"/>
<path d="M1615 1828 c-441 -37 -963 -313 -1394 -737 -102 -100 -121 -123 -113
-138 6 -10 59 -65 119 -123 466 -452 989 -716 1463 -737 439 -20 909 162 1365
528 137 110 355 323 355 346 0 5 -55 63 -123 129 -304 297 -644 519 -977 640
-224 80 -457 111 -695 92z m346 -348 c259 -67 432 -227 474 -439 15 -73 15
-87 1 -154 -73 -353 -525 -558 -936 -425 -94 30 -156 63 -231 124 -76 60 -127
126 -166 210 -23 52 -27 72 -27 164 0 74 5 118 17 149 28 72 105 178 165 226
75 60 202 123 294 146 106 26 309 25 409 -1z"/>
<path d="M1645 1163 c-176 -63 -222 -246 -88 -350 53 -42 70 -49 139 -63 100
-20 203 8 272 74 47 43 62 77 62 135 0 90 -35 142 -125 189 -67 34 -187 41
-260 15z"/>
</g>
</svg>
