<?xml version="1.0" standalone="no"?>
<!DOCTYPE svg PUBLIC "-//W3C//DTD SVG 20010904//EN"
 "http://www.w3.org/TR/2001/REC-SVG-20010904/DTD/svg10.dtd">
<svg version="1.0" xmlns="http://www.w3.org/2000/svg"
 width="225pt" height="225pt" viewBox="0 0 225 225"
 preserveAspectRatio="xMidYMid meet">

<g transform="translate(0,225) scale(0.1,-0.1)"
fill="#3f3f3f" stroke="none">
<path d="M530 1198 l0 -395 127 -7 c165 -9 256 -27 354 -70 l79 -34 0 393 0
393 -30 25 c-57 49 -168 72 -392 83 l-138 7 0 -395z"/>
<path d="M1473 1579 c-129 -10 -217 -32 -268 -67 l-40 -28 -3 -396 -2 -396 79
34 c98 43 189 61 354 70 l127 7 0 393 0 394 -72 -1 c-40 -1 -119 -5 -175 -10z"/>
<path d="M367 1503 c-4 -3 -7 -195 -7 -425 l0 -418 333 0 c331 1 332 1 297 20
-72 37 -160 53 -340 59 l-175 6 -3 383 -2 382 -48 0 c-27 0 -52 -3 -55 -7z"/>
<path d="M1780 1131 l0 -378 -152 -7 c-84 -4 -184 -13 -223 -21 -70 -13 -151
-40 -169 -57 -6 -4 139 -8 322 -8 l332 0 0 425 0 425 -55 0 -55 0 0 -379z"/>
</g>
</svg>
