<?xml version="1.0" standalone="no"?>
<!DOCTYPE svg PUBLIC "-//W3C//DTD SVG 20010904//EN"
 "http://www.w3.org/TR/2001/REC-SVG-20010904/DTD/svg10.dtd">
<svg version="1.0" xmlns="http://www.w3.org/2000/svg"
 width="710.000000pt" height="728.000000pt" viewBox="0 0 710.000000 728.000000"
 preserveAspectRatio="xMidYMid meet">

<g transform="translate(0.000000,728.000000) scale(0.100000,-0.100000)"
fill="#000000" stroke="none">
<path d="M4445 7051 c-85 -21 -162 -82 -206 -163 l-34 -63 0 -1150 0 -1150 28
-57 c32 -65 89 -120 162 -154 47 -23 61 -24 248 -24 l197 0 0 -397 0 -398 398
398 397 397 541 0 c630 0 602 -4 700 94 102 103 94 -9 94 1295 l0 1136 -28 60
c-33 68 -92 127 -161 159 l-46 21 -1130 2 c-621 0 -1143 -2 -1160 -6z m2250
-215 c69 -29 65 44 65 -1170 l0 -1096 -29 -32 -29 -33 -579 -3 -579 -2 -239
-240 c-132 -132 -243 -240 -247 -240 -5 0 -8 108 -8 240 l0 240 -284 0 -284 0
-30 28 c-17 16 -33 43 -37 63 -3 19 -4 519 -3 1111 l3 1077 29 30 c16 16 38
32 50 34 11 2 504 5 1094 6 907 1 1078 -1 1107 -13z"/>
<path d="M4632 6299 c-64 -25 -121 -99 -123 -159 -1 -32 -2 -33 -9 -10 -4 14
-8 -204 -8 -485 1 -280 4 -492 8 -470 5 30 8 33 9 13 3 -66 48 -127 116 -159
38 -18 80 -19 753 -19 l712 0 0 650 0 650 -717 -1 c-423 0 -728 -4 -741 -10z"/>
<path d="M6365 6061 l-220 -139 -3 -279 -2 -280 227 -142 c218 -135 230 -141
280 -141 l53 0 0 560 0 560 -57 -1 c-57 0 -63 -4 -278 -138z"/>
<path d="M581 7039 c-187 -31 -377 -212 -420 -399 -7 -31 -11 -998 -11 -3005
0 -3253 -5 -3003 61 -3132 56 -110 161 -201 294 -254 l60 -24 993 -3 c545 -1
992 -1 992 2 0 2 -46 49 -102 105 l-101 100 -866 3 c-813 3 -869 4 -913 21
-67 26 -141 97 -175 165 l-28 57 0 2960 0 2960 28 57 c33 67 90 121 162 154
l52 24 1454 0 c1630 0 1507 6 1597 -75 26 -24 61 -67 77 -97 l30 -53 6 -1476
c3 -812 9 -1481 12 -1486 4 -6 37 -13 74 -17 38 -3 83 -9 100 -12 l33 -6 -3
1498 c-2 1345 -4 1504 -18 1550 -44 140 -144 263 -266 326 -137 72 -50 68
-1640 67 -794 -1 -1452 -5 -1482 -10z"/>
<path d="M1960 6515 l0 -105 105 0 105 0 0 105 0 105 -105 0 -105 0 0 -105z"/>
<path d="M570 6085 l0 -105 1495 0 1495 0 0 105 0 105 -1495 0 -1495 0 0 -105z"/>
<path d="M869 5651 c-305 -98 -396 -491 -164 -710 176 -167 439 -160 605 15
217 229 112 608 -193 699 -67 20 -179 18 -248 -4z m192 -201 c52 -14 115 -73
134 -125 54 -140 -47 -290 -195 -289 -122 0 -210 90 -210 211 1 142 133 241
271 203z"/>
<path d="M1957 5660 c-89 -23 -196 -100 -246 -179 -112 -174 -89 -392 58 -537
190 -188 499 -157 648 65 59 86 76 152 71 262 -4 76 -9 97 -41 162 -45 91
-112 156 -207 201 -55 26 -78 31 -155 33 -49 1 -107 -2 -128 -7z m199 -224
c112 -52 153 -173 98 -285 -63 -127 -220 -155 -328 -59 -113 98 -89 275 45
342 66 33 118 33 185 2z"/>
<path d="M3015 5657 c-121 -41 -208 -116 -262 -225 -37 -74 -38 -79 -38 -187
0 -103 2 -114 31 -176 128 -270 473 -333 684 -126 213 210 153 559 -117 688
-59 28 -80 33 -163 36 -61 2 -109 -2 -135 -10z m200 -216 c82 -37 128 -106
129 -191 1 -213 -277 -297 -388 -117 -34 55 -45 131 -26 179 48 121 177 179
285 129z"/>
<path d="M927 4600 c-125 -22 -248 -114 -306 -227 -131 -260 23 -561 314 -614
168 -31 353 61 437 217 146 274 -29 600 -337 627 -33 3 -82 2 -108 -3z m163
-230 c146 -75 163 -268 31 -364 -39 -28 -49 -31 -121 -31 -72 0 -82 3 -121 31
-100 73 -119 215 -42 311 55 68 175 93 253 53z"/>
<path d="M1972 4595 c-126 -28 -237 -119 -295 -243 -29 -62 -31 -76 -32 -172
0 -98 2 -110 32 -173 124 -261 445 -335 663 -152 97 81 150 196 150 324 0 125
-43 223 -135 310 -63 60 -139 98 -222 111 -72 12 -83 12 -161 -5z m184 -224
c125 -57 162 -224 72 -327 -88 -100 -243 -99 -325 1 -91 110 -46 281 87 334
40 16 122 12 166 -8z"/>
<path d="M3057 4590 c-126 -22 -251 -121 -308 -243 l-34 -72 -5 -1150 -5
-1150 -22 -40 c-12 -22 -49 -63 -81 -92 l-59 -52 -154 146 c-85 81 -199 190
-254 242 -246 236 -289 268 -414 305 -67 20 -207 21 -277 2 -93 -25 -186 -82
-282 -174 -75 -72 -93 -95 -102 -132 -14 -52 -7 -117 16 -162 9 -17 413 -429
899 -915 l883 -883 1160 0 1161 0 19 53 c85 228 181 591 227 864 52 306 57
398 62 1050 3 418 1 639 -6 672 -27 126 -122 251 -231 304 -108 52 -245 53
-359 2 -34 -16 -62 -26 -64 -24 -1 2 -11 22 -22 44 -32 64 -126 152 -200 186
-92 43 -203 51 -294 19 -63 -21 -157 -76 -181 -105 -10 -13 -19 -8 -59 27 -25
22 -75 55 -111 72 -59 28 -74 31 -165 31 -86 0 -109 -4 -162 -26 l-63 -27 0
414 c0 268 -4 432 -11 466 -32 148 -148 283 -285 332 -55 19 -158 27 -217 16z
m195 -246 c26 -18 55 -51 73 -84 l30 -55 0 -817 0 -818 108 0 107 0 0 230 c0
251 5 277 58 333 92 97 250 93 327 -7 47 -62 55 -110 55 -343 l0 -213 105 0
105 0 0 218 c0 226 5 264 41 317 88 128 269 119 354 -20 l30 -49 -3 -232 -3
-233 106 -3 c59 -2 109 -1 111 1 2 2 4 62 4 133 0 112 3 134 21 171 79 154
287 155 367 3 l27 -51 3 -465 c5 -758 -22 -1061 -139 -1540 -22 -91 -57 -214
-77 -275 l-37 -110 -1035 -2 -1035 -2 -849 843 -849 843 74 63 c127 108 217
131 349 91 68 -21 79 -29 189 -134 249 -240 498 -475 533 -506 71 -61 165 -73
248 -31 62 32 196 180 232 256 l33 69 5 1150 c4 837 8 1157 17 1176 19 44 66
91 108 111 61 29 152 21 207 -18z"/>
<path d="M891 3524 c-162 -43 -281 -174 -311 -341 -33 -182 66 -371 239 -456
62 -30 71 -32 181 -32 110 0 118 1 182 33 127 62 215 183 240 328 21 125 -25
258 -122 355 -111 112 -260 153 -409 113z m163 -208 c99 -30 156 -103 156
-201 0 -186 -220 -284 -353 -157 -97 92 -87 251 19 325 36 25 81 42 120 46 6
1 32 -5 58 -13z"/>
<path d="M1959 3526 c-282 -82 -406 -402 -249 -645 43 -68 100 -117 179 -155
62 -29 73 -31 177 -31 107 0 112 1 185 37 93 46 158 113 202 206 42 91 50 216
18 307 -43 122 -138 223 -253 267 -67 25 -196 33 -259 14z m167 -211 c85 -25
154 -116 154 -202 0 -21 -11 -61 -24 -89 -89 -191 -362 -152 -400 58 -19 105
55 209 169 238 44 12 47 11 101 -5z"/>
<path d="M570 1195 l0 -105 557 0 c306 0 553 3 550 8 -4 4 -51 51 -104 105
l-97 97 -453 0 -453 0 0 -105z"/>
<path d="M1750 755 l0 -105 185 0 c102 0 185 2 185 4 0 2 -46 49 -102 105
l-102 101 -83 0 -83 0 0 -105z"/>
</g>
</svg>
