<?xml version="1.0" standalone="no"?>
<!DOCTYPE svg PUBLIC "-//W3C//DTD SVG 20010904//EN"
 "http://www.w3.org/TR/2001/REC-SVG-20010904/DTD/svg10.dtd">
<svg version="1.0" xmlns="http://www.w3.org/2000/svg"
 width="512pt" height="512pt" viewBox="0 0 512 512"
 preserveAspectRatio="xMidYMid meet">

<g transform="translate(0,512) scale(0.1,-0.1)"
fill="#000000" stroke="none">
<path d="M1280 5104 c-164 -43 -285 -154 -351 -319 l-24 -60 -3 -2139 c-3
-2346 -6 -2191 56 -2316 35 -72 143 -179 212 -213 123 -59 64 -57 1380 -57
1039 0 1214 2 1269 15 181 43 338 192 383 364 16 61 17 215 17 2181 1 2335 6
2167 -62 2294 -65 124 -210 231 -346 256 -34 6 -498 10 -1265 9 -1028 0 -1219
-3 -1266 -15z m1582 -239 c8 -19 8 -28 -2 -40 -11 -13 -54 -15 -295 -15 -241
0 -284 2 -295 15 -10 12 -10 21 -2 40 l12 25 285 0 285 0 12 -25z m876 -201
c52 -21 90 -60 118 -119 l24 -50 0 -1764 c0 -1310 -3 -1774 -12 -1802 -16 -55
-73 -118 -132 -145 l-51 -24 -1135 0 -1135 0 -51 24 c-60 28 -116 90 -134 148
-19 65 -5 3501 15 3573 19 65 62 117 127 149 l52 26 1138 0 c1007 0 1143 -2
1176 -16z m-842 -4167 c47 -43 57 -113 24 -165 -36 -58 -58 -62 -370 -62 -312
0 -334 4 -370 62 -33 52 -23 122 24 165 l36 33 310 0 310 0 36 -33z"/>
</g>
<g transform="translate(0,512) scale(0.1,-0.1)"
fill="#6666FF" stroke="none">
<path d="M2210 3100 l0 -720 -265 -2 -266 -3 433 -537 c238 -295 435 -537 438
-537 3 0 200 242 438 537 l434 537 -286 3 -286 2 0 720 0 720 -320 0 -320 0 0
-720z"/>
</g>
</svg>
